<?xml version="1.0" encoding="utf-8"?>
<!-- Generator: Adobe Illustrator 22.1.0, SVG Export Plug-In . SVG Version: 6.00 Build 0)  -->
<!DOCTYPE svg PUBLIC "-//W3C//DTD SVG 1.1//EN" "http://www.w3.org/Graphics/SVG/1.1/DTD/svg11.dtd">
<svg version="1.1" id="Layer_1" xmlns="http://www.w3.org/2000/svg" xmlns:xlink="http://www.w3.org/1999/xlink" x="0px" y="0px"
	 viewBox="0 0 256.2 256.5" style="enable-background:new 0 0 256.2 256.5;" xml:space="preserve">
<style type="text/css">
	.st0{fill:#FF6200;}
</style>
<title>email</title>
<g id="Layer_2_1_">
	<g id="Layer_1-2">
		<g id="AawTRv.tif">
			<path class="st0" d="M142,256.5h-28c-1.1-0.2-2.2-0.6-3.4-0.7c-42.9-6.9-74.9-29.4-96-67.4c-8-14.3-12-29.9-14.6-45.9v-28
				c0.3-1.6,0.7-3.2,0.9-4.9C11.8,40,76.1-7.6,144.8,1c59.1,7.4,109.6,60.5,111.4,120.1c1.6,54.4-22.3,94.8-69.6,121.4
				C172.8,250.3,157.5,253.9,142,256.5z M238.9,128.3C238.9,67,189.1,17.4,127.8,17.5C66.6,17.6,17,67.3,17.1,128.6
				c0.1,61.3,49.8,110.9,111.1,110.8c61.1,0.1,110.7-49.4,110.8-110.6C238.9,128.6,238.9,128.5,238.9,128.3L238.9,128.3z"/>
		</g>
	</g>
</g>
<g id="fTdANB.tif">
	<g>
		<g>
			<path class="st0" d="M56,127.3c0-14.5,0-29,0-43.5c0-1.9,0-1.9,1.9-1.9c14.9,0,29.8-0.1,44.6,0.1c5.5,0.1,10.7,1.4,15.4,4.5
				c5.4,3.5,8.5,8.5,9.4,14.8c0.5,3.1,0.4,6.2-0.1,9.3c-0.9,5.5-3.9,9.6-8.7,12.5c-0.4,0.3-1.3,0.4-1.2,1c0.1,0.5,0.8,0.5,1.3,0.7
				c6.2,3,10,7.9,11.3,14.6c0.9,4.3,0.8,8.6-0.2,12.8c-1.1,4.5-3.3,8.4-6.4,11.8c-4.4,4.8-10,7.2-16.3,8.1
				c-3.6,0.5-7.1,0.7-10.7,0.7c-12.8,0-25.6,0-38.4,0c-1.9,0-1.9,0-1.9-1.8C56,156.4,56,141.8,56,127.3z M77.2,144.7
				c0,3.6,0,7.2,0,10.7c0,0.8,0.1,1.3,1.1,1.3c7.4-0.1,14.8,0.4,22.2-0.3c4.3-0.4,7.8-2.1,9.6-6.4c1.2-2.8,1.4-5.7,0.9-8.7
				c-0.7-3.6-2.8-6-6.2-7.2c-2.7-1-5.5-1.2-8.3-1.2c-6-0.1-11.9,0-17.9,0c-1,0-1.3,0.3-1.3,1.3C77.2,137.7,77.2,141.2,77.2,144.7z
				 M88.4,117.5c2.7,0,5.3,0,8,0c0.5,0,1,0,1.4,0c2.7-0.1,5.2-0.7,7.5-2c1.6-0.9,2.7-2.2,3.3-4c0.6-2,0.6-4.1,0.4-6.1
				c-0.4-3.3-2.5-5.5-5.6-6.3c-2.5-0.6-5-1-7.5-1c-5.8-0.1-11.5,0-17.3-0.1c-1,0-1.4,0.3-1.4,1.4c0,5.6,0,11.3,0,16.9
				c0,1,0.3,1.3,1.3,1.3C81.8,117.5,85.1,117.5,88.4,117.5z"/>
			<path class="st0" d="M178.2,142.2c-7.3,0-14.6,0-22,0c-1.6,0-1.6,0.1-1.5,1.6c0.3,3,1.1,6,2.9,8.5c2.2,3,5.3,4.7,9,5.4
				c3.7,0.6,7.3,0.6,10.7-1c2.2-1,4-2.5,5.1-4.7c0.5-1,1.2-1.4,2.4-1.4c4.9,0.1,9.8,0,14.7,0c1.4,0,1.5,0.1,1.2,1.4
				c-0.7,3-2.1,5.6-3.9,8c-3.1,4-6.8,7.1-11.4,9.2c-3.6,1.6-7.3,2.4-11.2,2.8c-4.2,0.3-8.4,0.3-12.6-0.7
				c-7.3-1.8-13.7-5.2-18.4-11.2c-2.9-3.7-4.5-8-5.3-12.6c-1.5-9.1-1.3-18.1,2.4-26.7c3.2-7.5,8.8-12.7,16.4-15.5
				c9-3.3,18.1-3,27.1,0.5c5.5,2.1,9.6,5.9,12.7,10.8c3.1,4.8,4.7,10.1,5,15.8c0.2,2.8,0.1,5.6,0.2,8.5c0,1.1-0.3,1.4-1.4,1.4
				C193,142.2,185.6,142.2,178.2,142.2z M169.4,130.7c4.4,0,8.8,0,13.1,0c0.7,0,1.4,0,1.2-1c-0.5-3.5-1.6-6.7-4.5-9.1
				c-2.8-2.3-6.2-3.3-9.8-3.3c-2.5,0-4.9,0.3-7.2,1.5c-3.9,2.2-5.8,5.8-6.9,9.9c-0.5,1.9-0.4,1.9,1.6,1.9
				C161.2,130.7,165.3,130.7,169.4,130.7z"/>
			<path class="st0" d="M169.4,85.7c5.6,0,11.2,0,16.8,0c1.6,0,1.6,0,1.7,1.7c0,1.7,0,3.5,0,5.2c0,2.5,0,2.5-2.4,2.5
				c-4.7,0-9.5,0-14.2,0c-6.2,0-12.4,0-18.6,0c-1.6,0-1.7,0-1.7-1.7c0-2,0-4.1,0-6.1c0-1.6,0-1.6,1.7-1.6
				C158.3,85.7,163.9,85.7,169.4,85.7z"/>
		</g>
	</g>
</g>
</svg>
