<svg xmlns="http://www.w3.org/2000/svg" viewBox="0 0 256.25 256.45"><defs><style>.cls-1{fill:#ff6200;}</style></defs><title>email</title><g id="Layer_2" data-name="Layer 2"><g id="Layer_1-2" data-name="Layer 1"><g id="AawTRv.tif"><path class="cls-1" d="M142,256.45H114c-1.13-.25-2.25-.56-3.39-.74q-64.36-10.4-96-67.39C6.62,174,2.64,158.45,0,142.45v-28c.32-1.63.69-3.25.94-4.89C11.75,40,76.11-7.59,144.78,1,203.93,8.4,254.4,61.55,256.17,121.14c1.62,54.37-22.27,94.8-69.57,121.39C172.79,250.29,157.53,253.92,142,256.45Zm96.94-128.16a110.94,110.94,0,1,0-110.79,111.1A110.68,110.68,0,0,0,238.94,128.29Z"/><g id="TdgsAC.tif"><path class="cls-1" d="M65.42,75.06H191.57c-.35.35-.68.72-1.05,1.05q-30.42,26.63-60.83,53.27a1.48,1.48,0,0,1-2.38,0q-25.79-22.63-51.63-45.21C72.23,81.16,68.7,78.25,65.42,75.06Z"/><path class="cls-1" d="M128.38,179.57H61.11c-2.32,0-2.32,0-2.32-2.25q0-47.3,0-94.59c0-.55-.31-1.34.29-1.6s.9.48,1.29.82L127,140.2c1.52,1.33,1.51,1.33,3,0L196.55,82c.2-.18.4-.37.62-.53s.47-.52.82-.33.2.48.21.74,0,.72,0,1.09q0,47.09,0,94.19c0,.41,0,.82,0,1.22.06.85-.29,1.27-1.18,1.22-.5,0-1,0-1.49,0Z"/></g></g></g></g></svg>