<svg xmlns="http://www.w3.org/2000/svg" viewBox="0 0 256.55 256.56"><defs><style>.cls-1{fill:#ff6200;}</style></defs><title>github</title><g id="Layer_2" data-name="Layer 2"><g id="Layer_1-2" data-name="Layer 1"><g id="xi39uU.tif"><path class="cls-1" d="M256.55,113v30c-.26,1.3-.57,2.59-.79,3.9-11.67,71.18-76,118.67-146.62,108.21-52.77-7.81-96.31-49.36-106.68-101.8a128.93,128.93,0,0,1,60-135.56C78.27,8.26,95.47,2.93,113.55,0h30a24.08,24.08,0,0,0,2.4.62q62.31,9.7,94.35,64C249.14,79.6,253.69,96,256.55,113Zm-99.76,97.49c0,5.81-.06,10.81,0,15.81.1,6.76,2.75,8.6,9.23,6.54,1.27-.4,2.52-.86,3.76-1.36a112,112,0,0,0,69.27-117.79C231.16,52,174,8.49,112.56,17.5a111.63,111.63,0,0,0-50,200.25,103.35,103.35,0,0,0,28.13,15c6.71,2.28,9.5.32,9.62-6.61.06-3.33-.18-6.68.06-10,.33-4.49-1.23-5.6-5.8-5.1-18,2-29.22-6.26-33.57-19-2-5.76-6.2-10.17-11.34-13.62-1.84-1.24-4.56-2.72-3.1-5.45,1.21-2.26,4-2,6.34-1.64,7.08,1.18,12,5.39,15.82,11.2,2.58,4,5.44,7.57,9.78,9.76,6,3,12.16,2.63,18.48.91,4.86-1.32,4.27-5.86,6-9a16.07,16.07,0,0,1,1.38-2.65c2.72-3.31,1.14-4.46-2.28-4.83a29.36,29.36,0,0,1-3-.49c-12.67-2.67-24.24-7.28-32.51-18C56,144.53,50.89,113,65.07,95.2a7.81,7.81,0,0,0,1.51-7.42c-1.76-7-.75-13.86,1-20.73,1.12-4.47,3.65-5.93,8.07-5A61.71,61.71,0,0,1,95.8,70.49a11.4,11.4,0,0,0,9.44,1.64,97.81,97.81,0,0,1,46.5,0,11.56,11.56,0,0,0,9.47-1.46,62.37,62.37,0,0,1,20.14-8.53c4.37-.92,7,.36,8.14,4.87,1.83,7,2.59,14.09.91,21.23-.53,2.25-.52,4.24.94,6.13,9.6,12.41,10.73,26.56,8.23,41.35-2.8,16.49-10.81,29.19-26.75,36a77.3,77.3,0,0,1-18.23,5.1c-3,.48-4.34,1.16-2.06,4.28,2,2.7,2.74,6,3.41,9.31C157.36,197.31,156.47,204.33,156.78,210.49Z"/></g></g></g></svg>