<svg xmlns="http://www.w3.org/2000/svg" viewBox="0 0 256.25 256.45"><defs><style>.cls-1{fill:#ff6200;}</style></defs><title>linkedin</title><g id="Layer_2" data-name="Layer 2"><g id="Layer_1-2" data-name="Layer 1"><g id="AawTRv.tif"><path class="cls-1" d="M142,256.45H114c-1.13-.25-2.25-.56-3.39-.74q-64.36-10.4-96-67.39C6.62,174,2.64,158.45,0,142.45v-28c.32-1.63.69-3.25.94-4.89C11.75,40,76.11-7.59,144.78,1,203.93,8.4,254.4,61.55,256.17,121.14c1.62,54.37-22.27,94.8-69.57,121.39C172.79,250.29,157.53,253.92,142,256.45Zm96.94-128.16a110.94,110.94,0,1,0-110.79,111.1A110.68,110.68,0,0,0,238.94,128.29Z"/><path class="cls-1" d="M136,112.39c9.35-10.56,20.8-12,33.19-9.26,8.46,1.86,14.11,7.16,17.11,15.26a48.8,48.8,0,0,1,3,16.65c.12,14.66,0,29.32.15,44,.05,4.25-1.32,6.09-5.75,5.86-5.15-.28-10.33-.24-15.49,0-4.08.18-5.63-1.35-5.57-5.48.17-11.66.12-23.32,0-35a55.32,55.32,0,0,0-1-9.91c-1.17-6-4.26-8.68-10.13-9.28s-10.88,2-13.14,7a25.79,25.79,0,0,0-2,10.72q0,17.49,0,35c0,6.62-.25,6.83-6.64,6.87-4.33,0-8.69-.29-13,.08-5.07.44-6.74-1.6-6.69-6.53.17-18,.06-36,.06-54,0-4.66.17-9.34,0-14s1.27-6.84,6.27-6.43a93.19,93.19,0,0,0,13,0c4.35-.25,6.74,1.08,6.18,5.84A10.57,10.57,0,0,0,136,112.39Z"/><path class="cls-1" d="M95.38,144.64c0,11.49-.14,23,.08,34.46.08,4.36-1.46,6-5.81,5.77-5.15-.27-10.32-.15-15.48-.05-3.12.06-4.54-1.15-4.53-4.39q.08-36,0-71.93c0-3.17,1.28-4.52,4.46-4.46,5.49.1,11,.15,16.48,0,3.8-.12,4.87,1.68,4.84,5.16C95.31,121,95.38,132.82,95.38,144.64Z"/><path class="cls-1" d="M67.67,79A14.83,14.83,0,1,1,82.59,93.79,14.59,14.59,0,0,1,67.67,79Z"/></g></g></g></svg>