<svg xmlns="http://www.w3.org/2000/svg" viewBox="0 0 256.25 256.45"><defs><style>.cls-1{fill:#ff6200;}</style></defs><title>phone</title><g id="Layer_2" data-name="Layer 2"><g id="Layer_1-2" data-name="Layer 1"><g id="AawTRv.tif"><path class="cls-1" d="M142,256.45H114c-1.13-.25-2.25-.56-3.39-.74q-64.36-10.4-96-67.39C6.62,174,2.64,158.45,0,142.45v-28c.32-1.63.69-3.25.94-4.89C11.75,40,76.11-7.59,144.78,1,203.93,8.4,254.4,61.55,256.17,121.14c1.62,54.37-22.27,94.8-69.57,121.39C172.79,250.29,157.53,253.92,142,256.45Zm96.94-128.16a110.94,110.94,0,1,0-110.79,111.1A110.68,110.68,0,0,0,238.94,128.29Z"/><g id="gXlZHN.tif"><path class="cls-1" d="M201.43,180.16c-.52,3.22-2.45,5.55-4.82,7.61-2.08,1.79-4.14,3.6-6.14,5.49a42.1,42.1,0,0,1-8.35,6,46,46,0,0,1-14.18,5.12,52.24,52.24,0,0,1-6.52.76,46.6,46.6,0,0,1-5.89,0,56.12,56.12,0,0,1-11-1.86,72.23,72.23,0,0,1-15.05-6.07A101.13,101.13,0,0,1,116,188.44q-4.39-3.33-8.47-7c-2.67-2.4-5.28-4.87-7.78-7.44q-6.32-6.5-12.09-13.5a176.84,176.84,0,0,1-11.51-15.54A121,121,0,0,1,68,130.49a84.3,84.3,0,0,1-6-16.84,63.26,63.26,0,0,1-1.45-8.78,54.38,54.38,0,0,1-.26-6.61,49.71,49.71,0,0,1,4.55-19.78A45.86,45.86,0,0,1,75,64.42c1.25-1.18,2.65-2.19,4-3.3,1.75-1.48,3.43-3,5.19-4.49a12.21,12.21,0,0,1,5.56-2.77A9.2,9.2,0,0,1,96.05,55a22.9,22.9,0,0,1,6.61,6,117,117,0,0,1,6.71,10,68.61,68.61,0,0,1,4.44,7.72,26.28,26.28,0,0,1,2.6,8.43,13.86,13.86,0,0,1-2.92,10.36,32.42,32.42,0,0,1-4.48,4.33c-1.34,1.17-2.63,2.42-4.08,3.47-1.28.94-2.65,1.76-3.86,2.8a10.87,10.87,0,0,0-4,8.36A21.08,21.08,0,0,0,99,125.11a56.07,56.07,0,0,0,5.81,10.18,131.88,131.88,0,0,0,9.61,12c2.36,2.67,4.81,5.25,7.4,7.69a58.31,58.31,0,0,0,9.9,7.78,22.84,22.84,0,0,0,7.07,2.95A11.05,11.05,0,0,0,148.9,163a33,33,0,0,0,2.61-2.69,39,39,0,0,1,3.73-3.43c1.41-1.22,2.76-2.51,4.28-3.61a14.21,14.21,0,0,1,7.78-2.88,16.62,16.62,0,0,1,7.33,1.44,38.87,38.87,0,0,1,9.77,6.26q4.11,3.44,8.13,7a35.1,35.1,0,0,1,7.07,8,13.74,13.74,0,0,1,1.84,4.94Z"/></g></g></g></g></svg>