<svg xmlns="http://www.w3.org/2000/svg" viewBox="0 0 256.25 256.45">
  <defs>
    <style>
      .cls-1 {
        fill: #ff6200;
      }

      .cls-2 {
        fill: #f60;
      }
    </style>
  </defs>
  <title>resume</title>
  <g id="Layer_2" data-name="Layer 2">
    <g id="Layer_1-2" data-name="Layer 1">
      <g id="Layer_2-2" data-name="Layer 2">
        <g id="Layer_1-2-2" data-name="Layer 1-2">
          <g id="AawTRv.tif">
            <path class="cls-1" d="M142,256.45H114c-1.13-.25-2.25-.56-3.39-.74q-64.36-10.4-96-67.39C6.62,174,2.64,158.45,0,142.45v-28c.32-1.63.69-3.25.94-4.89C11.75,40,76.11-7.59,144.78,1,203.93,8.4,254.4,61.55,256.17,121.14c1.62,54.37-22.27,94.8-69.57,121.39C172.79,250.29,157.53,253.92,142,256.45Zm96.94-128.16a110.84,110.84,0,1,0,0,.53v-.53Z"/>
          </g>
        </g>
      </g>
      <g id="d5RGus.tif">
        <g>
          <path class="cls-2" d="M65.81,186.79V67.92a2.29,2.29,0,0,0,.07-.36A23.06,23.06,0,0,1,67,62.25,25.6,25.6,0,0,1,85.58,45.33c1.19-.27,2.4-.42,3.61-.57h54.2a17.82,17.82,0,0,1,7.62,3.4,71.45,71.45,0,0,1,8.22,7.13c2.31,2.23,4.55,4.54,6.8,6.84,1.57,1.6,3.26,3.11,4.87,4.68,2.14,2.11,4.26,4.24,6.4,6.35,2.81,2.77,5.6,5.55,8.24,8.5a42.54,42.54,0,0,1,5.17,6.77,13.78,13.78,0,0,1,2.19,7v89.67a21,21,0,0,1-.37,3.79,25.12,25.12,0,0,1-8.42,14.82A24.46,24.46,0,0,1,167.69,210Q129.34,210,91,210a22.67,22.67,0,0,1-3.29-.25,25.1,25.1,0,0,1-11.51-4.7,25.46,25.46,0,0,1-9-12A28,28,0,0,1,65.81,186.79ZM78.54,127.3v56.35c0,.64,0,1.28.07,1.93a12.27,12.27,0,0,0,3.6,7.83,12.42,12.42,0,0,0,9.19,3.74h75.84a14,14,0,0,0,1.94-.09,12.42,12.42,0,0,0,8.06-4.54,12.56,12.56,0,0,0,2.83-8.29q0-41,0-81.92c0-.37,0-.74,0-1.1a5.33,5.33,0,0,0-.48-2,5.66,5.66,0,0,0-4-3,21.57,21.57,0,0,0-5.6-.61c-7.17,0-14.33,0-21.49,0a6.4,6.4,0,0,1-6.51-6.5q0-9.5,0-19a56.9,56.9,0,0,0-.22-6.12,9.83,9.83,0,0,0-1.18-4.14,4.23,4.23,0,0,0-3.71-2.34H91.54a13.68,13.68,0,0,0-2.71.19A12.67,12.67,0,0,0,78.54,70.39Z"/>
          <path class="cls-2" d="M129,108.24h32.13a6.4,6.4,0,0,1,.69,12.77c-.68,0-1.36.07-2,.07q-30.78,0-61.58,0a10.1,10.1,0,0,1-3.05-.29A6.43,6.43,0,0,1,96,108.27a6.56,6.56,0,0,1,.89,0Z"/>
          <path class="cls-2" d="M129,159.08c10.7,0,21.39,0,32.08,0a6.39,6.39,0,0,1,6.48,6.31,6.29,6.29,0,0,1-6.24,6.47h-63a11.61,11.61,0,0,1-2.76-.11,6.43,6.43,0,0,1,1.32-12.69C107.57,159.11,118.3,159.08,129,159.08Z"/>
          <path class="cls-2" d="M122.61,146.47H97a6.43,6.43,0,0,1-.08-12.85h51.26a6.43,6.43,0,0,1,1.38,12.75,9.7,9.7,0,0,1-1.52.1Z"/>
        </g>
      </g>
    </g>
  </g>
</svg>
