<svg xmlns="http://www.w3.org/2000/svg" xmlns:xlink="http://www.w3.org/1999/xlink" viewBox="0 0 725.02 266.32"><defs><style>.cls-1{fill:#918982;}.cls-2{fill:#2b4382;}.cls-3{fill:url(#linear-gradient);}.cls-4{fill:url(#linear-gradient-2);}.cls-5{fill:#fff;}.cls-6{fill:#534b4a;}</style><linearGradient id="linear-gradient" x1="67.18" y1="96.83" x2="67.18" y2="46.23" gradientTransform="translate(8.06 10.85)" gradientUnits="userSpaceOnUse"><stop offset="0" stop-color="#212121"/><stop offset="1"/></linearGradient><linearGradient id="linear-gradient-2" x1="111.48" y1="96.83" x2="111.48" y2="60.83" gradientTransform="translate(8.6 5.78)" xlink:href="#linear-gradient"/></defs><title>botsauna</title><g id="Layer_2" data-name="Layer 2"><g id="Layer_1-2" data-name="Layer 1"><circle class="cls-1" cx="147.9" cy="221.36" r="18.75"/><path d="M147.9,242.32a21,21,0,1,1,21-21A21,21,0,0,1,147.9,242.32Zm0-37.49a16.53,16.53,0,1,0,16.53,16.53A16.54,16.54,0,0,0,147.9,204.83Z"/><ellipse class="cls-1" cx="94.6" cy="184.5" rx="53.3" ry="79.6"/><path d="M94.6,266.32c-30.61,0-55.52-36.7-55.52-81.82S64,102.68,94.6,102.68s55.52,36.7,55.52,81.82S125.21,266.32,94.6,266.32Zm0-159.2c-28.17,0-51.08,34.71-51.08,77.38s22.92,77.38,51.08,77.38,51.08-34.71,51.08-77.38S122.77,107.12,94.6,107.12Z"/><path class="cls-2" d="M163.6,162.79c-9.8,97.41-14.74,11.7-27.4,19.8s10-78.13-44.91-77.31c-18.6.28-10.11,125.8-35.5,134.51-15,5.14-32.8-55.71-32.8-77,0-40.87,31.48-74,70.31-74S167.69,122.12,163.6,162.79Z"/><path d="M54,242.32a9.82,9.82,0,0,1-5.75-2.05C34,230.14,20.77,180.87,20.77,162.79c0-42,32.53-76.23,72.53-76.23,20.44,0,41,9.25,55,24.74,13.17,14.56,19.38,32.92,17.49,51.71-4.48,44.55-7.63,48.45-11.27,48.92-3.89.49-5.89-4.93-8.93-13.14-1.89-5.11-5.06-13.67-7.51-14.49-.12,0-.29-.1-.7.17a4.23,4.23,0,0,1-4.42.48c-3.27-1.69-3.55-7.6-4.06-18.32-.53-11.21-1.26-26.57-6.32-38.71-5.82-14-16.06-20.66-31.27-20.41-1.21,0-4.32,1.59-7.21,15.72C82,133.69,80.52,147.87,79,162.89c-3.72,36.33-7.56,73.89-22.47,79A7.75,7.75,0,0,1,54,242.32ZM93.29,91c-37.54,0-68.09,32.2-68.09,71.79,0,19.32,13.56,65.27,25.6,73.86,2.37,1.69,3.79,1.2,4.26,1,12.23-4.2,16.26-43.6,19.5-75.26,3.52-34.37,6.06-59.21,16.69-59.37h.81c16.57,0,28.22,7.78,34.62,23.14,5.36,12.86,6.11,28.67,6.66,40.21.27,5.63.6,12.55,1.57,14.36l.09-.05a5.11,5.11,0,0,1,4.5-.63c4.46,1.5,7.28,9.1,10.26,17.16,1.24,3.36,3,8.23,4.28,9.88,1.45-2.29,4-11.5,7.35-44.56l2.21.22-2.21-.22c1.76-17.52-4-34.67-16.37-48.29C131.84,99.71,112.5,91,93.29,91Z"/><rect class="cls-1" x="42.6" y="46.29" width="104.01" height="74.61" transform="translate(-8.86 11.25) rotate(-6.5)"/><path d="M45.2,129l-9-78.54L144,38.18l9,78.54Zm-4-74.63,7.95,69.72L148,112.81l-7.95-69.72Z"/><circle class="cls-3" cx="75.24" cy="82.38" r="25.3" transform="translate(-8.85 9.05) rotate(-6.5)"/><path d="M75.18,109.9a27.58,27.58,0,1,1,3.17-.18A28.1,28.1,0,0,1,75.18,109.9Zm.1-50.61A23.11,23.11,0,0,0,52.3,85a23.08,23.08,0,1,0,23-25.7Z"/><circle class="cls-4" cx="120.08" cy="84.61" r="18" transform="translate(-8.81 14.15) rotate(-6.5)"/><path d="M120,104.83a20.27,20.27,0,1,1,2.33-.13A20.67,20.67,0,0,1,120,104.83Zm.07-36a16.06,16.06,0,0,0-1.82.1,15.72,15.72,0,1,0,1.82-.1Z"/><circle class="cls-5" cx="67.06" cy="72.29" r="3.19" transform="translate(-31.26 79.83) rotate(-51.54)"/><circle class="cls-5" cx="63.26" cy="68.1" r="2.27" transform="translate(-29.41 75.27) rotate(-51.54)"/><circle class="cls-5" cx="112.82" cy="75.5" r="2.16" transform="translate(-16.47 116.88) rotate(-51.54)"/><circle class="cls-1" cx="80.19" cy="6.62" r="4.4" transform="translate(-0.23 9.13) rotate(-6.5)"/><path d="M80.18,13.24a6.63,6.63,0,1,1,.75,0A6.63,6.63,0,0,1,80.18,13.24Zm0-8.8h-.25a2.18,2.18,0,1,0,.25,0Z"/><rect x="80.53" y="10.88" width="4.44" height="36.4" transform="translate(-2.76 9.56) rotate(-6.5)"/><circle class="cls-1" cx="20.96" cy="141.5" r="18.75"/><path d="M21,162.47a21,21,0,1,1,21-21A21,21,0,0,1,21,162.47ZM21,125A16.53,16.53,0,1,0,37.49,141.5,16.54,16.54,0,0,0,21,125Z"/><path class="cls-2" d="M273.16,128.19q0,7.86-2.41,10.66t-10.39,4.34q8.49,0,11.82,3.64t3.33,12.68q0,11-5.22,15.45t-17.09,4.46H196.4V111.16h57.72q9.21,0,14.12,4T273.16,128.19Zm-8.6.72q0-6.42-2.87-8.61t-9.62-2.19H204.69v22.21h46.16q7.37,0,10.54-2.34T264.56,128.92Zm2.35,31.83a31.71,31.71,0,0,0-.67-7.24,6.79,6.79,0,0,0-3.12-4.26,17.29,17.29,0,0,0-5-1.64l-5.63-.41h-47.8v25.38h46.88q7.88,0,11.62-2.47T266.92,160.75Z"/><path class="cls-2" d="M309.59,130.7q12.28,0,18.42,1.23a15.78,15.78,0,0,1,9.88,6.24q3.74,5,3.74,16.27,0,17-6.5,21.34t-25.64,4.35q-17.09,0-24.05-4.2t-7-20.1q0-11.38,3.22-17.28A12.94,12.94,0,0,1,292,131.73l5.12-.67a40.92,40.92,0,0,1,5-.36Zm0,43.19a103.67,103.67,0,0,0,11.57-.51,25.07,25.07,0,0,0,7.37-1.86q5.53-2.38,5.53-13.93,0-9.08-1.89-14a8.91,8.91,0,0,0-7.32-5.83l-8.6-.83h-9.72q-11.77,0-16.07,3.13t-4.3,15.24q0,11.39,4.4,15t16.27,3.59Z"/><path class="cls-2" d="M389,137.46H355.75v23.13q0,7.88,2.76,10.64,2.86,2.56,10.85,2.56,7.47,0,10.9-1.84t3.43-8.29v-5.42h6.55q0,13.31-3.17,17.6t-16.89,4.3q-11.16,0-16.37-2.92T348.59,164V137.46H336.92v-6.14h11.67V120.47h7.16v10.85H389Z"/><path class="cls-6" d="M459.12,120a39.38,39.38,0,0,0-7.78-1.65q-2.76-.31-6.35-.52t-8.19-.21h-2.87q-2.25,0-6.86.36t-7.16.36q-7.37.62-10.49,2a7.23,7.23,0,0,0-4.09,3.92,16.84,16.84,0,0,0-1,6q0,6.09,3.38,8.57,3.58,2.27,10,2.27h31q2.86,0,4.3.1t5.53.72a17,17,0,0,1,10.64,4.61q4.09,4,4.09,13.51a24.66,24.66,0,0,1-1.89,10.34,13.13,13.13,0,0,1-6.7,6.35,38.72,38.72,0,0,1-11,2.56,138,138,0,0,1-14.58.72h-17q-2.36,0-4.66-.21t-8.6-1a14.08,14.08,0,0,1-9.72-5.22q-3.43-4.39-3.43-15.45h8.29v1.43a24,24,0,0,0,.92,7.68q.92,2.56,5,3.79,2.35.61,5,1.07a34,34,0,0,0,5.88.46l13.31.31a144.76,144.76,0,0,0,17.86-.93q7.32-.93,10-3.46t2.71-8.52q0-7.43-3.47-9.44t-11.55-2H434.09L415.8,148q-9.4,0-14.72-3.68t-5.31-12.49a26.48,26.48,0,0,1,2.2-11.51,13.56,13.56,0,0,1,7.62-6.7,56.72,56.72,0,0,1,6.13-1.79,28.54,28.54,0,0,1,6.54-.77q7.26-.61,16.25-.61h10.73a84.43,84.43,0,0,1,10.83,1.13,15.1,15.1,0,0,1,6.49,1.28,16.5,16.5,0,0,1,5.06,3.84q4,4.3,4,13.41h-8.29q0-4.74-1-6.86A7.12,7.12,0,0,0,459.12,120Z"/><path class="cls-6" d="M527.49,173.69a12.92,12.92,0,0,1-4.5,4.5,15.67,15.67,0,0,1-3,1.07,14,14,0,0,1-3.58.46l-13.2.41H497q-12.69,0-16.84-3.7T476,165.76q0-7.7,2.81-10.89a12.18,12.18,0,0,1,8-3.8l9.21-.62h7.47l13.51.41a13.48,13.48,0,0,1,5.94,1.07,13.8,13.8,0,0,1,4.5,4.25v-5.12a33.75,33.75,0,0,0-.67-7.32,7.11,7.11,0,0,0-3.22-4.55,13,13,0,0,0-3.48-1.38,19.49,19.49,0,0,0-4.91-.56l-8.7-.31h-6.75q-1.64,0-3.43.1t-4.61.47a6,6,0,0,0-4.3,2.38,9.77,9.77,0,0,0-1.48,5.85h-7.78q0-7.78,3.33-10.8a14,14,0,0,1,8.39-3.48q5.07-.46,8.09-.67t5.88-.21l11.57.31a37,37,0,0,1,9.93,1.64,10.47,10.47,0,0,1,7.22,5.68,25.89,25.89,0,0,1,2.1,11.21v30h-7.16Zm-24.15-.2H514.6a20.52,20.52,0,0,0,3.07-.2q1.33-.2,5.58-1.37t4.25-6.87q0-4.78-2.87-6.1a23.36,23.36,0,0,0-6.75-1.83L510,156.7h-6.34q-7.37,0-10.29.31a22.48,22.48,0,0,0-5.42,1.23,5.54,5.54,0,0,0-3.38,2.87,11.21,11.21,0,0,0-.87,4.61,7.47,7.47,0,0,0,2.2,5.68q2.2,2.1,9.06,2.1Z"/><path class="cls-6" d="M591.46,170.11a14.22,14.22,0,0,1-6.65,7.37q-4.81,2.66-15.35,2.66-17.5,0-23-4.81T540.9,161.1V131.32h7.16v26.3q0,10.34,4.4,13.41,4.5,2.76,15.76,2.76,11.67,0,17.45-2.76t5.78-13.41v-26.3h7.16v48.1h-7.16Z"/><path class="cls-6" d="M611.83,141.25q2.25-6.86,7.83-8.75t14.79-1.89h.92a74.55,74.55,0,0,1,12.59.82,17.55,17.55,0,0,1,8.7,3.68,11.86,11.86,0,0,1,4.66,6.55,35.65,35.65,0,0,1,1,8.8v29h-7.16V151.17q0-8.9-4.81-11.57t-14.94-2.66q-11.67,0-17.6,2.56t-5.94,12.79v27.12h-7.17v-48.1h7.17Z"/><path class="cls-6" d="M717.86,173.69a12.92,12.92,0,0,1-4.5,4.5,15.67,15.67,0,0,1-3,1.07,14,14,0,0,1-3.58.46l-13.2.41h-6.24q-12.69,0-16.84-3.7t-4.15-10.68q0-7.7,2.81-10.89a12.18,12.18,0,0,1,8-3.8l9.21-.62h7.47l13.51.41a13.48,13.48,0,0,1,5.94,1.07,13.8,13.8,0,0,1,4.5,4.25v-5.12a33.75,33.75,0,0,0-.67-7.32A7.11,7.11,0,0,0,714,139.2a13,13,0,0,0-3.48-1.38,19.49,19.49,0,0,0-4.91-.56l-8.7-.31h-6.75q-1.64,0-3.43.1t-4.61.47a6,6,0,0,0-4.3,2.38,9.77,9.77,0,0,0-1.48,5.85h-7.78q0-7.78,3.33-10.8a14,14,0,0,1,8.39-3.48q5.07-.46,8.09-.67t5.88-.21l11.57.31a37,37,0,0,1,9.93,1.64,10.47,10.47,0,0,1,7.22,5.68,25.89,25.89,0,0,1,2.1,11.21v30h-7.16Zm-24.15-.2H705a20.52,20.52,0,0,0,3.07-.2q1.33-.2,5.58-1.37t4.25-6.87q0-4.78-2.87-6.1a23.36,23.36,0,0,0-6.75-1.83l-7.88-.41H694q-7.37,0-10.29.31a22.48,22.48,0,0,0-5.42,1.23,5.54,5.54,0,0,0-3.38,2.87,11.21,11.21,0,0,0-.87,4.61,7.47,7.47,0,0,0,2.2,5.68q2.2,2.1,9.06,2.1Z"/></g></g></svg>