<svg xmlns="http://www.w3.org/2000/svg" viewBox="0 0 1147.4 439.5">
  <defs>
    <style>
      .cls-1 {
        fill: #fff;
      }
    </style>
  </defs>
  <title>carfling-wt</title>
  <g id="Layer_2" data-name="Layer 2">
    <g id="Alt_white" data-name="Alt white">
      <g>
        <g>
          <path class="cls-1" d="M180.62,278.46c-17.57-15.76-21.91-36.41-21.91-53.61,0-12.13,4.16-33.32,20.28-49.44C189.86,164.54,206.34,156,234.23,156a155.27,155.27,0,0,1,26.26,2.17A156.45,156.45,0,0,0,279,160.92c2,.18,2.36.9,2.36,2,0,1.45-.55,3.62-.91,10.14-.36,6-.36,15.94-.54,18.66s-.55,3.8-1.63,3.8c-1.27,0-1.45-1.27-1.45-3.8,0-7.07-2.9-14.49-7.61-18.48-6.34-5.43-20.28-10.32-36.22-10.32-24.09,0-35.32,7.06-41.65,13.22-13.23,12.68-16.3,28.8-16.3,47.27,0,34.59,26.62,66.29,65.38,66.29,13.58,0,24.26-1.63,31.51-9.06,3.8-4,6.16-11.95,6.7-15.21.36-2,.72-2.72,1.81-2.72.91,0,1.27,1.27,1.27,2.72,0,1.27-2.18,17-4,23.18-1.08,3.44-1.45,3.8-4.71,5.25-7.24,2.9-21,4.17-32.59,4.17C213.22,298,194.93,291.32,180.62,278.46Z"/>
          <g>
            <path class="cls-1" d="M341.05,170.13c2-5.07,2.68-6,3.75-6,1.6,0,2.14,2.18,3.75,5.62,2.85,6.52,28,70.09,37.65,93.45,5.71,13.76,10,15.75,13.38,16.84a21.71,21.71,0,0,0,6.25.91c.89,0,2,.36,2,1.26s-1.78,1.27-3.57,1.27c-2.32,0-13.92,0-24.8-.36-3-.18-5.53-.18-5.53-1.09,0-.72.35-.72,1.07-1.08.89-.37,2.49-1.63,1.42-4.17l-14.09-35.31c-.36-.73-.54-.91-1.43-.91H324.63a1.65,1.65,0,0,0-1.6,1.27l-8.93,24.63a32.39,32.39,0,0,0-2.32,10.32c0,3.08,2.68,4.17,5.36,4.17h1.43c1.24,0,1.6.54,1.6,1.26,0,.91-.89,1.27-2.32,1.27-3.75,0-12.31-.54-14.1-.54-1.6,0-9.45.54-15.88.54-2,0-3-.36-3-1.27a1.38,1.38,0,0,1,1.43-1.26,43.73,43.73,0,0,0,4.64-.37c7.13-.9,10.17-6.33,13.2-14.12Zm17.49,64.11c.71,0,.71-.36.53-1.09L343.55,191c-.89-2.36-1.79-2.36-2.68,0l-14.63,42.19c-.18.73,0,1.09.53,1.09Z"/>
            <path class="cls-1" d="M414.21,211.6c0-23.9,0-28.25-.35-33.14-.36-5.25-1.25-7.79-6.43-8.51a50,50,0,0,0-5.35-.36,1.53,1.53,0,0,1-1.25-1.27c0-.91.71-1.27,2.5-1.27,7.14,0,17.66.36,18.56.36,1.6,0,14.81-.36,19.63-.36,10,0,21.05.91,29.26,6.7,3.93,2.9,10.89,10.32,10.89,21,0,11.41-4.64,22.46-19.27,35.13,12.84,16.3,23.73,30.25,32.83,39.85,8.39,8.69,13.56,10.14,17.49,10.68a28.09,28.09,0,0,0,5.53.55,1.39,1.39,0,0,1,1.43,1.26c0,.91-.89,1.27-3.75,1.27h-9.81c-8.93,0-12.85-.9-16.78-3.08-6.78-3.62-12.49-11-21.41-22.64-6.61-8.33-13.56-18.29-17-22.45a2.37,2.37,0,0,0-2.14-.91l-20-.36c-.72,0-1.07.36-1.07,1.27V239c0,14.85,0,26.8.71,33.14.54,4.53,1.43,7.43,6.25,8.15a57.18,57.18,0,0,0,7,.73,1.11,1.11,0,0,1,1.24,1.26c0,.73-.71,1.27-2.49,1.27-8.57,0-18.56-.54-19.28-.54-.18,0-10.7.54-15.52.54-1.61,0-2.5-.36-2.5-1.27A1.22,1.22,0,0,1,404.4,281a22.32,22.32,0,0,0,4.82-.73c3-.72,3.39-3.62,4.1-8.15.89-6.34.89-18.47.89-33.32Zm13.57,13a2.25,2.25,0,0,0,1.07,2c2.32,1.27,10.35,2.36,17.31,2.36,3.74,0,8-.18,11.77-2.72,5.36-3.62,9.46-11.77,9.46-23.54,0-19.2-10.35-30.25-27.12-30.25a67.49,67.49,0,0,0-11.24.91,2,2,0,0,0-1.25,1.81Z"/>
            <path class="cls-1" d="M563.57,211.6c0-23.9,0-28.25-.35-33.14-.36-5.25-1.25-7.79-6.43-8.51a50,50,0,0,0-5.35-.36,1.53,1.53,0,0,1-1.25-1.27c0-.91.71-1.27,2.5-1.27,7.14,0,16.95.36,17.84.36,3,0,37.12.18,40.69,0,3-.18,5.71-.18,7.14-.72.89-.18,1.61-.91,2.14-.91.71,0,1.07.73,1.07,1.45,0,1.09-.71,2.9-1.25,7.25-.18,1.44-.35,8.33-.71,10.14-.18.72-.72,1.63-1.43,1.63s-1.25-.73-1.25-1.81a16.87,16.87,0,0,0-1.43-5.8c-.89-2-4.64-4.53-10.7-4.53l-25.7-.36c-.89,0-1.25.36-1.25,1.63v42c0,.9,0,1.45,1.07,1.45l21.42-.18c2.67,0,5,0,7.13-.19,3.75-.36,5.89-.9,7.32-2.71.71-.91,1.43-1.63,2-1.63.72,0,.9.54.9,1.27,0,.9-1.08,3.44-1.43,8.51-.36,3.08-.54,9.23-.54,10.32,0,1.45-.35,3.08-1.43,3.08-.89,0-1.07-.72-1.07-1.45a21.53,21.53,0,0,0-1.07-5.61c-.71-2.18-3.21-4.17-8-4.89-3.92-.55-22.48-.37-25.16-.37-.89,0-1.07.37-1.07,1.45v12.32c0,15.21,0,27.35.71,33.32.54,4.53,1.43,7.43,5.71,8.15a63.62,63.62,0,0,0,7.14.73,1.21,1.21,0,0,1,1.25,1.26c0,.73-.71,1.27-2.5,1.27-8.74,0-18.91-.54-19.63-.54-.89,0-10.7.54-15.52.54-1.61,0-2.5-.36-2.5-1.27a1.22,1.22,0,0,1,1.25-1.26,44.54,44.54,0,0,0,4.82-.73c3-.54,3.39-3.62,4.1-8.15.89-6.34.89-18.47.89-33.32Z"/>
            <path class="cls-1" d="M659,239.13c0,22.64.36,31.88,3.22,34.59,2.49,2.54,8.56,3.62,20.88,3.62,8.2,0,15.16-.18,18.91-4.7a19.12,19.12,0,0,0,3.75-8.7c.18-1.08.71-2,1.6-2,.72,0,1.08.72,1.08,2.35a98.79,98.79,0,0,1-2.33,15.4c-1.07,3.62-1.6,4.16-10,4.16-11.24,0-20-.18-27.3-.54-7.14-.18-12.49-.36-17.13-.36-.72,0-3.39,0-6.43.18-3.21.18-6.6.36-9.1.36-1.6,0-2.5-.36-2.5-1.27A1.22,1.22,0,0,1,635,281a22.32,22.32,0,0,0,4.82-.73c3-.72,3.39-3.62,4.11-8.15.89-6.34.89-18.47.89-33.32V211.6c0-23.9,0-28.25-.36-33.14-.36-5.25-1.25-7.79-6.42-8.51a50.2,50.2,0,0,0-5.36-.36,1.54,1.54,0,0,1-1.25-1.27c0-.91.72-1.27,2.5-1.27,7.14,0,17,.36,17.85.36.71,0,12.49-.36,17.31-.36,1.6,0,2.5.36,2.5,1.27,0,.54-.72,1.08-1.25,1.08-1.07,0-3.39.19-5.18.37-4.64.9-5.53,3.26-5.89,8.69-.18,4.89-.18,9.24-.18,33.14Z"/>
            <path class="cls-1" d="M740.24,238.77c0,14.85,0,27,.71,33.32.54,4.53,1.07,7.43,5.71,8.15a63.62,63.62,0,0,0,7.14.73,1.22,1.22,0,0,1,1.25,1.26c0,.73-.72,1.27-2.5,1.27-8.74,0-18.92-.54-19.63-.54-.89,0-10.71.54-15.52.54-1.61,0-2.5-.36-2.5-1.27a1.21,1.21,0,0,1,1.25-1.26,22.23,22.23,0,0,0,4.81-.73c3-.72,3.57-3.62,4.11-8.15.71-6.34.89-18.47.89-33.32V211.6c0-23.9,0-28.25-.36-33.14-.35-5.25-1.6-7.61-5-8.33a27.91,27.91,0,0,0-4.82-.54,1.35,1.35,0,0,1-1.25-1.27c0-.91.71-1.27,2.5-1.27,5.17,0,15,.36,15.88.36.71,0,10.89-.36,15.7-.36,1.79,0,2.5.36,2.5,1.27a1.53,1.53,0,0,1-1.25,1.27A17.3,17.3,0,0,0,746,170c-4.29.9-5.18,3.08-5.54,8.51-.17,4.89-.17,9.24-.17,33.14Z"/>
            <path class="cls-1" d="M784.14,262.49c.35,12.68,1.78,16.48,6.06,17.57a37.22,37.22,0,0,0,7.85.91,1.22,1.22,0,0,1,1.25,1.26c0,.91-1.07,1.27-2.85,1.27-8.92,0-15.17-.54-16.6-.54s-8,.54-15.17.54c-1.6,0-2.49-.18-2.49-1.27a1.22,1.22,0,0,1,1.25-1.26,24.62,24.62,0,0,0,6.42-.91c3.92-1.09,4.46-5.25,4.46-19.2v-88.2c0-6.15.89-7.78,2.14-7.78,1.79,0,4.46,3.08,6.07,4.71,2.5,2.53,25.34,27.16,49.61,52.52,15.52,16.3,32.3,34.59,37.12,39.66l-1.61-77.15c-.18-10-1.07-13.4-5.89-14.31a49.74,49.74,0,0,0-7.67-.72c-1.07,0-1.25-.91-1.25-1.45,0-.91,1.25-1.09,3-1.09,7.14,0,14.64.36,16.42.36s7-.36,13.38-.36c1.61,0,2.86.18,2.86,1.09a1.78,1.78,0,0,1-1.79,1.45A17.56,17.56,0,0,0,883,170c-5.18,1.08-5.53,4.16-5.53,13.4l-.36,90.19c0,10.14-.18,11-1.25,11-1.61,0-3.21-1.27-12-9.42-1.6-1.45-24.27-24.09-40.86-41.65-18.2-19.38-35.87-38.22-40.69-43.65Z"/>
          </g>
          <path class="cls-1" d="M999.72,249.3c0-14.67-.91-16.66-8.15-18.66a34.11,34.11,0,0,0-6.16-.54c-.72,0-1.45-.36-1.45-1.09,0-1.08.91-1.44,2.9-1.44,8.15,0,19.56.54,20.46.54s12.32-.54,17.75-.54c2,0,2.9.36,2.9,1.44,0,.73-.72,1.09-1.45,1.09a27.15,27.15,0,0,0-4.53.54c-4.89.91-6.34,4-6.7,10.33-.36,5.79-.36,11.23-.36,18.83v20.29c0,8.15-.18,8.51-2.35,9.78C1001,296,984.69,298,974.18,298c-13.76,0-39.48-1.82-59.58-19.38-11.05-9.6-21.55-29-21.55-51.62,0-29,14.12-49.44,30.24-59.58C939.59,157.3,957.52,156,971.46,156a154.49,154.49,0,0,1,27.71,3.08,90.92,90.92,0,0,0,14.67,1.81c1.81.18,2.18.9,2.18,1.63,0,2.53-1.27,7.6-1.27,25.72,0,2.89-.36,3.8-1.63,3.8-.91,0-1.09-1.09-1.27-2.72a27.78,27.78,0,0,0-3.8-11.95c-4.53-6.88-19.2-14.67-42.56-14.67-11.41,0-25,1.09-38.76,12-10.5,8.33-17.93,24.81-17.93,46,0,25.54,12.86,44,19.2,50.17a66,66,0,0,0,47.45,19.38c6.52,0,15.94-1.09,20.65-3.81a6.57,6.57,0,0,0,3.62-6.33Z"/>
        </g>
        <g>
          <path class="cls-1" d="M750,95.72c31.79,0,178.52,6.44,153.92-17C896.06,71.22,820.17,9.49,605.3.06c-52.43-2.3-122.57,65.17-172.36,92-8.1,4.36,26,8,44.83,7.11-17.21-.33-42.29-.25-36.39-5.13C470.26,70.12,562.61,6.4,598.51,4.89c161.78-6.83,289.3,62,273.71,76.5C863.79,89.26,795.27,95.69,750,95.72Z"/>
          <path class="cls-1" d="M536.38,97.42c0,.58,61.37,1,106.06,1s80.91-.46,80.91-1-36.23-1-80.91-1S536.38,96.85,536.38,97.42Z"/>
          <path class="cls-1" d="M956.1,102.56c-84.23-6-174.62,1.49-170.79,41.35,7.52-8.24,23.85-17.27,46.4-24.73,31.68-10.47,75.65-17.83,124.71-15.5,34.61,1.65,89.59,10.08,120.14,21C1046,112.46,977.46,104.08,956.1,102.56Z"/>
          <path class="cls-1" d="M1112,71.88c-44.11,1-35.29,1.79-66,3.77-15.8,1-22,20.73-44.54,14.56-25.42-7-137.48-53.35-250.86-77.3,107.85,23,238.24,82.16,254.38,86.37C1051.31,111.38,1090.13,98.35,1112,71.88Z"/>
          <path class="cls-1" d="M522.91,97.42c6-2.71,15-6.32,15-10.28,0-8.42-21.87-15.26-42.3-15.26-9.67,0-18.47,1.54-25.07,4A77.47,77.47,0,0,1,493,72.82c20.62,0,37.33,6.89,37.33,15.39C530.34,91.67,527.58,94.86,522.91,97.42Z"/>
          <path class="cls-1" d="M134.76,139.06c-50,12.35-90.87,24.59-103.85,50.73a88.94,88.94,0,0,0,.61,24.42c.57,3.59,4.84.11,5.62,3.69,3.32,15.31,0,30.61-7.23,31.85,7.69.16,36.25.44,41,.38C72.52,247.67,102,229,97.65,216.91c-1.46-4-60.5,1.59-61.23-2.43-1.42-7.87-1.57-15.25-.14-21.72,13.79-1.11,38.87-2,38.87-2s-21.5-1.32-31.33-2.2c-11.68-1,10.49-24.93,90.12-48.53-5.74,3.86-15.23,13.73-14.79,19.47.44,3.3,9.47.45,18-3.31,27-11.88,58.21-42.84,33.75-37.55a58.35,58.35,0,0,0-13.76,5h0A115.75,115.75,0,0,0,134.76,139.06Z"/>
          <path class="cls-1" d="M157.17,123.69l1.25-.68c-.43.23-.86.46-1.26.69Z"/>
          <path class="cls-1" d="M50.17,255H28.59c2.21,12.58,34.91,23.7,122.57,23.3C60.85,277.91,52.62,266.65,50.17,255Z"/>
          <path class="cls-1" d="M382.31,87.37c-65,4.38-114.7,6-188.21,22.22A161,161,0,0,0,158.42,123c17.58-9.37,41.44-10.26,15.65,14.34,5.71-4.55,12.07-13.55,17.62-18.85C222.29,98,347.31,87.12,407,91.53c4.77.35,99-66,144.13-82.21C497,28.74,392.5,86.68,382.31,87.37Z"/>
          <path class="cls-1" d="M1080.43,127.61c-107.08,9.58.78,29.53,31.94,28.37,17.79,21.6,2.25,54.88,1.75,60.46-.26,2.84.49,7.55,11.41,6.92-5.79-4.46-1-19.42-1.5-38.75C1124,164,1115.67,147.3,1080.43,127.61Z"/>
          <path class="cls-1" d="M1103.47,258.49c-.88,5.95-4.6,14.33-69.37,15.79,86,0,79.41-8.07,79.29-16.45-.11-4,3.44-13.23,12.14-20.29C1105.12,237.54,1103.53,258.49,1103.47,258.49Z"/>
        </g>
      </g>
      <g>
        <path class="cls-1" d="M4.13,347.87c0-7.4,0-8.72-.1-10.24s-.47-2.37-2-2.71a9.28,9.28,0,0,0-1.61-.14c-.19,0-.38-.09-.38-.28s.24-.38.76-.38c1.09,0,2.37,0,3.41,0l2,.1c.33,0,9.77,0,10.86-.05a12.32,12.32,0,0,0,2-.24c.24,0,.43-.23.67-.23s.19.19.19.42-.24.91-.38,2.23c-.05.48-.14,2.57-.24,3.14-.05.23-.14.52-.33.52s-.38-.24-.38-.62a5.07,5.07,0,0,0-.29-1.71c-.33-.76-.8-1.33-3.36-1.61-.81-.1-6-.14-6.5-.14-.19,0-.29.14-.29.47v13.09c0,.34.05.48.29.48.61,0,6.45,0,7.54-.1s1.8-.19,2.23-.66.52-.62.71-.62.24.1.24.38-.24,1.09-.38,2.66c-.1.95-.19,2.7-.19,3s0,.9-.33.9-.34-.19-.34-.43a4.89,4.89,0,0,0-.19-1.57c-.18-.66-.61-1.47-2.46-1.66-1.28-.14-6-.23-6.79-.23a.3.3,0,0,0-.33.33v4.17c0,1.62,0,7.12,0,8.12.14,3.27.86,3.89,5.51,3.89a13.38,13.38,0,0,0,4.55-.53c1.23-.52,1.8-1.47,2.13-3.41.1-.52.19-.71.43-.71s.29.38.29.71a45.85,45.85,0,0,1-.62,4.6c-.33,1.23-.71,1.23-2.56,1.23-3.56,0-6.17-.09-8-.14s-3-.14-3.7-.14c-.1,0-.9,0-1.9.05s-2,.09-2.75.09c-.52,0-.76-.09-.76-.38s.1-.28.38-.28a7.57,7.57,0,0,0,1.42-.19c1-.19,1.19-1.24,1.38-2.61.24-2,.24-5.74.24-10.3Z"/>
        <path class="cls-1" d="M77,354.37l-6.64-10.81c-1-1.57-1.76-2.71-3.18-3.13a8.71,8.71,0,0,0-1.76-.29.41.41,0,0,1-.38-.38c0-.19.19-.28.72-.28,1.18,0,4.55.09,4.88.09s2.66-.09,4.08-.09c.57,0,.71.09.71.28a.37.37,0,0,1-.38.38,4.63,4.63,0,0,0-1.14.1.57.57,0,0,0-.52.61,3.09,3.09,0,0,0,.43,1.33c1.76,3.18,3.32,6.07,5.5,9.54,1.24-1.76,5.65-8.54,6-9.4a2.57,2.57,0,0,0,.42-1.42c0-.28-.28-.52-.71-.66a5.14,5.14,0,0,0-1.14-.1.38.38,0,0,1-.38-.38c0-.19.19-.28.72-.28,1.56,0,3.32.09,3.7.09s2.08-.09,3.51-.09c.47,0,.66.09.66.28a.42.42,0,0,1-.43.38,5.73,5.73,0,0,0-1.42.19c-1.18.38-1.94,1.42-3.13,3.18l-6.69,9.77c.81,1.24,7.92,13,8.83,14a3.91,3.91,0,0,0,2.37,1.76,8.07,8.07,0,0,0,1.42.24.3.3,0,0,1,.33.33c0,.19-.19.33-.57.33-2.56,0-4.55,0-6.83-.09-1.09-.05-1.28-.15-1.28-.34a.37.37,0,0,1,.24-.33c.24-.05.61-.47.24-1.14-2.28-3.93-4.56-7.82-7.07-11.9l-6.41,10.57a3.94,3.94,0,0,0-.52,1.81c0,.38.29.57.67.66a4.31,4.31,0,0,0,.75.1.37.37,0,0,1,.38.38c0,.19-.23.28-.52.28-1,0-3.75-.14-4.13-.14s-2.42.14-3.79.14c-.33,0-.38-.14-.38-.28s.09-.38.33-.38a8.72,8.72,0,0,0,1.57-.24c1.23-.33,2.08-1.09,3.41-3.13Z"/>
        <path class="cls-1" d="M138.15,366.19a15.13,15.13,0,0,1-5.07-12,15.9,15.9,0,0,1,4.69-11c2.52-2.42,6.31-4.32,12.72-4.32a41.18,41.18,0,0,1,6.07.47,29.32,29.32,0,0,0,4.27.62c.43,0,.52.19.52.43s-.09.8-.19,2.27,0,3.56-.09,4.13-.24.85-.48.85-.33-.28-.33-.85a5.22,5.22,0,0,0-1.76-4c-1.47-1.24-4.5-2.23-8.2-2.23-5.36,0-7.93,1.42-9.4,2.8-3.08,2.84-3.74,6.45-3.74,10.53a14.65,14.65,0,0,0,15,14.61c3.14,0,5.22-.24,6.88-1.9a7.63,7.63,0,0,0,1.62-3.37c.09-.42.14-.56.42-.56s.38.28.38.56a43.44,43.44,0,0,1-1,5.18c-.24.75-.34.9-1.05,1.18a24.47,24.47,0,0,1-7.54.9C145.65,370.5,141.43,369,138.15,366.19Z"/>
        <path class="cls-1" d="M213.16,358.36c0,5.93.09,8.35.85,9.06s2.28.95,5.55.95c2.19,0,4-.05,5-1.24a4.91,4.91,0,0,0,1-2.27c0-.29.19-.52.43-.52s.28.19.28.61a24.72,24.72,0,0,1-.62,4c-.28.94-.42,1.09-2.65,1.09-3,0-5.32-.05-7.26-.15s-3.32-.09-4.56-.09c-.19,0-.9,0-1.7.05s-1.76.09-2.42.09c-.43,0-.67-.09-.67-.33a.32.32,0,0,1,.33-.33,6.38,6.38,0,0,0,1.29-.19c.8-.19.9-.95,1.09-2.14a84.92,84.92,0,0,0,.23-8.73v-7.11c0-6.26,0-7.4-.09-8.68s-.33-2-1.71-2.23a12.65,12.65,0,0,0-1.42-.1.4.4,0,0,1-.33-.33c0-.24.19-.33.66-.33,1.9,0,4.51.09,4.74.09s3.32-.09,4.61-.09c.42,0,.66.09.66.33s-.19.28-.33.28c-.29,0-.9.05-1.38.1-1.23.24-1.47.85-1.56,2.28-.05,1.28-.05,2.42-.05,8.68Z"/>
        <path class="cls-1" d="M270.33,351.15c0-6.26,0-7.4-.1-8.68s-.33-2-1.71-2.23a12.65,12.65,0,0,0-1.42-.1.4.4,0,0,1-.33-.33c0-.24.19-.33.66-.33,1.9,0,4.42.09,4.8.09s3-.09,4.22-.09c.47,0,.71.09.71.33a.41.41,0,0,1-.38.33,4.57,4.57,0,0,0-1,.1c-1.1.19-1.33.9-1.43,2.23s-.09,2.42-.09,8.68v5.64c0,5.84,1.28,8.26,3.08,9.87a8.13,8.13,0,0,0,6.22,2.18A8.6,8.6,0,0,0,290,366c1.94-2.33,2.37-5.65,2.37-9.78v-5.07c0-6.26,0-7.4-.1-8.68s-.28-2-1.66-2.23a12.65,12.65,0,0,0-1.42-.1.35.35,0,0,1-.33-.33c0-.24.19-.33.66-.33,1.85,0,4.27.09,4.51.09s2.28-.09,3.51-.09c.47,0,.66.09.66.33a.35.35,0,0,1-.33.33,4.62,4.62,0,0,0-1,.1c-1.14.23-1.38.9-1.47,2.23s-.05,2.42-.05,8.68v4.31c0,4.37-.57,9.26-3.89,12.1a12.63,12.63,0,0,1-8.73,2.94c-1.37,0-5.74-.09-8.68-2.84-2-1.9-3.65-4.7-3.65-10.58Z"/>
        <path class="cls-1" d="M341.63,369.41c-.57-.28-.61-.42-.61-1.52,0-2,.19-3.6.23-4.27,0-.42.1-.66.34-.66s.38.14.38.47a6.07,6.07,0,0,0,.14,1.47c.66,3,3.79,4,6.59,4,4.13,0,6.26-2.32,6.26-5.36,0-2.89-1.56-4.27-5.26-7l-1.9-1.43c-4.51-3.36-6-5.83-6-8.63,0-4.74,3.75-7.59,9.25-7.59a20.71,20.71,0,0,1,4.32.47,5.17,5.17,0,0,0,1.47.2c.33,0,.43,0,.43.28s-.19,1.52-.19,4.27c0,.62-.05.9-.33.9s-.33-.19-.38-.52a7.31,7.31,0,0,0-.62-2c-.28-.48-1.66-2-5.41-2-3,0-5.55,1.52-5.55,4.37,0,2.56,1.28,4,5.41,6.83l1.19.81c5.07,3.46,6.83,6.26,6.83,9.72a7.87,7.87,0,0,1-3.89,6.88c-1.76,1.14-4.37,1.42-6.64,1.42A15.3,15.3,0,0,1,341.63,369.41Z"/>
        <path class="cls-1" d="M410.81,358.26c0,3.89,0,7.07.19,8.73.14,1.19.28,1.95,1.51,2.14a18.34,18.34,0,0,0,1.9.19.32.32,0,0,1,.33.33c0,.19-.19.33-.66.33-2.33,0-5-.14-5.22-.14s-2.85.14-4.13.14c-.42,0-.66-.09-.66-.33a.32.32,0,0,1,.33-.33,6.29,6.29,0,0,0,1.28-.19c.81-.19.95-.95,1.09-2.14.19-1.66.24-4.84.24-8.73v-7.11c0-6.26,0-7.4-.09-8.68s-.43-2-1.33-2.19a8.05,8.05,0,0,0-1.28-.14.36.36,0,0,1-.34-.33c0-.24.19-.33.67-.33,1.37,0,4,.09,4.22.09s2.89-.09,4.18-.09c.47,0,.66.09.66.33a.4.4,0,0,1-.33.33,4.47,4.47,0,0,0-1.05.1c-1.13.23-1.37.8-1.47,2.23,0,1.28,0,2.42,0,8.68Z"/>
        <path class="cls-1" d="M472.58,364.72c2.41-5.41,7.87-19.17,8.77-22.06a7,7,0,0,0,.38-1.52.86.86,0,0,0-.57-.86,4.9,4.9,0,0,0-1.42-.14c-.24,0-.48-.14-.48-.33s.29-.33.95-.33c1.66,0,3.56.09,4.08.09.24,0,2-.09,3.28-.09.42,0,.66.09.66.28s-.14.38-.47.38a3.85,3.85,0,0,0-2,.48c-.57.38-1.23.94-2.32,3.7-.48,1.13-2.52,6-4.65,10.91-2.56,5.88-4.41,10.24-5.36,12.24-1.14,2.42-1.38,3-1.8,3s-.76-.52-1.57-2.46l-10.25-24.72c-.94-2.28-1.51-2.7-2.89-3a8.18,8.18,0,0,0-1.61-.14.36.36,0,0,1-.33-.38c0-.23.42-.28,1.09-.28,2,0,4.36.09,4.88.09s2.28-.09,3.89-.09c.76,0,1.14.09,1.14.28a.39.39,0,0,1-.43.38,5.16,5.16,0,0,0-1.51.19.67.67,0,0,0-.48.71,16.58,16.58,0,0,0,1.14,3.37Z"/>
        <path class="cls-1" d="M532.35,351.15c0-6.26,0-7.4-.09-8.68s-.33-2-1.71-2.23a12.65,12.65,0,0,0-1.42-.1.4.4,0,0,1-.33-.33c0-.24.19-.33.66-.33,1.9,0,4.6.09,4.84.09s9,.05,10,0a16.86,16.86,0,0,0,1.9-.24,3.13,3.13,0,0,1,.57-.18c.14,0,.19.18.19.38a18.36,18.36,0,0,0-.33,1.89c-.05.38-.15,2.18-.24,2.66-.05.19-.19.43-.38.43s-.33-.19-.33-.53a4.41,4.41,0,0,0-.24-1.42c-.29-.66-.71-.95-3-1.23-.71-.1-5.55-.14-6-.14-.19,0-.24.14-.24.42v11c0,.29,0,.43.24.43.52,0,6,0,7-.1s1.61-.14,2-.57c.28-.28.47-.52.62-.52s.23.1.23.33-.23.9-.33,2.23c-.09.81-.19,2.33-.19,2.61s-.09.76-.38.76-.28-.14-.28-.38a3.6,3.6,0,0,0-.19-1.33c-.14-.57-.52-1-2.14-1.23-1.14-.14-5.59-.19-6.31-.19-.23,0-.28.14-.28.29v3.36c0,1.38,0,6.08,0,6.88.09,2.71.85,3.23,5,3.23a13.77,13.77,0,0,0,4.17-.43,3.05,3.05,0,0,0,1.9-2.8c.1-.47.19-.61.43-.61s.28.33.28.61a32.58,32.58,0,0,1-.57,3.89c-.28,1.05-.71,1.05-2.32,1.05-3.13,0-5.55-.1-7.26-.15s-2.84-.09-3.46-.09c-.1,0-.9,0-1.8.05s-1.76.09-2.42.09c-.43,0-.67-.09-.67-.33a.32.32,0,0,1,.33-.33c.38,0,.91-.15,1.29-.19.8-.14.9-.95,1.09-2.14a84.92,84.92,0,0,0,.23-8.73Z"/>
        <path class="cls-1" d="M651.24,365.52c-4.6-4.13-5.74-9.53-5.74-14a19,19,0,0,1,5.32-13c2.84-2.85,7.16-5.08,14.47-5.08a40.47,40.47,0,0,1,6.88.57,40.62,40.62,0,0,0,4.83.71c.53,0,.62.24.62.53s-.14.94-.24,2.65-.09,4.18-.14,4.89-.14,1-.43,1-.37-.33-.37-1a6.55,6.55,0,0,0-2-4.84c-1.66-1.42-5.31-2.7-9.49-2.7-6.3,0-9.25,1.85-10.91,3.46-3.46,3.32-4.27,7.54-4.27,12.38a17.13,17.13,0,0,0,17.13,17.36c3.56,0,6.36-.42,8.25-2.37a9,9,0,0,0,1.76-4c.09-.53.19-.72.47-.72s.34.34.34.72a48.37,48.37,0,0,1-1.05,6.07c-.28.9-.38,1-1.23,1.37-1.9.76-5.5,1.1-8.54,1.1C659.78,370.65,655,368.89,651.24,365.52Z"/>
        <path class="cls-1" d="M732.32,340.28c.53-1.32.72-1.56,1-1.56s.57.57,1,1.47c.76,1.71,7.44,18.36,10,24.48,1.51,3.6,2.65,4.12,3.55,4.41a5.85,5.85,0,0,0,1.66.24c.24,0,.53.09.53.33s-.48.33-1,.33-3.7,0-6.6-.09c-.8-.05-1.47-.05-1.47-.29s.1-.19.29-.28a.77.77,0,0,0,.38-1.09L738,359c-.1-.2-.14-.24-.38-.24H728a.44.44,0,0,0-.43.33l-2.37,6.45a8.35,8.35,0,0,0-.62,2.71c0,.8.72,1.09,1.43,1.09h.38c.33,0,.42.14.42.33s-.23.33-.61.33c-1,0-3.28-.14-3.75-.14s-2.51.14-4.22.14c-.53,0-.81-.09-.81-.33a.37.37,0,0,1,.38-.33,11.08,11.08,0,0,0,1.23-.1c1.9-.23,2.71-1.66,3.51-3.7Zm4.65,16.8c.19,0,.19-.1.14-.29L733,345.74c-.24-.62-.48-.62-.71,0l-3.89,11.05c0,.19,0,.29.14.29Z"/>
        <path class="cls-1" d="M793.53,351.15c0-6.26,0-7.4-.1-8.68s-.33-2-1.71-2.23a12.65,12.65,0,0,0-1.42-.1.4.4,0,0,1-.33-.33c0-.24.19-.33.66-.33,1.9,0,4.7.09,4.93.09.43,0,3.94-.09,5.22-.09,2.66,0,5.6.23,7.78,1.75a7.07,7.07,0,0,1,2.9,5.51c0,3-1.24,5.88-5.13,9.2,3.42,4.27,6.31,7.92,8.73,10.44,2.23,2.27,3.61,2.65,4.65,2.79a7.35,7.35,0,0,0,1.47.15.37.37,0,0,1,.38.33c0,.24-.24.33-1,.33H818c-2.38,0-3.42-.24-4.46-.81-1.81-.94-3.32-2.89-5.69-5.93-1.76-2.18-3.61-4.79-4.51-5.88a.65.65,0,0,0-.57-.24l-5.31-.09c-.19,0-.29.09-.29.33v.95c0,3.89,0,7,.19,8.68.14,1.19.38,1.95,1.66,2.14a16.35,16.35,0,0,0,1.85.19.29.29,0,0,1,.33.33c0,.19-.19.33-.66.33-2.28,0-4.94-.14-5.12-.14s-2.85.14-4.13.14c-.43,0-.67-.09-.67-.33a.33.33,0,0,1,.34-.33,6.29,6.29,0,0,0,1.28-.19c.8-.19.9-.95,1.09-2.14a81.4,81.4,0,0,0,.24-8.73Zm3.6,3.41a.59.59,0,0,0,.29.52,13.87,13.87,0,0,0,4.6.62,5.47,5.47,0,0,0,3.13-.71c1.42-.95,2.51-3.08,2.51-6.17,0-5-2.75-7.92-7.21-7.92a17.64,17.64,0,0,0-3,.24.5.5,0,0,0-.33.47Z"/>
        <path class="cls-1" d="M918.16,365.52c-4.6-4.13-5.74-9.53-5.74-14a18.94,18.94,0,0,1,5.31-13c2.85-2.85,7.16-5.08,14.47-5.08a40.39,40.39,0,0,1,6.88.57,40.47,40.47,0,0,0,4.84.71c.52,0,.61.24.61.53s-.14.94-.23,2.65-.1,4.18-.15,4.89-.14,1-.42,1-.38-.33-.38-1a6.58,6.58,0,0,0-2-4.84c-1.67-1.42-5.32-2.7-9.49-2.7-6.31,0-9.25,1.85-10.91,3.46-3.47,3.32-4.27,7.54-4.27,12.38a17.13,17.13,0,0,0,17.12,17.36c3.56,0,6.36-.42,8.26-2.37a9,9,0,0,0,1.75-4c.1-.53.19-.72.48-.72s.33.34.33.72a49.85,49.85,0,0,1-1,6.07c-.29.9-.38,1-1.24,1.37-1.9.76-5.5,1.1-8.54,1.1C926.7,370.65,921.91,368.89,918.16,365.52Z"/>
        <path class="cls-1" d="M996.67,358.36c0,5.93.1,8.35.86,9.06s2.28.95,5.55.95c2.18,0,4-.05,5-1.24a4.9,4.9,0,0,0,1-2.27c0-.29.19-.52.43-.52s.28.19.28.61a25.62,25.62,0,0,1-.61,4c-.29.94-.43,1.09-2.66,1.09-3,0-5.31-.05-7.26-.15s-3.32-.09-4.55-.09c-.19,0-.9,0-1.71.05s-1.75.09-2.42.09c-.42,0-.66-.09-.66-.33a.32.32,0,0,1,.33-.33,6.29,6.29,0,0,0,1.28-.19c.81-.19.9-.95,1.09-2.14a81.4,81.4,0,0,0,.24-8.73v-7.11c0-6.26,0-7.4-.1-8.68s-.33-2-1.7-2.23a13,13,0,0,0-1.43-.1.4.4,0,0,1-.33-.33c0-.24.19-.33.66-.33,1.9,0,4.51.09,4.75.09s3.32-.09,4.6-.09c.43,0,.66.09.66.33a.34.34,0,0,1-.33.28c-.28,0-.9.05-1.37.1-1.24.24-1.47.85-1.57,2.28-.05,1.28-.05,2.42-.05,8.68Z"/>
        <path class="cls-1" d="M1053.84,351.15c0-6.26,0-7.4-.09-8.68s-.33-2-1.71-2.23a12.65,12.65,0,0,0-1.42-.1.4.4,0,0,1-.33-.33c0-.24.19-.33.66-.33,1.9,0,4.41.09,4.79.09s3-.09,4.22-.09c.48,0,.72.09.72.33a.41.41,0,0,1-.38.33,4.65,4.65,0,0,0-1,.1c-1.09.19-1.33.9-1.42,2.23s-.1,2.42-.1,8.68v5.64c0,5.84,1.29,8.26,3.09,9.87a8.12,8.12,0,0,0,6.21,2.18,8.58,8.58,0,0,0,6.45-2.84c2-2.33,2.38-5.65,2.38-9.78v-5.07c0-6.26,0-7.4-.1-8.68s-.28-2-1.66-2.23a12.65,12.65,0,0,0-1.42-.1.35.35,0,0,1-.33-.33c0-.24.18-.33.66-.33,1.85,0,4.27.09,4.51.09s2.27-.09,3.51-.09c.47,0,.66.09.66.33a.35.35,0,0,1-.33.33,4.69,4.69,0,0,0-1,.1c-1.13.23-1.37.9-1.47,2.23s0,2.42,0,8.68v4.31c0,4.37-.57,9.26-3.89,12.1a12.63,12.63,0,0,1-8.73,2.94c-1.38,0-5.74-.09-8.68-2.84-2-1.9-3.66-4.7-3.66-10.58Z"/>
        <path class="cls-1" d="M1128.66,351.15c0-6.26,0-7.4-.1-8.68s-.33-2.14-1.7-2.33a12.9,12.9,0,0,0-1.43-.09c-.14,0-.33-.1-.33-.24s.19-.33.67-.33c1.89,0,4.6.09,4.83.09,1,0,3-.09,4.89-.09,7,0,8.78,4,8.78,6.16,0,3.18-2.09,5.18-4.22,7.07,3.17,1,7.35,3.85,7.35,8.4s-3.37,9-10.49,9c-.75,0-2.27-.05-3.6-.15l-2.71-.09c-.09,0-.85.05-1.7.05s-1.85.09-2.52.09c-.42,0-.66-.09-.66-.33s.09-.24.33-.24a11.29,11.29,0,0,0,1.28-.19c.81-.14.9-1,1.09-2.23a81.4,81.4,0,0,0,.24-8.73Zm3.61.85c0,.29.09.38.28.43a12.73,12.73,0,0,0,2.56.19c2.33,0,3.23-.1,4.08-1.05a6.18,6.18,0,0,0,1.62-4.31c0-3.09-1.71-6.5-5.89-6.5a12.4,12.4,0,0,0-2.13.19c-.38.09-.52.19-.52.42Zm0,4.46c0,3.13,0,8,0,8.59.15,1.94.15,2.42,1.43,3a9.76,9.76,0,0,0,3.65.57c2.75,0,6.12-1,6.12-6.21a7.94,7.94,0,0,0-7.73-8.4c-.53-.09-2.61-.09-3.28-.09-.14,0-.23.09-.23.28Z"/>
      </g>
      <g>
        <path class="cls-1" d="M288,413.41c7.72,0,13.57,4.71,13.57,12.44a13.28,13.28,0,0,1-13.76,13.53c-9.4,0-13.42-7.06-13.42-13A13.12,13.12,0,0,1,288,413.41Zm.78,24.61c3.08,0,9.28-1.64,9.28-11.24,0-7.95-4.83-12.13-10.25-12.13-5.74,0-9.87,3.59-9.87,10.81C277.91,433.18,282.55,438,288.75,438Z"/>
        <path class="cls-1" d="M339.92,423.47c0-5.15,0-6.09-.08-7.14s-.27-1.68-1.4-1.83a10.93,10.93,0,0,0-1.17-.08.34.34,0,0,1-.28-.27c0-.2.16-.28.55-.28,1.56,0,3.7.08,3.9.08.66,0,8.11,0,8.89,0a7.66,7.66,0,0,0,1.56-.15c.2,0,.35-.2.47-.2s.23.16.23.31-.15.63-.27,1.56c0,.31-.08,1.8-.15,2.19,0,.15-.16.35-.32.35s-.27-.16-.27-.39a3.71,3.71,0,0,0-.31-1.25,2.59,2.59,0,0,0-2.34-1l-5.62-.08c-.19,0-.27.08-.27.35v9.05c0,.19,0,.31.23.31l4.68,0c.59,0,1.09,0,1.56,0,.82-.08,1.29-.19,1.6-.59.16-.19.31-.35.43-.35s.2.12.2.28a13.12,13.12,0,0,0-.32,1.83c-.07.66-.11,2-.11,2.22s-.08.67-.31.67-.24-.16-.24-.32a5,5,0,0,0-.23-1.2c-.16-.47-.7-.9-1.76-1.06-.86-.11-4.91-.08-5.5-.08-.19,0-.23.08-.23.32v2.65c0,3.27,0,5.89.15,7.17.12,1,.32,1.6,1.25,1.76a13.73,13.73,0,0,0,1.56.16.26.26,0,0,1,.28.27c0,.15-.16.27-.55.27-1.91,0-4.13-.12-4.29-.12s-2.34.12-3.39.12c-.35,0-.55-.08-.55-.27a.26.26,0,0,1,.27-.27,9.69,9.69,0,0,0,1.06-.16c.66-.12.74-.78.89-1.76a65.8,65.8,0,0,0,.2-7.17Z"/>
        <path class="cls-1" d="M437,435.29a15,15,0,0,1-4.72-11.55,15.61,15.61,0,0,1,4.37-10.65c2.34-2.34,5.89-4.17,11.89-4.17a33.59,33.59,0,0,1,5.66.47,32.69,32.69,0,0,0,4,.58c.43,0,.5.2.5.43s-.11.78-.19,2.19-.08,3.43-.12,4-.12.82-.35.82-.31-.27-.31-.82a5.39,5.39,0,0,0-1.64-4c-1.37-1.17-4.37-2.23-7.8-2.23-5.19,0-7.61,1.52-9,2.85-2.85,2.73-3.51,6.2-3.51,10.18A14.08,14.08,0,0,0,449.9,437.7c2.92,0,5.22-.35,6.79-1.95a7.5,7.5,0,0,0,1.44-3.27c.08-.43.15-.59.39-.59s.27.28.27.59a40.74,40.74,0,0,1-.86,5c-.23.74-.31.82-1,1.13a22.69,22.69,0,0,1-7,.9C444.05,439.5,440.11,438.05,437,435.29Z"/>
        <path class="cls-1" d="M507.74,413.41c7.72,0,13.57,4.71,13.57,12.44,0,7.41-5.5,13.53-13.77,13.53-9.4,0-13.42-7.06-13.42-13A13.13,13.13,0,0,1,507.74,413.41Zm.78,24.61c3.08,0,9.28-1.64,9.28-11.24,0-7.95-4.84-12.13-10.26-12.13-5.73,0-9.87,3.59-9.87,10.81C497.67,433.18,502.31,438,508.52,438Z"/>
        <path class="cls-1" d="M562.8,429.4c0,4.87.08,6.86.71,7.45s1.87.78,4.56.78c1.79,0,3.31,0,4.13-1a4,4,0,0,0,.82-1.87c0-.23.16-.43.35-.43s.24.16.24.51a21.25,21.25,0,0,1-.51,3.31c-.23.78-.35.9-2.18.9-2.46,0-4.37,0-6-.12s-2.73-.08-3.74-.08c-.16,0-.75,0-1.41,0s-1.44.08-2,.08c-.35,0-.54-.08-.54-.27a.26.26,0,0,1,.27-.27,4.77,4.77,0,0,0,1.05-.16c.66-.16.74-.78.9-1.76a69.25,69.25,0,0,0,.19-7.17v-5.85c0-5.15,0-6.09-.07-7.14s-.28-1.68-1.41-1.83a10.75,10.75,0,0,0-1.17-.08.33.33,0,0,1-.27-.27c0-.2.15-.28.54-.28,1.56,0,3.71.08,3.91.08s2.73-.08,3.78-.08c.35,0,.54.08.54.28a.29.29,0,0,1-.27.23c-.23,0-.74,0-1.13.08-1,.19-1.21.7-1.29,1.87s0,2,0,7.14Z"/>
        <path class="cls-1" d="M620.6,413.41c7.72,0,13.57,4.71,13.57,12.44a13.27,13.27,0,0,1-13.76,13.53c-9.4,0-13.42-7.06-13.42-13A13.12,13.12,0,0,1,620.6,413.41Zm.78,24.61c3.08,0,9.28-1.64,9.28-11.24,0-7.95-4.83-12.13-10.25-12.13-5.74,0-9.87,3.59-9.87,10.81C610.54,433.18,615.18,438,621.38,438Z"/>
        <path class="cls-1" d="M672.55,423.47c0-5.15,0-6.09-.08-7.14s-.27-1.68-1.4-1.83a10.93,10.93,0,0,0-1.17-.08.34.34,0,0,1-.28-.27c0-.2.16-.28.55-.28,1.56,0,3.86.08,4.06.08s3.23-.08,4.29-.08c2.18,0,4.6.2,6.39,1.45a5.8,5.8,0,0,1,2.38,4.52c0,2.46-1,4.84-4.21,7.57,2.81,3.51,5.19,6.51,7.18,8.58,1.83,1.87,3,2.18,3.82,2.3a6.12,6.12,0,0,0,1.21.12.3.3,0,0,1,.31.27c0,.19-.2.27-.82.27h-2.14a6.92,6.92,0,0,1-3.67-.66c-1.48-.78-2.73-2.38-4.68-4.88-1.44-1.79-3-3.94-3.71-4.83a.5.5,0,0,0-.46-.2l-4.37-.08c-.16,0-.24.08-.24.28v.78c0,3.2,0,5.77.16,7.13.12,1,.31,1.6,1.36,1.76a12.27,12.27,0,0,0,1.53.16.24.24,0,0,1,.27.27c0,.15-.16.27-.55.27-1.87,0-4-.12-4.21-.12s-2.34.12-3.39.12c-.35,0-.55-.08-.55-.27a.26.26,0,0,1,.27-.27,4.77,4.77,0,0,0,1.06-.16c.66-.16.74-.78.89-1.76a65.8,65.8,0,0,0,.2-7.17Zm3,2.81a.47.47,0,0,0,.24.42,11.37,11.37,0,0,0,3.78.51,4.47,4.47,0,0,0,2.57-.58c1.17-.78,2.07-2.54,2.07-5.07,0-4.14-2.26-6.52-5.93-6.52a14.53,14.53,0,0,0-2.45.2.42.42,0,0,0-.28.39Z"/>
        <path class="cls-1" d="M735.38,414.54c.43-1.09.58-1.29.82-1.29s.47.47.82,1.21c.62,1.4,6.12,15.09,8.23,20.12,1.24,3,2.18,3.4,2.92,3.63a4.71,4.71,0,0,0,1.37.2c.19,0,.43.07.43.27s-.4.27-.78.27-3.05,0-5.43-.08c-.66,0-1.21,0-1.21-.23s.08-.16.24-.23a.63.63,0,0,0,.31-.9L740,429.9a.27.27,0,0,0-.31-.19h-7.92a.36.36,0,0,0-.35.27l-2,5.31a6.83,6.83,0,0,0-.51,2.22c0,.66.59.9,1.17.9h.31c.28,0,.35.11.35.27s-.19.27-.5.27c-.82,0-2.69-.12-3.08-.12s-2.07.12-3.47.12c-.43,0-.67-.08-.67-.27a.3.3,0,0,1,.31-.27,9.3,9.3,0,0,0,1-.08c1.56-.2,2.22-1.37,2.89-3Zm3.82,13.8c.16,0,.16-.07.12-.23l-3.4-9.09c-.19-.5-.39-.5-.58,0l-3.2,9.09c0,.16,0,.23.12.23Z"/>
        <path class="cls-1" d="M785.69,423.47c0-5.15,0-6.09-.08-7.14s-.27-1.68-1.4-1.83a10.93,10.93,0,0,0-1.17-.08.34.34,0,0,1-.28-.27c0-.2.16-.28.55-.28,1.56,0,3.78.08,4,.08.39,0,2.57-.08,4.6-.08,3.43,0,9.71-.31,13.77,3.79a11.65,11.65,0,0,1,3.35,8.42,13.28,13.28,0,0,1-3.7,9.32c-1.49,1.52-4.57,3.82-10.42,3.82-1.48,0-3.31-.11-4.79-.19s-2.66-.2-2.81-.2-.7,0-1.41,0-1.52.08-2.06.08c-.35,0-.55-.08-.55-.27a.26.26,0,0,1,.27-.27,5,5,0,0,0,1.06-.16c.66-.16.74-.78.89-1.76a65.8,65.8,0,0,0,.2-7.17Zm3.12,3.59c0,3.51,0,6.59,0,7.21a6.15,6.15,0,0,0,.39,2.38c.43.63,1.64,1.33,5.69,1.33a11.53,11.53,0,0,0,8-3c1.79-1.67,2.69-4.83,2.69-7.87a11.49,11.49,0,0,0-3.24-8.31c-3.24-3.28-7-3.71-11.12-3.71a8.88,8.88,0,0,0-2.06.24.58.58,0,0,0-.43.66Z"/>
        <path class="cls-1" d="M858.15,413.41c7.72,0,13.57,4.71,13.57,12.44,0,7.41-5.5,13.53-13.77,13.53-9.39,0-13.41-7.06-13.41-13A13.12,13.12,0,0,1,858.15,413.41Zm.78,24.61c3.08,0,9.28-1.64,9.28-11.24,0-7.95-4.83-12.13-10.26-12.13-5.73,0-9.86,3.59-9.86,10.81C848.09,433.18,852.73,438,858.93,438Z"/>
      </g>
    </g>
  </g>
</svg>
