<?xml version="1.0" encoding="utf-8"?>
<!-- Generator: Adobe Illustrator 22.1.0, SVG Export Plug-In . SVG Version: 6.00 Build 0)  -->
<svg version="1.1" id="Layer_1" xmlns="http://www.w3.org/2000/svg" xmlns:xlink="http://www.w3.org/1999/xlink" x="0px" y="0px"
	 viewBox="0 0 1147.4 439.5" style="enable-background:new 0 0 1147.4 439.5;" xml:space="preserve">
<style type="text/css">
	.st0{fill:#FFFFFF;}
</style>
<rect width="1147.4" height="439.5"/>
<title>carfling-wt</title>
<g id="Layer_2_1_">
	<g id="Alt_white">
		<g>
			<g>
				<path class="st0" d="M236.4,270.1c-15.1-13.5-18.8-31.2-18.8-46c0-10.4,3.6-28.6,17.4-42.4c9.3-9.3,23.5-16.7,47.4-16.7
					c7.6,0,15.1,0.6,22.5,1.9c5.2,1.1,10.5,1.9,15.9,2.4c1.7,0.2,2,0.8,2,1.7c0,1.2-0.5,3.1-0.8,8.7c-0.3,5.1-0.3,13.7-0.5,16
					c-0.2,2.3-0.5,3.3-1.4,3.3c-1.1,0-1.2-1.1-1.2-3.3c0-6.1-2.5-12.4-6.5-15.9c-5.4-4.7-17.4-8.9-31.1-8.9
					c-20.7,0-30.3,6.1-35.7,11.3c-11.4,10.9-14,24.7-14,40.6c0,29.7,22.8,56.9,56.1,56.9c11.7,0,20.8-1.4,27-7.8
					c3.3-3.4,5.3-10.3,5.7-13.1c0.3-1.7,0.6-2.3,1.6-2.3c0.8,0,1.1,1.1,1.1,2.3c0,1.1-1.9,14.6-3.4,19.9c-0.9,3-1.2,3.3-4,4.5
					c-6.2,2.5-18,3.6-28,3.6C264.4,286.9,248.7,281.2,236.4,270.1z"/>
				<g>
					<path class="st0" d="M374.1,177.2c1.7-4.4,2.3-5.1,3.2-5.1c1.4,0,1.8,1.9,3.2,4.8c2.4,5.6,24,60.1,32.3,80.2
						c4.9,11.8,8.6,13.5,11.5,14.5c1.7,0.5,3.5,0.8,5.4,0.8c0.8,0,1.7,0.3,1.7,1.1s-1.5,1.1-3.1,1.1c-2,0-11.9,0-21.3-0.3
						c-2.6-0.2-4.7-0.2-4.7-0.9c0-0.6,0.3-0.6,0.9-0.9c0.8-0.3,2.1-1.4,1.2-3.6l-12.1-30.3c-0.3-0.6-0.5-0.8-1.2-0.8H360
						c-0.7,0-1.2,0.5-1.4,1.1l-7.7,21.1c-1.1,2.8-1.8,5.8-2,8.9c0,2.6,2.3,3.6,4.6,3.6h1.2c1.1,0,1.4,0.5,1.4,1.1
						c0,0.8-0.8,1.1-2,1.1c-3.2,0-10.6-0.5-12.1-0.5c-1.4,0-8.1,0.5-13.6,0.5c-1.7,0-2.6-0.3-2.6-1.1c0.1-0.6,0.6-1.1,1.2-1.1
						c1.3,0,2.7-0.1,4-0.3c6.1-0.8,8.7-5.4,11.3-12.1L374.1,177.2z M389.1,232.2c0.6,0,0.6-0.3,0.5-0.9l-13.3-36.2
						c-0.8-2-1.5-2-2.3,0l-12.6,36.2c-0.2,0.6,0,0.9,0.5,0.9L389.1,232.2z"/>
					<path class="st0" d="M436.8,212.8c0-20.5,0-24.2-0.3-28.4c-0.3-4.5-1.1-6.7-5.5-7.3c-1.5-0.2-3.1-0.3-4.6-0.3
						c-0.6-0.1-1-0.5-1.1-1.1c0-0.8,0.6-1.1,2.1-1.1c6.1,0,15.2,0.3,15.9,0.3c1.4,0,12.7-0.3,16.8-0.3c8.6,0,18.1,0.8,25.1,5.7
						c3.4,2.5,9.3,8.9,9.3,18c0,9.8-4,19.3-16.5,30.1c11,14,20.4,26,28.2,34.2c7.2,7.5,11.6,8.7,15,9.2c1.6,0.3,3.2,0.5,4.7,0.5
						c0.6,0,1.2,0.5,1.2,1.1c0,0.8-0.8,1.1-3.2,1.1h-8.4c-7.7,0-11-0.8-14.4-2.6c-5.8-3.1-10.7-9.4-18.4-19.4
						c-5.7-7.1-11.6-15.7-14.6-19.3c-0.4-0.6-1.1-0.9-1.8-0.8l-17.2-0.3c-0.6,0-0.9,0.3-0.9,1.1v3.2c0,12.7,0,23,0.6,28.4
						c0.5,3.9,1.2,6.4,5.4,7c2,0.3,4,0.5,6,0.6c0.5-0.1,1,0.3,1.1,0.8c0,0.1,0,0.2,0,0.3c0,0.6-0.6,1.1-2.1,1.1
						c-7.4,0-15.9-0.5-16.5-0.5c-0.2,0-9.2,0.5-13.3,0.5c-1.4,0-2.1-0.3-2.1-1.1c0-0.6,0.4-1.1,1-1.1c0,0,0.1,0,0.1,0
						c1.4-0.1,2.8-0.3,4.1-0.6c2.6-0.6,2.9-3.1,3.5-7c0.8-5.4,0.8-15.8,0.8-28.6L436.8,212.8z M448.5,223.9c0,0.7,0.3,1.4,0.9,1.7
						c2,1.1,8.9,2,14.9,2c3.2,0,6.9-0.2,10.1-2.3c4.6-3.1,8.1-10.1,8.1-20.2c0-16.5-8.9-26-23.3-26c-3.2,0-6.5,0.3-9.6,0.8
						c-0.6,0.3-1.1,0.9-1.1,1.6V223.9z"/>
					<path class="st0" d="M565,212.8c0-20.5,0-24.2-0.3-28.4c-0.3-4.5-1.1-6.7-5.5-7.3c-1.5-0.2-3.1-0.3-4.6-0.3
						c-0.6-0.1-1-0.5-1.1-1.1c0-0.8,0.6-1.1,2.1-1.1c6.1,0,14.5,0.3,15.3,0.3c2.6,0,31.9,0.2,34.9,0c2.6-0.2,4.9-0.2,6.1-0.6
						c0.8-0.2,1.4-0.8,1.8-0.8c0.6,0,0.9,0.6,0.9,1.2c0,0.9-0.6,2.5-1.1,6.2c-0.2,1.2-0.3,7.1-0.6,8.7c-0.2,0.6-0.6,1.4-1.2,1.4
						c-0.6,0-1.1-0.6-1.1-1.6c-0.1-1.7-0.5-3.4-1.2-5c-0.8-1.7-4-3.9-9.2-3.9l-22.1-0.3c-0.8,0-1.1,0.3-1.1,1.4v36
						c0,0.8,0,1.2,0.9,1.2l18.4-0.2c2.3,0,4.3,0,6.1-0.2c3.2-0.3,5.1-0.8,6.3-2.3c0.6-0.8,1.2-1.4,1.7-1.4c0.6,0,0.8,0.5,0.8,1.1
						c0,0.8-0.9,3-1.2,7.3c-0.3,2.6-0.5,7.9-0.5,8.9c0,1.2-0.3,2.6-1.2,2.6c-0.8,0-0.9-0.6-0.9-1.2c-0.1-1.6-0.4-3.3-0.9-4.8
						c-0.6-1.9-2.8-3.6-6.9-4.2c-3.4-0.5-19.3-0.3-21.6-0.3c-0.8,0-0.9,0.3-0.9,1.2v10.6c0,13.1,0,23.5,0.6,28.6
						c0.5,3.9,1.2,6.4,4.9,7c2,0.3,4.1,0.5,6.1,0.6c0.6,0,1.1,0.4,1.1,1c0,0,0,0.1,0,0.1c0,0.6-0.6,1.1-2.1,1.1
						c-7.5,0-16.2-0.5-16.8-0.5c-0.8,0-9.2,0.5-13.3,0.5c-1.4,0-2.1-0.3-2.1-1.1c0-0.6,0.4-1.1,1-1.1c0,0,0,0,0.1,0
						c1.4-0.1,2.8-0.3,4.1-0.6c2.6-0.5,2.9-3.1,3.5-7c0.8-5.4,0.8-15.8,0.8-28.6L565,212.8z"/>
					<path class="st0" d="M646.9,236.4c0,19.4,0.3,27.4,2.8,29.7c2.1,2.2,7.3,3.1,17.9,3.1c7,0,13-0.2,16.2-4
						c1.7-2.2,2.8-4.7,3.2-7.5c0.2-0.9,0.6-1.7,1.4-1.7c0.6,0,0.9,0.6,0.9,2c-0.3,4.5-1,8.9-2,13.2c-0.9,3.1-1.4,3.6-8.6,3.6
						c-9.6,0-17.2-0.2-23.4-0.5c-6.1-0.2-10.7-0.3-14.7-0.3c-0.6,0-2.9,0-5.5,0.2c-2.8,0.2-5.7,0.3-7.8,0.3c-1.4,0-2.1-0.3-2.1-1.1
						c0-0.6,0.5-1,1-1.1c0,0,0.1,0,0.1,0c1.4-0.1,2.8-0.3,4.1-0.6c2.6-0.6,2.9-3.1,3.5-7c0.8-5.4,0.8-15.8,0.8-28.6v-23.3
						c0-20.5,0-24.2-0.3-28.4c-0.3-4.5-1.1-6.7-5.5-7.3c-1.5-0.2-3.1-0.3-4.6-0.3c-0.6-0.1-1-0.5-1.1-1.1c0-0.8,0.6-1.1,2.1-1.1
						c6.1,0,14.6,0.3,15.3,0.3c0.6,0,10.7-0.3,14.9-0.3c1.4,0,2.1,0.3,2.1,1.1c0,0.5-0.6,0.9-1.1,0.9c-0.9,0-2.9,0.2-4.4,0.3
						c-4,0.8-4.7,2.8-5.1,7.5c-0.2,4.2-0.2,7.9-0.2,28.4L646.9,236.4z"/>
					<path class="st0" d="M716.6,236.1c0,12.7,0,23.2,0.6,28.6c0.5,3.9,0.9,6.4,4.9,7c2,0.3,4.1,0.5,6.1,0.6c0.6,0,1.1,0.4,1.1,1
						c0,0,0,0,0,0.1c0,0.6-0.6,1.1-2.1,1.1c-7.5,0-16.2-0.5-16.8-0.5c-0.8,0-9.2,0.5-13.3,0.5c-1.4,0-2.1-0.3-2.1-1.1
						c0-0.6,0.4-1.1,1-1.1c0,0,0.1,0,0.1,0c1.4-0.1,2.8-0.3,4.1-0.6c2.6-0.6,3.1-3.1,3.5-7c0.6-5.4,0.8-15.8,0.8-28.6v-23.3
						c0-20.5,0-24.2-0.3-28.4c-0.3-4.5-1.4-6.5-4.3-7.1c-1.4-0.3-2.7-0.4-4.1-0.5c-0.6,0-1-0.5-1.1-1.1c0-0.8,0.6-1.1,2.1-1.1
						c4.4,0,12.9,0.3,13.6,0.3c0.6,0,9.3-0.3,13.5-0.3c1.5,0,2.1,0.3,2.1,1.1c-0.1,0.6-0.5,1-1.1,1.1c-1.1,0-2.2,0.1-3.3,0.4
						c-3.7,0.8-4.4,2.6-4.8,7.3c-0.1,4.2-0.1,7.9-0.1,28.4L716.6,236.1z"/>
					<path class="st0" d="M754.3,256.4c0.3,10.9,1.5,14.1,5.2,15.1c2.2,0.5,4.5,0.8,6.7,0.8c0.6,0,1.1,0.4,1.1,1c0,0,0,0,0,0.1
						c0,0.8-0.9,1.1-2.4,1.1c-7.7,0-13-0.5-14.2-0.5s-6.9,0.5-13,0.5c-1.4,0-2.1-0.2-2.1-1.1c0-0.6,0.4-1.1,1-1.1c0,0,0,0,0.1,0
						c1.9,0,3.7-0.3,5.5-0.8c3.4-0.9,3.8-4.5,3.8-16.5v-75.7c0-5.3,0.8-6.7,1.8-6.7c1.5,0,3.8,2.6,5.2,4
						c2.1,2.2,21.7,23.3,42.6,45.1c13.3,14,27.7,29.7,31.9,34l-1.4-66.2c-0.2-8.6-0.9-11.5-5.1-12.3c-2.2-0.4-4.4-0.6-6.6-0.6
						c-0.9,0-1.1-0.8-1.1-1.2c0-0.8,1.1-0.9,2.6-0.9c6.1,0,12.6,0.3,14.1,0.3c1.5,0,6-0.3,11.5-0.3c1.4,0,2.5,0.2,2.5,0.9
						c-0.1,0.7-0.8,1.3-1.5,1.2c-1.1,0-2.1,0.1-3.2,0.4c-4.4,0.9-4.7,3.6-4.7,11.5l-0.3,77.4c0,8.7-0.2,9.4-1.1,9.4
						c-1.4,0-2.8-1.1-10.3-8.1c-1.4-1.2-20.8-20.7-35.1-35.7c-15.6-16.6-30.8-32.8-34.9-37.5L754.3,256.4z"/>
				</g>
				<path class="st0" d="M939.3,245.1c0-12.6-0.8-14.3-7-16c-1.7-0.3-3.5-0.5-5.3-0.5c-0.6,0-1.2-0.3-1.2-0.9c0-0.9,0.8-1.2,2.5-1.2
					c7,0,16.8,0.5,17.6,0.5s10.6-0.5,15.2-0.5c1.7,0,2.5,0.3,2.5,1.2c0,0.6-0.6,0.9-1.2,0.9c-1.3,0-2.6,0.2-3.9,0.5
					c-4.2,0.8-5.4,3.4-5.7,8.9c-0.3,5-0.3,9.6-0.3,16.2v17.4c0,7-0.2,7.3-2,8.4c-9.9,5.3-23.9,7-33,7c-11.8,0-33.9-1.6-51.1-16.6
					c-9.5-8.2-18.5-24.9-18.5-44.3c0-24.9,12.1-42.4,26-51.1c14-8.7,29.4-9.8,41.3-9.8c8,0.2,15.9,1,23.8,2.6
					c4.1,0.9,8.4,1.4,12.6,1.6c1.6,0.2,1.9,0.8,1.9,1.4c0,2.2-1.1,6.5-1.1,22.1c0,2.5-0.3,3.3-1.4,3.3c-0.8,0-0.9-0.9-1.1-2.3
					c-0.3-3.6-1.4-7.1-3.3-10.3c-3.9-5.9-16.5-12.6-36.5-12.6c-9.8,0-21.5,0.9-33.3,10.3c-9,7.1-15.4,21.3-15.4,39.5
					c0,21.9,11,37.8,16.5,43.1c10.8,10.8,25.5,16.8,40.7,16.6c5.6,0,13.7-0.9,17.7-3.3c2-1,3.3-3.2,3.1-5.4L939.3,245.1z"/>
			</g>
			<g>
				<path class="st0" d="M725,113.3c27.3,0,153.2,5.5,132.1-14.6c-6.7-6.4-71.9-59.4-256.3-67.5c-45-2-105.2,55.9-147.9,78.9
					c-7,3.7,22.3,6.9,38.5,6.1c-14.8-0.3-36.3-0.2-31.2-4.4c24.8-20.5,104-75.2,134.8-76.5c138.8-5.9,248.3,53.2,234.9,65.6
					C822.6,107.8,763.8,113.3,725,113.3z"/>
				<path class="st0" d="M541.7,114.8c0,0.5,52.7,0.9,91,0.9s69.4-0.4,69.4-0.9s-31.1-0.9-69.4-0.9
					C594.3,113.9,541.7,114.3,541.7,114.8z"/>
				<path class="st0" d="M901.9,119.2c-72.3-5.1-149.8,1.3-146.6,35.5c6.5-7.1,20.5-14.8,39.8-21.2c27.2-9,64.9-15.3,107-13.3
					c29.7,1.4,76.9,8.7,103.1,18C979,127.7,920.2,120.5,901.9,119.2z"/>
				<path class="st0" d="M1035.6,92.9c-37.9,0.9-30.3,1.5-56.6,3.2c-13.6,0.9-18.9,17.8-38.2,12.5c-21.8-6-118-45.8-215.3-66.3
					c92.5,19.7,204.4,70.5,218.3,74.1C983.6,126.8,1016.9,115.6,1035.6,92.9z"/>
				<path class="st0" d="M530.1,114.8c5.1-2.3,12.9-5.4,12.9-8.8c0-7.2-18.8-13.1-36.3-13.1c-8.3,0-15.8,1.3-21.5,3.4
					c6.3-1.8,12.8-2.7,19.3-2.6c17.7,0,32,5.9,32,13.2C536.5,109.8,534.1,112.6,530.1,114.8z"/>
				<path class="st0" d="M197,150.5c-42.9,10.6-78,21.1-89.1,43.5c-0.8,7-0.6,14,0.5,21c0.5,3.1,4.2,0.1,4.8,3.2
					c2.8,13.1,0,26.3-6.2,27.3c6.6,0.1,31.1,0.4,35.2,0.3c1.4-2.1,26.7-18.1,22.9-28.5c-1.3-3.4-51.9,1.4-52.5-2.1
					c-1.2-6.8-1.3-13.1-0.1-18.6c11.8-1,33.4-1.7,33.4-1.7s-18.4-1.1-26.9-1.9c-10-0.9,9-21.4,77.3-41.6
					c-4.9,3.3-13.1,11.8-12.7,16.7c0.4,2.8,8.1,0.4,15.4-2.8c23.2-10.2,50-36.8,29-32.2c-4.1,0.9-8.1,2.4-11.8,4.3l0,0
					C209.3,140.9,202.9,145.4,197,150.5z"/>
				<path class="st0" d="M216.3,137.3l1.1-0.6C217,136.9,216.6,137.1,216.3,137.3L216.3,137.3z"/>
				<path class="st0" d="M124.4,250h-18.5c1.9,10.8,30,20.3,105.2,20C133.6,269.7,126.5,260,124.4,250z"/>
				<path class="st0" d="M409.5,106.2c-55.8,3.8-98.4,5.1-161.5,19.1c-10.6,2.6-20.9,6.5-30.6,11.5c15.1-8,35.6-8.8,13.4,12.3
					c4.9-3.9,10.4-11.6,15.1-16.2c26.3-17.6,133.5-26.9,184.8-23.1c4.1,0.3,85-56.6,123.7-70.5C507.9,55.8,418.2,105.6,409.5,106.2z
					"/>
				<path class="st0" d="M1008.5,140.7c-91.9,8.2,0.7,25.3,27.4,24.3c15.3,18.5,1.9,47.1,1.5,51.9c-0.2,2.4,0.4,6.5,9.8,5.9
					c-5-3.8-0.9-16.7-1.3-33.3C1045.9,171.9,1038.8,157.6,1008.5,140.7z"/>
				<path class="st0" d="M1028.3,253c-0.8,5.1-3.9,12.3-59.5,13.5c73.8,0,68.1-6.9,68-14.1c-0.1-3.4,3-11.4,10.4-17.4
					C1029.7,235,1028.4,253,1028.3,253z"/>
			</g>
		</g>
		<g>
			<path class="st0" d="M84.9,329.7c0-6.4,0-7.5-0.1-8.8c-0.1-1.3-0.4-2-1.7-2.3c-0.5-0.1-0.9-0.1-1.4-0.1c-0.2,0-0.3-0.1-0.3-0.2
				s0.2-0.3,0.7-0.3c0.9,0,2,0,2.9,0l1.7,0.1c0.3,0,8.4,0,9.3,0c0.6,0,1.2-0.1,1.7-0.2c0.2,0,0.4-0.2,0.6-0.2s0.2,0.2,0.2,0.4
				s-0.2,0.8-0.3,1.9c0,0.4-0.1,2.2-0.2,2.7c0,0.2-0.1,0.4-0.3,0.4c-0.2,0-0.3-0.2-0.3-0.5c0-0.5-0.1-1-0.2-1.5
				c-0.3-0.7-0.7-1.1-2.9-1.4c-0.7-0.1-5.1-0.1-5.6-0.1c-0.2,0-0.2,0.1-0.2,0.4v11.2c0,0.3,0,0.4,0.2,0.4c0.5,0,5.5,0,6.5-0.1
				c0.9-0.1,1.5-0.2,1.9-0.6c0.4-0.4,0.4-0.5,0.6-0.5c0.2,0,0.2,0.1,0.2,0.3c0,0.2-0.2,0.9-0.3,2.3c-0.1,0.8-0.2,2.3-0.2,2.6
				c0,0.3,0,0.8-0.3,0.8c-0.3,0-0.3-0.2-0.3-0.4c0-0.5,0-0.9-0.2-1.3c-0.2-0.6-0.5-1.3-2.1-1.4c-1.1-0.1-5.1-0.2-5.8-0.2
				c-0.1,0-0.3,0.1-0.3,0.2c0,0,0,0,0,0.1v3.6c0,1.4,0,6.1,0,7c0.1,2.8,0.7,3.3,4.7,3.3c1.3,0.1,2.6-0.1,3.9-0.5
				c1.1-0.4,1.5-1.3,1.8-2.9c0.1-0.4,0.2-0.6,0.4-0.6c0.2,0,0.2,0.3,0.2,0.6c-0.1,1.3-0.3,2.6-0.5,3.9c-0.3,1.1-0.6,1.1-2.2,1.1
				c-3.1,0-5.3-0.1-6.9-0.1c-1.6,0-2.6-0.1-3.2-0.1c-0.1,0-0.8,0-1.6,0c-0.9,0-1.7,0.1-2.4,0.1c-0.4,0-0.7-0.1-0.7-0.3
				s0.1-0.2,0.3-0.2c0.4,0,0.8-0.1,1.2-0.2c0.9-0.2,1-1.1,1.2-2.2c0.2-1.7,0.2-4.9,0.2-8.8L84.9,329.7z"/>
			<path class="st0" d="M147.5,335.3l-5.7-9.3c-0.9-1.3-1.5-2.3-2.7-2.7c-0.5-0.1-1-0.2-1.5-0.2c-0.2,0-0.3-0.2-0.3-0.3
				c0-0.2,0.2-0.2,0.6-0.2c1,0,3.9,0.1,4.2,0.1c0.3,0,2.3-0.1,3.5-0.1c0.5,0,0.6,0.1,0.6,0.2c0,0.2-0.1,0.3-0.3,0.3c0,0,0,0,0,0
				c-0.3,0-0.7,0-1,0.1c-0.3,0-0.5,0.3-0.4,0.5c0,0.4,0.2,0.8,0.4,1.1c1.5,2.7,2.8,5.2,4.7,8.2c1.1-1.5,4.8-7.3,5.1-8.1
				c0.2-0.4,0.4-0.8,0.4-1.2c0-0.2-0.2-0.4-0.6-0.6c-0.3-0.1-0.7-0.1-1-0.1c-0.2,0-0.3-0.1-0.3-0.3l0,0c0-0.2,0.2-0.2,0.6-0.2
				c1.3,0,2.8,0.1,3.2,0.1c0.3,0,1.8-0.1,3-0.1c0.4,0,0.6,0.1,0.6,0.2c0,0.2-0.2,0.3-0.4,0.3c-0.4,0-0.8,0.1-1.2,0.2
				c-1,0.3-1.7,1.2-2.7,2.7l-5.7,8.4c0.7,1.1,6.8,11.2,7.6,12c0.5,0.7,1.2,1.3,2,1.5c0.4,0.1,0.8,0.2,1.2,0.2c0.1,0,0.3,0.1,0.3,0.2
				c0,0,0,0,0,0.1c0,0.2-0.2,0.3-0.5,0.3c-2.2,0-3.9,0-5.9-0.1c-0.9,0-1.1-0.1-1.1-0.3c0-0.1,0.1-0.2,0.2-0.3c0.2,0,0.5-0.4,0.2-1
				c-2-3.4-3.9-6.7-6.1-10.2l-5.5,9.1c-0.3,0.5-0.4,1-0.4,1.6c0,0.3,0.2,0.5,0.6,0.6c0.2,0,0.4,0.1,0.6,0.1c0.2,0,0.3,0.1,0.3,0.3
				c0,0,0,0,0,0c0,0.2-0.2,0.2-0.4,0.2c-0.9,0-3.2-0.1-3.5-0.1c-0.3,0-2.1,0.1-3.3,0.1c-0.3,0-0.3-0.1-0.3-0.2s0.1-0.3,0.3-0.3
				c0.5,0,0.9-0.1,1.3-0.2c1.1-0.3,1.8-0.9,2.9-2.7L147.5,335.3z"/>
			<path class="st0" d="M199.9,345.4c-2.9-2.6-4.5-6.4-4.4-10.3c0.1-3.6,1.5-6.9,4-9.4c2.2-2.1,5.4-3.7,10.9-3.7
				c1.7,0,3.5,0.1,5.2,0.4c1.2,0.3,2.4,0.4,3.7,0.5c0.4,0,0.4,0.2,0.4,0.4c0,0.2-0.1,0.7-0.2,1.9c-0.1,1.3,0,3.1-0.1,3.5
				c-0.1,0.5-0.2,0.7-0.4,0.7s-0.3-0.2-0.3-0.7c0-1.3-0.5-2.6-1.5-3.4c-1.3-1.1-3.9-1.9-7-1.9c-4.6,0-6.8,1.2-8.1,2.4
				c-2.6,2.4-3.2,5.5-3.2,9c0,6.9,5.7,12.6,12.6,12.5c0.1,0,0.2,0,0.3,0c2.7,0,4.5-0.2,5.9-1.6c0.7-0.8,1.2-1.8,1.4-2.9
				c0.1-0.4,0.1-0.5,0.4-0.5s0.3,0.2,0.3,0.5c-0.2,1.5-0.5,3-0.9,4.4c-0.2,0.6-0.3,0.8-0.9,1c-2.1,0.6-4.3,0.9-6.5,0.8
				C206.4,349.1,202.8,347.8,199.9,345.4z"/>
			<path class="st0" d="M264.3,338.7c0,5.1,0.1,7.2,0.7,7.8c0.7,0.6,2,0.8,4.8,0.8c1.9,0,3.4,0,4.3-1.1c0.4-0.6,0.7-1.2,0.9-1.9
				c0-0.2,0.2-0.4,0.4-0.4s0.2,0.2,0.2,0.5c-0.1,1.2-0.3,2.3-0.5,3.4c-0.2,0.8-0.4,0.9-2.3,0.9c-2.6,0-4.6,0-6.2-0.1
				s-2.8-0.1-3.9-0.1c-0.2,0-0.8,0-1.5,0c-0.7,0-1.5,0.1-2.1,0.1c-0.4,0-0.6-0.1-0.6-0.3c0-0.2,0.1-0.3,0.3-0.3c0,0,0,0,0,0
				c0.4,0,0.7-0.1,1.1-0.2c0.7-0.2,0.8-0.8,0.9-1.8c0.2-2.5,0.3-5,0.2-7.5v-6.1c0-5.4,0-6.4-0.1-7.4s-0.3-1.7-1.5-1.9
				c-0.4-0.1-0.8-0.1-1.2-0.1c-0.1,0-0.3-0.1-0.3-0.3c0-0.2,0.2-0.3,0.6-0.3c1.6,0,3.9,0.1,4.1,0.1c0.2,0,2.8-0.1,4-0.1
				c0.4,0,0.6,0.1,0.6,0.3c0,0.2-0.2,0.2-0.3,0.2c-0.2,0-0.8,0-1.2,0.1c-1.1,0.2-1.3,0.7-1.3,2c0,1.1,0,2.1,0,7.4L264.3,338.7z"/>
			<path class="st0" d="M313.4,332.5c0-5.4,0-6.4-0.1-7.4c-0.1-1.1-0.3-1.7-1.5-1.9c-0.4-0.1-0.8-0.1-1.2-0.1
				c-0.1,0-0.3-0.1-0.3-0.3c0-0.2,0.2-0.3,0.6-0.3c1.6,0,3.8,0.1,4.1,0.1c0.3,0,2.6-0.1,3.6-0.1c0.4,0,0.6,0.1,0.6,0.3
				c0,0.2-0.2,0.3-0.3,0.3c-0.3,0-0.6,0-0.9,0.1c-0.9,0.2-1.1,0.8-1.2,1.9c-0.1,1.1-0.1,2.1-0.1,7.4v4.8c0,5,1.1,7.1,2.6,8.5
				c1.4,1.3,3.4,2,5.3,1.9c2.1,0,4.1-0.9,5.5-2.4c1.7-2,2-4.8,2-8.4v-4.4c0-5.4,0-6.4-0.1-7.4c-0.1-1.1-0.2-1.7-1.4-1.9
				c-0.4-0.1-0.8-0.1-1.2-0.1c-0.2,0-0.3-0.1-0.3-0.3c0-0.2,0.2-0.3,0.6-0.3c1.6,0,3.7,0.1,3.9,0.1c0.2,0,2-0.1,3-0.1
				c0.4,0,0.6,0.1,0.6,0.3c0,0.2-0.1,0.3-0.3,0.3c-0.3,0-0.6,0-0.9,0.1c-1,0.2-1.2,0.8-1.3,1.9c-0.1,1.1,0,2.1,0,7.4v3.7
				c0,3.8-0.5,7.9-3.3,10.4c-2.1,1.8-4.8,2.7-7.5,2.5c-1.2,0-4.9-0.1-7.4-2.4c-1.7-1.6-3.1-4-3.1-9.1L313.4,332.5z"/>
			<path class="st0" d="M374.6,348.2c-0.5-0.2-0.5-0.4-0.5-1.3c0-1.7,0.2-3.1,0.2-3.7c0-0.4,0.1-0.6,0.3-0.6c0.2,0,0.3,0.1,0.3,0.4
				c0,0.4,0,0.8,0.1,1.3c0.6,2.6,3.3,3.4,5.7,3.4c3.5,0,5.4-2,5.4-4.6c0-2.5-1.3-3.7-4.5-6l-1.6-1.2c-3.9-2.9-5.1-5-5.1-7.4
				c0-4.1,3.2-6.5,7.9-6.5c1.2,0,2.5,0.1,3.7,0.4c0.4,0.1,0.8,0.2,1.3,0.2c0.3,0,0.4,0,0.4,0.2s-0.2,1.3-0.2,3.7
				c0,0.5,0,0.8-0.3,0.8s-0.3-0.2-0.3-0.4c-0.1-0.6-0.3-1.2-0.5-1.7c-0.2-0.4-1.4-1.7-4.6-1.7c-2.6,0-4.8,1.3-4.8,3.8
				c0,2.2,1.1,3.4,4.6,5.9l1,0.7c4.4,3,5.9,5.4,5.9,8.3c0,2.4-1.2,4.7-3.3,5.9c-1.5,1-3.8,1.2-5.7,1.2
				C378,349.2,376.2,348.8,374.6,348.2z"/>
			<path class="st0" d="M433.9,338.6c0,3.3,0,6.1,0.2,7.5c0.1,1,0.2,1.7,1.3,1.8c0.5,0.1,1.1,0.1,1.6,0.2c0.2,0,0.3,0.1,0.3,0.3
				c0,0,0,0,0,0c0,0.2-0.2,0.3-0.6,0.3c-2,0-4.3-0.1-4.5-0.1s-2.4,0.1-3.5,0.1c-0.4,0-0.6-0.1-0.6-0.3c0-0.2,0.1-0.3,0.3-0.3
				c0,0,0,0,0,0c0.4,0,0.7-0.1,1.1-0.2c0.7-0.2,0.8-0.8,0.9-1.8c0.2-1.4,0.2-4.2,0.2-7.5v-6.1c0-5.4,0-6.4-0.1-7.4
				c-0.1-1.1-0.4-1.7-1.1-1.9c-0.4-0.1-0.7-0.1-1.1-0.1c-0.2,0-0.3-0.1-0.3-0.3c0-0.2,0.2-0.3,0.6-0.3c1.2,0,3.4,0.1,3.6,0.1
				s2.5-0.1,3.6-0.1c0.4,0,0.6,0.1,0.6,0.3c0,0.1-0.1,0.3-0.3,0.3c-0.3,0-0.6,0-0.9,0.1c-1,0.2-1.2,0.7-1.3,1.9c0,1.1,0,2.1,0,7.4
				L433.9,338.6z"/>
			<path class="st0" d="M486.9,344.2c2.1-4.6,6.8-16.5,7.5-18.9c0.2-0.4,0.3-0.9,0.3-1.3c0-0.3-0.2-0.6-0.5-0.7
				c-0.4-0.1-0.8-0.1-1.2-0.1c-0.2,0-0.4-0.1-0.4-0.3c0-0.2,0.2-0.3,0.8-0.3c1.4,0,3.1,0.1,3.5,0.1c0.2,0,1.7-0.1,2.8-0.1
				c0.4,0,0.6,0.1,0.6,0.2s-0.1,0.3-0.4,0.3c-0.6,0-1.2,0.1-1.7,0.4c-0.5,0.3-1.1,0.8-2,3.2c-0.4,1-2.2,5.1-4,9.4
				c-2.2,5-3.8,8.8-4.6,10.5c-1,2.1-1.2,2.6-1.5,2.6c-0.4,0-0.7-0.4-1.3-2.1l-8.8-21.2c-0.8-2-1.3-2.3-2.5-2.6
				c-0.5-0.1-0.9-0.1-1.4-0.1c-0.2,0-0.3-0.2-0.3-0.3c0-0.2,0.4-0.2,0.9-0.2c1.7,0,3.7,0.1,4.2,0.1c0.4,0,2-0.1,3.3-0.1
				c0.7,0,1,0.1,1,0.2c0,0.2-0.2,0.3-0.3,0.3c0,0,0,0,0,0c-0.4,0-0.9,0-1.3,0.2c-0.3,0.1-0.4,0.3-0.4,0.6c0.2,1,0.5,2,1,2.9
				L486.9,344.2z"/>
			<path class="st0" d="M538.2,332.5c0-5.4,0-6.4-0.1-7.4c-0.1-1.1-0.3-1.7-1.5-1.9c-0.4-0.1-0.8-0.1-1.2-0.1
				c-0.1,0-0.3-0.1-0.3-0.3c0-0.2,0.2-0.3,0.6-0.3c1.6,0,3.9,0.1,4.2,0.1s7.7,0,8.6,0c0.5,0,1.1-0.1,1.6-0.2
				c0.2-0.1,0.3-0.1,0.5-0.2c0.1,0,0.2,0.2,0.2,0.3c-0.1,0.5-0.2,1.1-0.3,1.6c0,0.3-0.1,1.9-0.2,2.3c0,0.2-0.2,0.4-0.3,0.4
				s-0.3-0.2-0.3-0.5c0-0.4-0.1-0.8-0.2-1.2c-0.2-0.6-0.6-0.8-2.6-1.1c-0.6-0.1-4.8-0.1-5.1-0.1c-0.2,0-0.2,0.1-0.2,0.4v9.4
				c0,0.2,0,0.4,0.2,0.4c0.4,0,5.1,0,6-0.1c0.9-0.1,1.4-0.1,1.7-0.5c0.2-0.2,0.4-0.4,0.5-0.4s0.2,0.1,0.2,0.3s-0.2,0.8-0.3,1.9
				c-0.1,0.7-0.2,2-0.2,2.2c0,0.2-0.1,0.7-0.3,0.7s-0.2-0.1-0.2-0.3c0-0.4,0-0.8-0.2-1.1c-0.1-0.5-0.4-0.9-1.8-1.1
				c-1-0.1-4.8-0.2-5.4-0.2c-0.2,0-0.2,0.1-0.2,0.2v2.9c0,1.2,0,5.2,0,5.9c0.1,2.3,0.7,2.8,4.3,2.8c1.2,0.1,2.4-0.1,3.6-0.4
				c1-0.4,1.6-1.3,1.6-2.4c0.1-0.4,0.2-0.5,0.4-0.5c0.2,0,0.2,0.3,0.2,0.5c-0.1,1.1-0.3,2.2-0.5,3.3c-0.2,0.9-0.6,0.9-2,0.9
				c-2.7,0-4.8-0.1-6.2-0.1c-1.5,0-2.4-0.1-3-0.1c-0.1,0-0.8,0-1.5,0c-0.8,0-1.5,0.1-2.1,0.1c-0.4,0-0.6-0.1-0.6-0.3
				c0-0.2,0.1-0.3,0.3-0.3c0,0,0,0,0,0c0.3,0,0.8-0.1,1.1-0.2c0.7-0.1,0.8-0.8,0.9-1.8c0.2-2.5,0.3-5,0.2-7.5L538.2,332.5z"/>
			<path class="st0" d="M640.2,344.8c-3.9-3.5-4.9-8.2-4.9-12c0-4.2,1.7-8.2,4.6-11.2c2.4-2.4,6.1-4.4,12.4-4.4c2,0,4,0.2,5.9,0.5
				c1.4,0.3,2.8,0.5,4.1,0.6c0.5,0,0.5,0.2,0.5,0.5c0,0.2-0.1,0.8-0.2,2.3c-0.1,1.5-0.1,3.6-0.1,4.2c0,0.6-0.1,0.9-0.4,0.9
				s-0.3-0.3-0.3-0.9c0-1.6-0.6-3.1-1.7-4.2c-1.4-1.2-4.6-2.3-8.1-2.3c-5.4,0-7.9,1.6-9.4,3c-3,2.8-3.7,6.5-3.7,10.6
				c-0.1,8.1,6.4,14.8,14.5,14.9c0.1,0,0.1,0,0.2,0c3.1,0,5.5-0.4,7.1-2c0.8-1,1.3-2.2,1.5-3.4c0.1-0.5,0.2-0.6,0.4-0.6
				c0.2,0,0.3,0.3,0.3,0.6c-0.2,1.8-0.5,3.5-0.9,5.2c-0.2,0.8-0.3,0.9-1.1,1.2c-1.6,0.7-4.7,0.9-7.3,0.9
				C647.6,349.2,643.5,347.7,640.2,344.8z"/>
			<path class="st0" d="M709.8,323.2c0.5-1.1,0.6-1.3,0.9-1.3s0.5,0.5,0.9,1.3c0.7,1.5,6.4,15.8,8.6,21c1.3,3.1,2.3,3.5,3,3.8
				c0.5,0.1,0.9,0.2,1.4,0.2c0.2,0,0.5,0.1,0.5,0.3c0,0.2-0.4,0.3-0.9,0.3c-0.4,0-3.2,0-5.7-0.1c-0.7,0-1.3,0-1.3-0.2
				s0.1-0.2,0.2-0.2c0.3-0.1,0.5-0.5,0.4-0.9c0,0,0,0,0-0.1l-3.1-7.9c-0.1-0.2-0.1-0.2-0.3-0.2h-8.3c-0.2,0-0.3,0.1-0.4,0.3l-2,5.5
				c-0.3,0.7-0.5,1.5-0.5,2.3c0,0.7,0.6,0.9,1.2,0.9h0.3c0.3,0,0.4,0.1,0.4,0.3c0,0.2-0.2,0.3-0.5,0.3c-0.9,0-2.8-0.1-3.2-0.1
				c-0.4,0-2.2,0.1-3.6,0.1c-0.5,0-0.7-0.1-0.7-0.3c0-0.2,0.2-0.3,0.3-0.3c0.4,0,0.7,0,1.1-0.1c1.6-0.2,2.3-1.4,3-3.2L709.8,323.2z
				 M713.8,337.6c0.2,0,0.2-0.1,0.1-0.2l-3.5-9.5c-0.2-0.5-0.4-0.5-0.6,0l-3.3,9.5c0,0.2,0,0.2,0.1,0.2H713.8z"/>
			<path class="st0" d="M762.3,332.5c0-5.4,0-6.4-0.1-7.4c-0.1-1.1-0.3-1.7-1.5-1.9c-0.4-0.1-0.8-0.1-1.2-0.1
				c-0.1,0-0.3-0.1-0.3-0.3c0-0.2,0.2-0.3,0.6-0.3c1.6,0,4,0.1,4.2,0.1c0.4,0,3.4-0.1,4.5-0.1c2.3,0,4.8,0.2,6.7,1.5
				c1.5,1.1,2.4,2.9,2.5,4.7c0,2.6-1.1,5-4.4,7.9c2.9,3.7,5.4,6.8,7.5,9c1.9,1.9,3.1,2.3,4,2.4c0.4,0.1,0.8,0.1,1.3,0.1
				c0.2,0,0.3,0.1,0.3,0.3c0,0.2-0.2,0.3-0.9,0.3h-2.2c-2,0-2.9-0.2-3.8-0.7c-1.6-0.8-2.8-2.5-4.9-5.1c-1.5-1.9-3.1-4.1-3.9-5
				c-0.1-0.1-0.3-0.2-0.5-0.2l-4.6-0.1c-0.2,0-0.2,0.1-0.2,0.3v0.8c0,3.3,0,6,0.2,7.4c0.1,1,0.3,1.7,1.4,1.8
				c0.5,0.1,1.1,0.1,1.6,0.2c0.1,0,0.3,0.1,0.3,0.2c0,0,0,0,0,0.1c0,0.2-0.2,0.3-0.6,0.3c-2,0-4.2-0.1-4.4-0.1
				c-0.2,0-2.4,0.1-3.5,0.1c-0.4,0-0.6-0.1-0.6-0.3c0-0.2,0.1-0.3,0.3-0.3c0,0,0,0,0,0c0.4,0,0.7-0.1,1.1-0.2
				c0.7-0.2,0.8-0.8,0.9-1.8c0.2-2.5,0.3-5,0.2-7.5L762.3,332.5z M765.4,335.4c0,0.2,0.1,0.4,0.2,0.4c1.3,0.4,2.6,0.6,3.9,0.5
				c0.9,0.1,1.9-0.1,2.7-0.6c1.2-0.8,2.2-2.6,2.2-5.3c0-4.3-2.4-6.8-6.2-6.8c-0.9,0-1.7,0.1-2.6,0.2c-0.2,0.1-0.3,0.2-0.3,0.4
				L765.4,335.4z"/>
			<path class="st0" d="M869.3,344.8c-3.9-3.5-4.9-8.2-4.9-12c0-4.2,1.7-8.2,4.6-11.2c2.4-2.4,6.1-4.4,12.4-4.4c2,0,4,0.2,5.9,0.5
				c1.4,0.3,2.8,0.5,4.2,0.6c0.4,0,0.5,0.2,0.5,0.5c0,0.2-0.1,0.8-0.2,2.3c-0.1,1.5-0.1,3.6-0.1,4.2c0,0.6-0.1,0.9-0.4,0.9
				s-0.3-0.3-0.3-0.9c0-1.6-0.6-3.1-1.7-4.2c-1.4-1.2-4.6-2.3-8.1-2.3c-5.4,0-7.9,1.6-9.4,3c-3,2.8-3.7,6.5-3.7,10.6
				c-0.1,8.1,6.4,14.8,14.5,14.9c0.1,0,0.1,0,0.2,0c3.1,0,5.5-0.4,7.1-2c0.8-1,1.3-2.2,1.5-3.4c0.1-0.5,0.2-0.6,0.4-0.6
				s0.3,0.3,0.3,0.6c-0.2,1.8-0.5,3.5-0.9,5.2c-0.2,0.8-0.3,0.9-1.1,1.2c-1.6,0.7-4.7,0.9-7.3,0.9
				C876.6,349.2,872.5,347.7,869.3,344.8z"/>
			<path class="st0" d="M936.7,338.7c0,5.1,0.1,7.2,0.7,7.8c0.7,0.6,2,0.8,4.8,0.8c1.9,0,3.4,0,4.3-1.1c0.4-0.6,0.7-1.2,0.9-1.9
				c0-0.2,0.2-0.4,0.4-0.4c0.2,0,0.2,0.2,0.2,0.5c-0.1,1.2-0.3,2.3-0.5,3.4c-0.2,0.8-0.4,0.9-2.3,0.9c-2.6,0-4.6,0-6.2-0.1
				c-1.7-0.1-2.8-0.1-3.9-0.1c-0.2,0-0.8,0-1.5,0c-0.7,0-1.5,0.1-2.1,0.1c-0.4,0-0.6-0.1-0.6-0.3c0-0.2,0.1-0.3,0.3-0.3c0,0,0,0,0,0
				c0.4,0,0.7-0.1,1.1-0.2c0.7-0.2,0.8-0.8,0.9-1.8c0.2-2.5,0.3-5,0.2-7.5v-6.1c0-5.4,0-6.4-0.1-7.4c-0.1-1.1-0.3-1.7-1.5-1.9
				c-0.4-0.1-0.8-0.1-1.2-0.1c-0.1,0-0.3-0.1-0.3-0.3c0-0.2,0.2-0.3,0.6-0.3c1.6,0,3.9,0.1,4.1,0.1s2.8-0.1,3.9-0.1
				c0.4,0,0.6,0.1,0.6,0.3c0,0.1-0.1,0.2-0.3,0.2c-0.2,0-0.8,0-1.2,0.1c-1.1,0.2-1.3,0.7-1.3,2c0,1.1,0,2.1,0,7.4L936.7,338.7z"/>
			<path class="st0" d="M985.7,332.5c0-5.4,0-6.4-0.1-7.4c-0.1-1.1-0.3-1.7-1.5-1.9c-0.4-0.1-0.8-0.1-1.2-0.1
				c-0.1,0-0.3-0.1-0.3-0.3c0-0.2,0.2-0.3,0.6-0.3c1.6,0,3.8,0.1,4.1,0.1s2.6-0.1,3.6-0.1c0.4,0,0.6,0.1,0.6,0.3
				c0,0.2-0.2,0.3-0.3,0.3c-0.3,0-0.6,0-0.9,0.1c-0.9,0.2-1.1,0.8-1.2,1.9c-0.1,1.1-0.1,2.1-0.1,7.4v4.8c0,5,1.1,7.1,2.7,8.5
				c1.4,1.3,3.4,2,5.3,1.9c2.1,0,4.1-0.9,5.5-2.4c1.7-2,2-4.8,2-8.4v-4.4c0-5.4,0-6.4-0.1-7.4c-0.1-1.1-0.2-1.7-1.4-1.9
				c-0.4-0.1-0.8-0.1-1.2-0.1c-0.2,0-0.3-0.1-0.3-0.3c0-0.2,0.2-0.3,0.6-0.3c1.6,0,3.7,0.1,3.9,0.1c0.2,0,1.9-0.1,3-0.1
				c0.4,0,0.6,0.1,0.6,0.3c0,0.2-0.1,0.3-0.3,0.3c-0.3,0-0.6,0-0.9,0.1c-1,0.2-1.2,0.8-1.3,1.9c-0.1,1.1,0,2.1,0,7.4v3.7
				c0,3.8-0.5,7.9-3.3,10.4c-2.1,1.8-4.8,2.7-7.5,2.5c-1.2,0-4.9-0.1-7.4-2.4c-1.7-1.6-3.1-4-3.1-9.1L985.7,332.5z"/>
			<path class="st0" d="M1049.9,332.5c0-5.4,0-6.4-0.1-7.4c-0.1-1.1-0.3-1.8-1.5-2c-0.4,0-0.8-0.1-1.2-0.1c-0.1,0-0.3-0.1-0.3-0.2
				c0-0.1,0.2-0.3,0.6-0.3c1.6,0,3.9,0.1,4.1,0.1c0.9,0,2.6-0.1,4.2-0.1c6,0,7.5,3.4,7.5,5.3c0,2.7-1.8,4.4-3.6,6.1
				c2.7,0.9,6.3,3.3,6.3,7.2c0,3.9-2.9,7.7-9,7.7c-0.6,0-1.9,0-3.1-0.1l-2.3-0.1c-0.1,0-0.7,0-1.5,0s-1.6,0.1-2.2,0.1
				c-0.4,0-0.6-0.1-0.6-0.3c0-0.2,0.1-0.2,0.3-0.2c0.4,0,0.7-0.1,1.1-0.2c0.7-0.1,0.8-0.9,0.9-1.9c0.2-2.5,0.3-5,0.2-7.5
				L1049.9,332.5z M1053,333.2c0,0.2,0.1,0.3,0.2,0.4c0.7,0.1,1.5,0.2,2.2,0.2c2,0,2.8-0.1,3.5-0.9c0.9-1,1.4-2.3,1.4-3.7
				c0-2.7-1.5-5.6-5.1-5.6c-0.6,0-1.2,0.1-1.8,0.2c-0.3,0.1-0.4,0.2-0.4,0.4V333.2z M1053,337.1c0,2.7,0,6.9,0,7.4
				c0.1,1.7,0.1,2.1,1.2,2.6c1,0.4,2.1,0.5,3.1,0.5c2.4,0,5.3-0.9,5.3-5.3c0.2-3.8-2.6-7-6.4-7.2c-0.1,0-0.2,0-0.2,0
				c-0.5-0.1-2.2-0.1-2.8-0.1c-0.1,0-0.2,0.1-0.2,0.2L1053,337.1z"/>
		</g>
		<g>
			<path class="st0" d="M328.5,385.9c6.6,0,11.6,4,11.6,10.7c0.1,6.3-4.9,11.5-11.2,11.6c-0.2,0-0.4,0-0.6,0
				c-8.1,0-11.5-6.1-11.5-11.2c0.1-6.2,5.2-11.2,11.4-11.1C328.3,385.9,328.4,385.9,328.5,385.9z M329.2,407.1c2.6,0,8-1.4,8-9.6
				c0-6.8-4.1-10.4-8.8-10.4c-4.9,0-8.5,3.1-8.5,9.3C319.9,402.9,323.9,407,329.2,407.1L329.2,407.1z"/>
			<path class="st0" d="M373.1,394.6c0-4.4,0-5.2-0.1-6.1c-0.1-0.9-0.2-1.4-1.2-1.6c-0.3,0-0.7-0.1-1-0.1c-0.1,0-0.2-0.1-0.2-0.2
				c0-0.2,0.1-0.2,0.5-0.2c1.3,0,3.2,0.1,3.3,0.1c0.6,0,7,0,7.6,0c0.4,0,0.9,0,1.3-0.1c0.2,0,0.3-0.2,0.4-0.2c0.1,0,0.2,0.1,0.2,0.3
				s-0.1,0.5-0.2,1.3c0,0.3-0.1,1.5-0.1,1.9c0,0.1-0.1,0.3-0.3,0.3c-0.1,0-0.2-0.1-0.2-0.3c0-0.4-0.1-0.7-0.3-1.1
				c-0.5-0.6-1.2-0.9-2-0.9l-4.8-0.1c-0.2,0-0.2,0.1-0.2,0.3v7.8c0,0.2,0,0.3,0.2,0.3h4c0.5,0,0.9,0,1.3,0c0.7-0.1,1.1-0.2,1.4-0.5
				c0.1-0.2,0.3-0.3,0.4-0.3s0.2,0.1,0.2,0.2c-0.1,0.5-0.2,1-0.3,1.6c-0.1,0.6-0.1,1.7-0.1,1.9s-0.1,0.6-0.3,0.6
				c-0.2,0-0.2-0.1-0.2-0.3c0-0.4-0.1-0.7-0.2-1c-0.1-0.4-0.6-0.8-1.5-0.9c-0.7-0.1-4.2-0.1-4.7-0.1c-0.2,0-0.2,0.1-0.2,0.3v2.3
				c0,2.8,0,5.1,0.1,6.2c0.1,0.9,0.3,1.4,1.1,1.5c0.4,0.1,0.9,0.1,1.3,0.1c0.1,0,0.2,0.1,0.2,0.2c0,0,0,0,0,0c0,0.1-0.1,0.2-0.5,0.2
				c-1.6,0-3.5-0.1-3.7-0.1c-0.1,0-2,0.1-2.9,0.1c-0.3,0-0.5-0.1-0.5-0.2c0-0.1,0.1-0.2,0.2-0.2c0,0,0,0,0,0c0.3,0,0.6-0.1,0.9-0.1
				c0.6-0.1,0.6-0.7,0.8-1.5c0.2-2,0.2-4.1,0.2-6.2L373.1,394.6z"/>
			<path class="st0" d="M456.4,404.7c-2.7-2.6-4.2-6.2-4.1-9.9c0-3.4,1.4-6.7,3.8-9.1c2-2,5.1-3.6,10.2-3.6c1.6,0,3.3,0.1,4.9,0.4
				c1.1,0.2,2.3,0.4,3.4,0.5c0.4,0,0.4,0.2,0.4,0.4s-0.1,0.7-0.2,1.9c-0.1,1.2-0.1,2.9-0.1,3.4c0,0.5-0.1,0.7-0.3,0.7
				s-0.3-0.2-0.3-0.7c0-1.3-0.5-2.5-1.4-3.4c-1.2-1-3.8-1.9-6.7-1.9c-4.5,0-6.5,1.3-7.7,2.4c-2.4,2.3-3,5.3-3,8.7
				c-0.1,6.7,5.2,12.2,11.9,12.3c0.1,0,0.2,0,0.2,0c2.5,0,4.5-0.3,5.8-1.7c0.6-0.8,1.1-1.8,1.2-2.8c0.1-0.4,0.1-0.5,0.3-0.5
				s0.2,0.2,0.2,0.5c-0.2,1.4-0.4,2.9-0.7,4.3c-0.2,0.6-0.3,0.7-0.9,1c-1.9,0.6-4,0.8-6,0.8C462.4,408.3,459.1,407.1,456.4,404.7z"
				/>
			<path class="st0" d="M517.1,385.9c6.6,0,11.6,4,11.6,10.7c0,6.4-4.7,11.6-11.8,11.6c-8.1,0-11.5-6.1-11.5-11.2
				c0.1-6.2,5.2-11.2,11.4-11.1C516.9,385.9,517,385.9,517.1,385.9z M517.8,407.1c2.6,0,8-1.4,8-9.6c0-6.8-4.2-10.4-8.8-10.4
				c-4.9,0-8.5,3.1-8.5,9.3C508.5,402.9,512.4,407,517.8,407.1L517.8,407.1z"/>
			<path class="st0" d="M564.3,399.7c0,4.2,0.1,5.9,0.6,6.4c0.5,0.5,1.6,0.7,3.9,0.7c1.5,0,2.8,0,3.5-0.9c0.4-0.5,0.6-1,0.7-1.6
				c0-0.2,0.1-0.4,0.3-0.4c0.2,0,0.2,0.1,0.2,0.4c-0.1,1-0.2,1.9-0.4,2.8c-0.2,0.7-0.3,0.8-1.9,0.8c-2.1,0-3.8,0-5.1-0.1
				c-1.4-0.1-2.3-0.1-3.2-0.1c-0.1,0-0.6,0-1.2,0s-1.2,0.1-1.7,0.1c-0.3,0-0.5-0.1-0.5-0.2c0-0.1,0.1-0.2,0.2-0.2c0,0,0,0,0,0
				c0.3,0,0.6-0.1,0.9-0.1c0.6-0.1,0.6-0.7,0.8-1.5c0.2-2,0.2-4.1,0.2-6.2v-5c0-4.4,0-5.2-0.1-6.1s-0.2-1.4-1.2-1.6
				c-0.3,0-0.7-0.1-1-0.1c-0.1,0-0.2-0.1-0.2-0.2c0-0.2,0.1-0.2,0.5-0.2c1.3,0,3.2,0.1,3.4,0.1s2.3-0.1,3.2-0.1
				c0.3,0,0.5,0.1,0.5,0.2c0,0.1-0.1,0.2-0.2,0.2c-0.2,0-0.6,0-1,0.1c-0.9,0.2-1,0.6-1.1,1.6c-0.1,1,0,1.7,0,6.1L564.3,399.7z"/>
			<path class="st0" d="M613.9,385.9c6.6,0,11.6,4,11.6,10.7c0.1,6.3-4.9,11.5-11.2,11.6c-0.2,0-0.4,0-0.7,0
				c-8.1,0-11.5-6.1-11.5-11.2c0.1-6.2,5.2-11.2,11.4-11.1C613.7,385.9,613.8,385.9,613.9,385.9z M614.6,407.1c2.6,0,8-1.4,8-9.6
				c0-6.8-4.1-10.4-8.8-10.4c-4.9,0-8.5,3.1-8.5,9.3C605.3,402.9,609.3,407,614.6,407.1L614.6,407.1z"/>
			<path class="st0" d="M658.5,394.6c0-4.4,0-5.2-0.1-6.1s-0.2-1.4-1.2-1.6c-0.3,0-0.7-0.1-1-0.1c-0.1,0-0.2-0.1-0.2-0.2
				c0-0.2,0.1-0.2,0.5-0.2c1.3,0,3.3,0.1,3.5,0.1s2.8-0.1,3.7-0.1c1.9,0,3.9,0.2,5.5,1.2c1.2,0.9,2,2.3,2,3.9c0,2.1-0.9,4.2-3.6,6.5
				c2.4,3,4.5,5.6,6.2,7.4c1.6,1.6,2.6,1.9,3.3,2c0.3,0.1,0.7,0.1,1,0.1c0.1,0,0.3,0.1,0.3,0.2c0,0.2-0.2,0.2-0.7,0.2h-1.8
				c-1.1,0.1-2.2-0.1-3.1-0.6c-1.3-0.7-2.3-2-4-4.2c-1.2-1.5-2.6-3.4-3.2-4.1c-0.1-0.1-0.2-0.2-0.4-0.2l-3.8-0.1
				c-0.1,0-0.2,0.1-0.2,0.2v0.7c0,2.7,0,5,0.1,6.1c0.1,0.9,0.3,1.4,1.2,1.5c0.4,0.1,0.9,0.1,1.3,0.1c0.1,0,0.2,0.1,0.2,0.2
				c0,0,0,0,0,0.1c0,0.1-0.1,0.2-0.5,0.2c-1.6,0-3.4-0.1-3.6-0.1s-2,0.1-2.9,0.1c-0.3,0-0.5-0.1-0.5-0.2c0-0.1,0.1-0.2,0.2-0.2
				c0,0,0,0,0,0c0.3,0,0.6-0.1,0.9-0.1c0.6-0.1,0.6-0.7,0.8-1.5c0.2-2,0.2-4.1,0.2-6.2L658.5,394.6z M661.1,397
				c0,0.1,0.1,0.3,0.2,0.4c1,0.3,2.1,0.5,3.2,0.4c0.8,0.1,1.5-0.1,2.2-0.5c1-0.7,1.8-2.2,1.8-4.4c0-3.6-1.9-5.6-5.1-5.6
				c-0.7,0-1.4,0.1-2.1,0.2c-0.1,0.1-0.2,0.2-0.2,0.3V397z"/>
			<path class="st0" d="M712.4,386.9c0.4-0.9,0.5-1.1,0.7-1.1s0.4,0.4,0.7,1c0.5,1.2,5.3,12.9,7.1,17.3c1.1,2.6,1.9,2.9,2.5,3.1
				c0.4,0.1,0.8,0.2,1.2,0.2c0.2,0,0.4,0.1,0.4,0.2c0,0.2-0.3,0.2-0.7,0.2c-0.3,0-2.6,0-4.7-0.1c-0.6,0-1,0-1-0.2
				c0-0.2,0.1-0.1,0.2-0.2c0.3-0.1,0.4-0.4,0.3-0.7c0,0,0,0,0-0.1l-2.7-6.5c0-0.1-0.1-0.2-0.3-0.2h-6.8c-0.1,0-0.3,0.1-0.3,0.2
				l-1.7,4.6c-0.3,0.6-0.4,1.3-0.4,1.9c0,0.6,0.5,0.8,1,0.8h0.3c0.2,0,0.3,0.1,0.3,0.2c0,0.1-0.2,0.2-0.4,0.2
				c-0.7,0-2.3-0.1-2.6-0.1c-0.3,0-1.8,0.1-3,0.1c-0.4,0-0.6-0.1-0.6-0.2c0-0.1,0.1-0.2,0.3-0.2c0.3,0,0.6,0,0.9-0.1
				c1.3-0.2,1.9-1.2,2.5-2.6L712.4,386.9z M715.7,398.7c0.1,0,0.1-0.1,0.1-0.2l-2.9-7.8c-0.2-0.4-0.3-0.4-0.5,0l-2.7,7.8
				c0,0.1,0,0.2,0.1,0.2H715.7z"/>
			<path class="st0" d="M755.6,394.6c0-4.4,0-5.2-0.1-6.1s-0.2-1.4-1.2-1.6c-0.3,0-0.7-0.1-1-0.1c-0.1,0-0.2-0.1-0.2-0.2
				c0-0.2,0.1-0.2,0.5-0.2c1.3,0,3.2,0.1,3.4,0.1c0.3,0,2.2-0.1,3.9-0.1c2.9,0,8.3-0.3,11.8,3.3c1.9,1.9,2.9,4.5,2.9,7.2
				c0,3-1.1,5.8-3.2,8c-1.3,1.3-3.9,3.3-8.9,3.3c-1.3,0-2.8-0.1-4.1-0.2s-2.3-0.2-2.4-0.2c-0.1,0-0.6,0-1.2,0s-1.3,0.1-1.8,0.1
				c-0.3,0-0.5-0.1-0.5-0.2c0-0.1,0.1-0.2,0.2-0.2c0,0,0,0,0,0c0.3,0,0.6-0.1,0.9-0.1c0.6-0.1,0.6-0.7,0.8-1.5
				c0.2-2,0.2-4.1,0.2-6.2L755.6,394.6z M758.3,397.7c0,3,0,5.7,0,6.2c0,0.7,0.1,1.4,0.3,2c0.4,0.5,1.4,1.1,4.9,1.1
				c2.5,0.1,5-0.9,6.9-2.6c1.5-1.4,2.3-4.1,2.3-6.8c0.1-2.7-0.9-5.2-2.8-7.1c-2.8-2.8-6-3.2-9.5-3.2c-0.6,0-1.2,0.1-1.8,0.2
				c-0.3,0.1-0.4,0.3-0.4,0.6L758.3,397.7z"/>
			<path class="st0" d="M817.8,385.9c6.6,0,11.6,4,11.6,10.7c0,6.4-4.7,11.6-11.8,11.6c-8.1,0-11.5-6.1-11.5-11.2
				c0.1-6.2,5.2-11.2,11.4-11.1C817.6,385.9,817.7,385.9,817.8,385.9z M818.5,407.1c2.6,0,8-1.4,8-9.6c0-6.8-4.1-10.4-8.8-10.4
				c-4.9,0-8.5,3.1-8.5,9.3C809.2,402.9,813.1,407,818.5,407.1L818.5,407.1z"/>
		</g>
	</g>
</g>
</svg>
