<svg xmlns="http://www.w3.org/2000/svg" viewBox="0 0 407.89 154">
  <defs>
    <style>
      .cls-1 {
        fill: #464a66;
      }

      .cls-2 {
        fill: #44444e;
      }

      .cls-3 {
        fill: #f8991d;
      }
    </style>
  </defs>
  <title>global</title>
  <g id="Layer_2" data-name="Layer 2">
    <g id="Layer_1-2" data-name="Layer 1">
      <g>
        <g>
          <path class="cls-1" d="M184.09,43.12a39.14,39.14,0,0,1-12.82,2.29c-6.32,0-11.52-1.61-15.61-5.51-3.59-3.47-5.82-9-5.82-15.55.07-12.44,8.61-21.54,22.6-21.54a25.8,25.8,0,0,1,10.41,1.92l-1.3,4.39a21.68,21.68,0,0,0-9.23-1.79c-10.15,0-16.78,6.31-16.78,16.78S161.92,41,171.64,41c3.53,0,5.94-.5,7.18-1.12V27.39h-8.48V23.05h13.75Z"/>
          <path class="cls-1" d="M192.14,1h5.45V45h-5.45Z"/>
          <path class="cls-1" d="M233.88,29.74c0,11.08-7.68,15.91-14.93,15.91-8.11,0-14.36-5.94-14.36-15.41,0-10,6.56-15.92,14.86-15.92C228.05,14.32,233.88,20.58,233.88,29.74Zm-23.78.31c0,6.56,3.78,11.52,9.1,11.52s9.1-4.89,9.1-11.64c0-5.08-2.54-11.52-9-11.52S210.1,24.35,210.1,30.05Z"/>
          <path class="cls-1" d="M240.5,45c.13-2,.25-5.07.25-7.74V1h5.39V19.83h.12c1.92-3.34,5.39-5.51,10.22-5.51,7.43,0,12.69,6.19,12.63,15.3,0,10.71-6.75,16-13.44,16-4.33,0-7.8-1.67-10-5.63h-.18L245.21,45Zm5.64-12a9.75,9.75,0,0,0,.25,2,8.4,8.4,0,0,0,8.17,6.38c5.7,0,9.1-4.64,9.1-11.52,0-6-3.09-11.14-8.91-11.14a8.68,8.68,0,0,0-8.3,6.68,10.42,10.42,0,0,0-.31,2.23Z"/>
          <path class="cls-1" d="M292.58,45l-.43-3.77H292a11.16,11.16,0,0,1-9.16,4.45c-6.07,0-9.17-4.27-9.17-8.6,0-7.25,6.44-11.21,18-11.15v-.62c0-2.47-.68-6.93-6.81-6.93a14.88,14.88,0,0,0-7.8,2.23L275.8,17a18.62,18.62,0,0,1,9.85-2.67c9.16,0,11.39,6.26,11.39,12.26V37.79a42.27,42.27,0,0,0,.5,7.18Zm-.8-15.29c-5.95-.12-12.7.93-12.7,6.75a4.82,4.82,0,0,0,5.14,5.2,7.47,7.47,0,0,0,7.25-5,5.79,5.79,0,0,0,.31-1.73Z"/>
          <path class="cls-1" d="M305.84,1h5.45V45h-5.45Z"/>
          <path class="cls-1" d="M187.49,80.85c-.31-5.82-.68-12.82-.62-18h-.18c-1.43,4.89-3.16,10.09-5.27,15.85l-7.37,20.25H170l-6.75-19.88c-2-5.88-3.65-11.27-4.83-16.22h-.13c-.12,5.2-.43,12.2-.8,18.45l-1.11,17.9h-5.14l2.91-41.74H161l7.12,20.19c1.73,5.14,3.16,9.72,4.21,14.05h.19c1.05-4.21,2.54-8.79,4.39-14.05l7.43-20.19h6.88l2.6,41.74h-5.27Z"/>
          <path class="cls-1" d="M218.89,99.18l-.43-3.78h-.19a11.16,11.16,0,0,1-9.16,4.46c-6.07,0-9.17-4.27-9.17-8.61,0-7.24,6.44-11.21,18-11.14v-.62c0-2.48-.68-6.94-6.81-6.94a14.92,14.92,0,0,0-7.8,2.23l-1.24-3.59A18.61,18.61,0,0,1,212,68.53c9.17,0,11.4,6.25,11.4,12.26V92a42.53,42.53,0,0,0,.49,7.19Zm-.81-15.3c-5.94-.12-12.69.93-12.69,6.75a4.82,4.82,0,0,0,5.14,5.2,7.44,7.44,0,0,0,7.24-5,5.6,5.6,0,0,0,.31-1.74Z"/>
          <path class="cls-1" d="M232.14,78.56c0-3.53-.06-6.57-.24-9.35h4.76l.19,5.88h.25c1.36-4,4.64-6.56,8.29-6.56a6.05,6.05,0,0,1,1.55.18v5.14a8.4,8.4,0,0,0-1.85-.18c-3.84,0-6.57,2.91-7.31,7a14.76,14.76,0,0,0-.25,2.54v16h-5.39Z"/>
          <path class="cls-1" d="M258,83h.12c.75-1,1.8-2.35,2.66-3.4l8.8-10.34h6.56L264.59,81.53l13.19,17.65h-6.62L260.81,84.81,258,87.91V99.18h-5.39v-44H258Z"/>
          <path class="cls-1" d="M284.72,85.18c.12,7.37,4.83,10.41,10.28,10.41A19.85,19.85,0,0,0,303.3,94l.92,3.9a24.21,24.21,0,0,1-10,1.86c-9.22,0-14.73-6.07-14.73-15.11s5.32-16.16,14.05-16.16c9.79,0,12.39,8.6,12.39,14.11a20.57,20.57,0,0,1-.19,2.54Zm16-3.9c.07-3.47-1.42-8.85-7.55-8.85-5.51,0-7.93,5.08-8.36,8.85Z"/>
          <path class="cls-1" d="M319.27,60.6v8.61h7.81v4.15h-7.81V89.52c0,3.71,1.06,5.82,4.09,5.82a12.37,12.37,0,0,0,3.16-.37l.25,4.08a13.22,13.22,0,0,1-4.83.75,7.59,7.59,0,0,1-5.89-2.29c-1.54-1.61-2.1-4.28-2.1-7.81V73.36H309.3V69.21H314V62Z"/>
          <path class="cls-1" d="M339.28,60.79a3.38,3.38,0,0,1-6.75,0,3.32,3.32,0,0,1,3.4-3.41A3.24,3.24,0,0,1,339.28,60.79Zm-6.07,38.39v-30h5.45v30Z"/>
          <path class="cls-1" d="M347.7,77.32c0-3.1-.06-5.64-.25-8.11h4.83l.31,5h.12a11,11,0,0,1,9.91-5.63c4.15,0,10.59,2.47,10.59,12.75v17.9h-5.45V81.9c0-4.83-1.79-8.85-6.93-8.85a8,8,0,0,0-7.68,8.11v18H347.7Z"/>
          <path class="cls-1" d="M407.89,69.21c-.13,2.16-.25,4.58-.25,8.23v17.4c0,6.88-1.36,11.09-4.27,13.69s-7.12,3.59-10.9,3.59c-3.59,0-7.55-.87-10-2.48l1.36-4.15a16.89,16.89,0,0,0,8.8,2.36c5.57,0,9.66-2.91,9.66-10.47V94h-.13a10.7,10.7,0,0,1-9.53,5c-7.43,0-12.76-6.31-12.76-14.61,0-10.16,6.63-15.91,13.5-15.91,5.2,0,8.05,2.72,9.35,5.2h.12l.25-4.52ZM402.25,81a7.67,7.67,0,0,0-.31-2.47,7.84,7.84,0,0,0-7.61-5.76c-5.2,0-8.92,4.4-8.92,11.33,0,5.88,3,10.77,8.86,10.77a8,8,0,0,0,7.55-5.57,9.46,9.46,0,0,0,.43-2.91Z"/>
          <path class="cls-1" d="M151.58,146.82a19.12,19.12,0,0,0,9.66,2.72c5.51,0,8.73-2.91,8.73-7.12,0-3.9-2.23-6.13-7.87-8.3-6.81-2.41-11-5.94-11-11.82,0-6.5,5.39-11.33,13.5-11.33a19,19,0,0,1,9.23,2l-1.49,4.4a16.52,16.52,0,0,0-7.93-2c-5.69,0-7.86,3.41-7.86,6.26,0,3.9,2.54,5.82,8.3,8,7.06,2.72,10.65,6.13,10.65,12.26,0,6.44-4.77,12-14.61,12-4,0-8.43-1.18-10.66-2.66Z"/>
          <path class="cls-1" d="M186.07,139.39c.12,7.37,4.83,10.4,10.28,10.4a19.69,19.69,0,0,0,8.3-1.55l.93,3.9a24.25,24.25,0,0,1-10,1.86c-9.23,0-14.74-6.07-14.74-15.11s5.32-16.16,14-16.16c9.79,0,12.39,8.61,12.39,14.12a20.91,20.91,0,0,1-.19,2.54Zm16-3.9c.06-3.47-1.43-8.86-7.56-8.86-5.51,0-7.92,5.08-8.36,8.86Z"/>
          <path class="cls-1" d="M214.06,132.76c0-3.53-.06-6.56-.25-9.35h4.77l.19,5.88H219c1.37-4,4.65-6.56,8.3-6.56a5.67,5.67,0,0,1,1.55.19v5.14a7.83,7.83,0,0,0-1.86-.19c-3.84,0-6.56,2.91-7.3,7a14.66,14.66,0,0,0-.25,2.54v16h-5.39Z"/>
          <path class="cls-1" d="M238,123.41l5.89,16.84a78.45,78.45,0,0,1,2.41,7.68h.19c.68-2.47,1.55-5,2.54-7.68l5.82-16.84h5.69l-11.76,30h-5.2l-11.4-30Z"/>
          <path class="cls-1" d="M271.71,115a3.21,3.21,0,0,1-3.46,3.34A3.24,3.24,0,0,1,265,115a3.32,3.32,0,0,1,3.41-3.4A3.23,3.23,0,0,1,271.71,115Zm-6.06,38.39v-30h5.44v30Z"/>
          <path class="cls-1" d="M301.5,152.27a20.15,20.15,0,0,1-8.61,1.73c-9,0-14.92-6.13-14.92-15.29s6.32-15.92,16.1-15.92a18.21,18.21,0,0,1,7.55,1.55l-1.24,4.21a12.65,12.65,0,0,0-6.31-1.42c-6.87,0-10.59,5.07-10.59,11.33,0,6.93,4.46,11.21,10.4,11.21a15.49,15.49,0,0,0,6.69-1.49Z"/>
          <path class="cls-1" d="M310.54,139.39c.13,7.37,4.83,10.4,10.28,10.4a19.66,19.66,0,0,0,8.3-1.55l.93,3.9a24.21,24.21,0,0,1-10,1.86c-9.23,0-14.74-6.07-14.74-15.11s5.33-16.16,14.06-16.16c9.78,0,12.38,8.61,12.38,14.12a21.35,21.35,0,0,1-.18,2.54Zm16-3.9c.06-3.47-1.43-8.86-7.56-8.86-5.51,0-7.92,5.08-8.36,8.86Z"/>
          <path class="cls-1" d="M337.79,147.81A14.31,14.31,0,0,0,345,150c4,0,5.82-2,5.82-4.46s-1.54-4-5.57-5.51c-5.39-1.92-7.92-4.9-7.92-8.49,0-4.83,3.9-8.79,10.34-8.79a14.94,14.94,0,0,1,7.36,1.86l-1.36,4a11.66,11.66,0,0,0-6.13-1.73c-3.22,0-5,1.86-5,4.08,0,2.48,1.79,3.6,5.69,5.08,5.2,2,7.87,4.58,7.87,9,0,5.27-4.09,9-11.21,9a17.06,17.06,0,0,1-8.42-2Z"/>
        </g>
        <polygon class="cls-2" points="49.29 153.84 120.69 153.84 120.69 82.44 120.69 46.75 84.99 46.75 84.99 82.44 49.29 82.44 49.29 118.14 13.6 118.14 13.6 153.84 49.29 153.84"/>
        <polygon class="cls-3" points="35.7 107.09 35.7 71.39 71.39 71.39 71.39 35.7 107.09 35.7 107.09 0 71.39 0 0 0 0 71.39 0 107.09 35.7 107.09"/>
      </g>
    </g>
  </g>
</svg>
