<svg xmlns="http://www.w3.org/2000/svg" viewBox="0 0 510.38 347.09"><defs><style>.cls-1{fill:#c00;fill-rule:evenodd;}.cls-2{fill:#999;}</style></defs><title>JH-half</title><g id="Layer_2" data-name="Layer 2"><g id="Layer_1-2" data-name="Layer 1"><path class="cls-1" d="M282.06,102.49c-1.05-5.2-.92-11.18-4.86-12.21-3.1-.83-5.81,2.62-9.72,2.65-1.57-.81-2.72-2.42-4-3.71s-2.37-3-3.54-4.25c-2.52-2.76-5.73-4.9-7.07-9-5.21-.6-6.59-3-9.28-6.9-1.37-2-3.11-4.22-4-5.84-.27-.5-.35-2.08-.88-3.18-1.61-3.35-2.85-5.53-7.07-4.78-1.47.36-.5,3.65-1.77,4.25-4.82.93-5.86,6.41-9.72,8.5-2.48-.14-4.8-.1-6.18,1.07-1.79,0,0,4.26-1.78,4.25-3.92.83-4.94,3.64-9.27,1.59-2.54.66-2.72,6-5.3,6.9-1.67.58-3.1-.3-5.3-1.06-.51.79-.55,2.17-1.33,2.66.05-1.49-.12-1.06-.44-1.07C188,82.24,187,84,184.43,83.9c-1.68-.08-.21-1.67-1.33,0-.3.46-.48-1.08-.43-1.06-1.64-.84-2.65-1.18-4,0-1.6,1.41-1.69,3.25-2.6,6.71H183V227.38q0,9.81-.48,20.55a96.28,96.28,0,0,1-3.32,21.18A82.51,82.51,0,0,1,170.8,289a54.63,54.63,0,0,1-15.65,16.75,73.51,73.51,0,0,1-19,9.48h59.3V89.56h61.86v84.72h49.25v-61.8C298.62,108.88,292,103.69,282.06,102.49Z"/><path class="cls-1" d="M256.78,217.27h0a37.71,37.71,0,0,1,10.31,2,32.42,32.42,0,0,1,10.53,6,28.29,28.29,0,0,1,7.23,9.56,29.46,29.46,0,0,1,2.69,12.75,32.47,32.47,0,0,1-1.38,9.77,30,30,0,0,1-3.72,7.83,37.56,37.56,0,0,1-5.43,6.37,58.76,58.76,0,0,1-6.68,5.4q-3.58,2.5-7.37,4.92t-7.43,5.06q-3.65,2.64-7,5.61a37.86,37.86,0,0,0-6,6.72H288.1v16h18.47v-98Z"/><path class="cls-1" d="M509.58,145.5c-2.95-3-4.64-3.91-8.4-6.37-2-1.34-3.81-3-5.74-3.19s-3.4.77-5.3,1.06a103.9,103.9,0,0,1-18.56,1.06c-2.82-1.71-2.64-5.61-5.73-6.38-2.13-.52-3.1.87-5.31,1.59-1.55.52-3.58.34-4.85,1.6-2-2-3.4-4.77-7.07-4.78-.52-3.77-4.24-3.44-6.19-5.31-1.16-1.12-1.8-2.83-2.65-4.25s-2.84-2.92-2.21-5.31c-1.87-1.37-3.23-1.4-4.41-4.24-1.4-3.39.38-8.86-4.86-6.92-2.12.46-.45,5.49-3.09,5.32-4.4-3.39-7-8.92-6.19-18.58-1.68-1.68-3.7-2-5.3-3.72-1-1.11-2-4-3.54-6.37-2.38-3.65-4.58-4.94-5.31-9-3.48-1.5-6.68-4.7-11-3.72-3.67.84-4,4.44-6.62,6.38-2.54-.23-4.46-1.58-6.62-1.06-1,.24-.73,1-2.21,2.12-1,.78-2.7.66-3.1,1.06s-1.29,2.81-1.77,3.72c-1,1.84-1.8,2.78-1.77,4.25-.71-.8-3.26-.8-4,0-1.26,1.1-1.65,3.26-2.29,5.12h2.42v225.7H510.38v-168C509.67,146.36,510.47,146.44,509.58,145.5Z"/><path class="cls-1" d="M52.1,229.59V245.4q0,16.12,8.85,25.6t24.34,9.48q11.69,0,19-3.32a24.56,24.56,0,0,0,11.06-9.48,38.27,38.27,0,0,0,5.06-14.38A121.87,121.87,0,0,0,121.64,235V89.56h47.53A14.84,14.84,0,0,0,168.09,86c-1.08-2.18-3-3.46-3.54-5.84-3.4-.79-7.71-4.33-9.28-9-3.92-.41-6.27-2.71-8.83-4.78-.93-7.38-7.11-8.45-5.75-18.59-1-2.53-2.71-4.15-3.09-7.44-1.42-.23-3.81.7-4-1.06V34c-2.67-2.44-2.88-7.85-5.29-10.61-1.11-4-.08-8-.89-11.16-.59-2.28-2.63-3.28-3.53-5.31-.83-1.86-.23-3.29-1.32-4.78-1.67.23-2-1.13-2.65-2.12H112c-2.56,1.52-4.35,4-8.84,3.19-1.71-.29-1,2.29-2.21,2.65-2.4-1.43-4.86.12-7.07.54-1.4,1.15-1.49,3.85-2.65,5.3H86.8c-2.49.78-2.23,4.34-3.53,6.38s-3.43,2.42-4.42,4.78a7,7,0,0,0-3.54-.53c-2.16,1.29-2.07,4.36-3.53,6.37C70.08,31,67.15,32,65.6,34.51a17.3,17.3,0,0,1-1.77,6.91c-.66,1.61-2.45.5-3.53,1.06s-2.19,2.64-3.53,3.72c-1.88,1.51-3.14,1.51-4,2.65-1,1.42-.66,3.75-2.2,4.79.62,5.89-1.87,8-2.65,12.22a3.45,3.45,0,0,1-3.53,1.06,37.74,37.74,0,0,1-2.21,3.18c-.87,1-2,1.15-2.65,2.12-1,1.43-1.13,3.83-2.21,5.31-2.12,2.91-5.57,4.28-8,6.9.69,7.82-5.6,9.41-10.6,12.21-1.69,1-3.3,2.26-4.86,3.19-3.79,2.27-6.34,2.72-11.1,4.78v125Z"/><path class="cls-1" d="M21.59,306.73A61.18,61.18,0,0,1,2.81,288.88v26.38H40.74A85.71,85.71,0,0,1,21.59,306.73Z"/><path class="cls-2" d="M257.31,174.27H240.26V119.49H219.12V106.64a40.23,40.23,0,0,0,8.59-.66,23.06,23.06,0,0,0,7.5-2.76A17.44,17.44,0,0,0,240.8,98a20.86,20.86,0,0,0,2.94-8.43h13.57Z"/><path class="cls-2" d="M219.53,256.42A46.77,46.77,0,0,1,221.46,241a36,36,0,0,1,6.61-12.47,30,30,0,0,1,11.08-8.31,37.34,37.34,0,0,1,15.35-3,38.13,38.13,0,0,1,12.6,2.08,32.42,32.42,0,0,1,10.53,6,28.29,28.29,0,0,1,7.23,9.56,29.46,29.46,0,0,1,2.69,12.75,32.47,32.47,0,0,1-1.38,9.77,30,30,0,0,1-3.72,7.83,37.56,37.56,0,0,1-5.43,6.37,58.76,58.76,0,0,1-6.68,5.4q-3.58,2.5-7.37,4.92t-7.43,5.06q-3.65,2.64-7,5.61a37.86,37.86,0,0,0-6,6.72H288.1v16H217.33a35.86,35.86,0,0,1,2.41-13.8,39.2,39.2,0,0,1,6.54-11.15,57.32,57.32,0,0,1,9.71-9.08q5.57-4.16,11.77-8.45,3.17-2.22,6.75-4.5a44.72,44.72,0,0,0,6.54-5.06,27,27,0,0,0,5-6.24,15.56,15.56,0,0,0,2-7.9q0-6.93-4.07-10.95a14.16,14.16,0,0,0-10.39-4,12.2,12.2,0,0,0-7.3,2.08,16.07,16.07,0,0,0-4.68,5.26A23.48,23.48,0,0,0,239,248.6a41.54,41.54,0,0,0-.76,7.83Z"/><path class="cls-2" d="M6.75,328.18H0V324H18.46v4.17H11.71v18.37h-5Z"/><path class="cls-2" d="M17.89,324h5v8.65H32V324h5v22.54H32v-9.72H22.85v9.72h-5Z"/><path class="cls-2" d="M38.12,324H55v4.17H43.09V333H54v3.85H43.09v5.52H55.24v4.17H38.12Z"/><path class="cls-2" d="M74.24,339.45a14.2,14.2,0,0,1-.1,1.58,9.25,9.25,0,0,1-.36,1.71,6.48,6.48,0,0,1-.78,1.62,5.28,5.28,0,0,1-1.34,1.39,6.62,6.62,0,0,1-2.06,1,10,10,0,0,1-2.88.37A9.53,9.53,0,0,1,64,346.7a6.59,6.59,0,0,1-2.37-1.25,6.16,6.16,0,0,1-1.67-2.16,7.26,7.26,0,0,1-.63-3.17v-2h4.48v1a8.49,8.49,0,0,0,.13,1.51,3.13,3.13,0,0,0,.44,1.18,2.22,2.22,0,0,0,.87.77,3.12,3.12,0,0,0,1.44.29,2.81,2.81,0,0,0,1.51-.35,2,2,0,0,0,.77-.9,3.57,3.57,0,0,0,.29-1.2c0-.43,0-.85,0-1.25V324h5Z"/><path class="cls-2" d="M81.59,324h5.08l8.43,22.54H90l-1.71-5H79.82l-1.77,5H73Zm-.47,13.83H87l-2.84-8.27h-.06Z"/><path class="cls-2" d="M108.93,331.59a4.09,4.09,0,0,0-.57-1.56,5,5,0,0,0-1.1-1.25,5.19,5.19,0,0,0-1.5-.83,5.13,5.13,0,0,0-1.75-.3,5.8,5.8,0,0,0-2.84.65,5.44,5.44,0,0,0-1.9,1.73,7.77,7.77,0,0,0-1.06,2.48,12.24,12.24,0,0,0-.33,2.87,11.38,11.38,0,0,0,.33,2.76,7.58,7.58,0,0,0,1.06,2.42,5.41,5.41,0,0,0,1.9,1.72,5.79,5.79,0,0,0,2.84.65,4.57,4.57,0,0,0,3.55-1.4,6.5,6.5,0,0,0,1.56-3.65h4.79a11.4,11.4,0,0,1-1,3.82,8.92,8.92,0,0,1-5.11,4.75,10.77,10.77,0,0,1-3.82.65,11.28,11.28,0,0,1-4.67-.92,10.17,10.17,0,0,1-3.47-2.49A11,11,0,0,1,93.68,340a13.76,13.76,0,0,1-.76-4.58,14.23,14.23,0,0,1,.76-4.67,11.28,11.28,0,0,1,2.18-3.79,10,10,0,0,1,3.47-2.52,12.15,12.15,0,0,1,8.19-.38,9.53,9.53,0,0,1,3,1.56,8.48,8.48,0,0,1,2.17,2.54,9.25,9.25,0,0,1,1.07,3.47Z"/><path class="cls-2" d="M114.13,324h5v9.34l8.81-9.34h6.19l-8.8,8.9,9.66,13.64h-6.21l-6.79-10.13-2.84,2.87v7.26h-5Z"/><path class="cls-2" d="M137.14,339.07a4.14,4.14,0,0,0,.41,1.92,3.58,3.58,0,0,0,1.09,1.28,4.75,4.75,0,0,0,1.58.73,7.42,7.42,0,0,0,1.91.24,9.81,9.81,0,0,0,1.42-.11,4.89,4.89,0,0,0,1.42-.43,3.08,3.08,0,0,0,1.1-.87,2.2,2.2,0,0,0,.44-1.41,2,2,0,0,0-.58-1.48,5,5,0,0,0-1.53-1,13.33,13.33,0,0,0-2.14-.66c-.8-.18-1.61-.38-2.43-.61a21.79,21.79,0,0,1-2.46-.78,8.23,8.23,0,0,1-2.14-1.18,5.58,5.58,0,0,1-1.53-1.8,5.5,5.5,0,0,1-.58-2.65,5.93,5.93,0,0,1,.74-3,6.75,6.75,0,0,1,1.94-2.13,8.54,8.54,0,0,1,2.71-1.26,11.7,11.7,0,0,1,3-.41,14.4,14.4,0,0,1,3.39.39,8.55,8.55,0,0,1,2.89,1.28,6.5,6.5,0,0,1,2,2.26,6.93,6.93,0,0,1,.74,3.33h-4.8a4,4,0,0,0-.43-1.67,2.78,2.78,0,0,0-1-1,4.12,4.12,0,0,0-1.39-.54,8.76,8.76,0,0,0-1.68-.16,6.14,6.14,0,0,0-1.2.13,3.21,3.21,0,0,0-1.09.44,2.78,2.78,0,0,0-.81.81,2.16,2.16,0,0,0-.31,1.18,2,2,0,0,0,.25,1.07,2.12,2.12,0,0,0,1,.74,14.81,14.81,0,0,0,2.05.69q1.31.37,3.43.9l1.07.27a12.47,12.47,0,0,1,1.4.47,9.7,9.7,0,0,1,1.49.77,6.69,6.69,0,0,1,1.36,1.17,5.65,5.65,0,0,1,1,1.66,6,6,0,0,1,.38,2.23,6.94,6.94,0,0,1-.6,2.87,6.28,6.28,0,0,1-1.78,2.29,8.75,8.75,0,0,1-2.94,1.51,13.41,13.41,0,0,1-4.05.55,13.79,13.79,0,0,1-3.61-.47,9.11,9.11,0,0,1-3.08-1.45,7.31,7.31,0,0,1-2.13-2.5,7.39,7.39,0,0,1-.77-3.59Z"/><path class="cls-2" d="M150.11,335.38a14.13,14.13,0,0,1,.76-4.67,11.34,11.34,0,0,1,2.18-3.79,10,10,0,0,1,3.47-2.52,12.39,12.39,0,0,1,9.34,0,10,10,0,0,1,3.47,2.52,11.26,11.26,0,0,1,2.18,3.79,14.13,14.13,0,0,1,.76,4.67,13.66,13.66,0,0,1-.76,4.58,10.94,10.94,0,0,1-2.18,3.72,10.18,10.18,0,0,1-3.47,2.49,12.33,12.33,0,0,1-9.34,0,10.19,10.19,0,0,1-3.47-2.49,11,11,0,0,1-2.18-3.72A13.66,13.66,0,0,1,150.11,335.38Zm5,0a11.51,11.51,0,0,0,.33,2.76,7.53,7.53,0,0,0,1.06,2.42,5.42,5.42,0,0,0,1.9,1.72,6.55,6.55,0,0,0,5.68,0,5.42,5.42,0,0,0,1.9-1.72,7.5,7.5,0,0,0,1.06-2.42,11.44,11.44,0,0,0,.33-2.76,12.32,12.32,0,0,0-.33-2.87,7.69,7.69,0,0,0-1.06-2.48,5.46,5.46,0,0,0-1.9-1.73,6.55,6.55,0,0,0-5.68,0,5.45,5.45,0,0,0-1.9,1.73,7.72,7.72,0,0,0-1.06,2.48A12.39,12.39,0,0,0,155.07,335.38Z"/><path class="cls-2" d="M172.49,324h4.93l9.41,15.12h.06V324h4.64v22.54h-5l-9.37-15.09h-.06v15.09h-4.64Z"/><path class="cls-2" d="M198.34,324h5v8.65h9.12V324h5v22.54h-5v-9.72H203.3v9.72h-5Z"/><path class="cls-2" d="M217.6,335.38a14.17,14.17,0,0,1,.75-4.67,11.28,11.28,0,0,1,2.18-3.79A10,10,0,0,1,224,324.4a12.4,12.4,0,0,1,9.35,0,10.08,10.08,0,0,1,3.47,2.52,11.21,11.21,0,0,1,2.17,3.79,14,14,0,0,1,.76,4.67A13.55,13.55,0,0,1,239,340a10.9,10.9,0,0,1-2.17,3.72,10.22,10.22,0,0,1-3.47,2.49,12.34,12.34,0,0,1-9.35,0,10.15,10.15,0,0,1-3.47-2.49,11,11,0,0,1-2.18-3.72A13.7,13.7,0,0,1,217.6,335.38Zm5,0a11.57,11.57,0,0,0,.33,2.76,7.45,7.45,0,0,0,1.06,2.42,5.35,5.35,0,0,0,1.9,1.72,6.55,6.55,0,0,0,5.68,0,5.41,5.41,0,0,0,1.89-1.72,7.46,7.46,0,0,0,1.06-2.42,11.61,11.61,0,0,0,.32-2.76,12.5,12.5,0,0,0-.32-2.87,7.65,7.65,0,0,0-1.06-2.48,5.45,5.45,0,0,0-1.89-1.73,6.55,6.55,0,0,0-5.68,0,5.39,5.39,0,0,0-1.9,1.73,7.64,7.64,0,0,0-1.06,2.48A12.45,12.45,0,0,0,222.55,335.38Z"/><path class="cls-2" d="M240,324h5v18.37h11v4.17H240Z"/><path class="cls-2" d="M255.54,324h16.85v4.17h-11.9V333h10.92v3.85H260.49v5.52h12.15v4.17H255.54Z"/><path class="cls-2" d="M278.45,324h5v8.65h9.12V324h5v22.54h-5v-9.72h-9.12v9.72h-5Z"/><path class="cls-2" d="M304.84,324h5.08l8.43,22.54h-5.14l-1.71-5h-8.43l-1.77,5h-5Zm-.47,13.83h5.84l-2.84-8.27h-.06Z"/><path class="cls-2" d="M317.15,324h5v18.37h11v4.17H317.15Z"/><path class="cls-2" d="M332.71,324h15.85v4.17H337.66v5.21h9.44v3.85h-9.44v9.31h-5Z"/><path class="cls-2" d="M353.89,324h7l5.27,15.5h.06l5-15.5h7v22.54h-4.64v-16h-.06l-5.52,16h-3.82l-5.53-15.81h-.06v15.81h-4.64Z"/><path class="cls-2" d="M385.51,324h5.08L399,346.55h-5.14l-1.71-5h-8.43l-1.77,5h-5ZM385,337.85h5.84L388,329.57H388Z"/><path class="cls-2" d="M397.83,324H410a7.22,7.22,0,0,1,2.73.49,6.26,6.26,0,0,1,2.09,1.34,5.83,5.83,0,0,1,1.32,2,6.38,6.38,0,0,1,.46,2.4,6.77,6.77,0,0,1-.84,3.44,5.23,5.23,0,0,1-2.73,2.21v.06a3.81,3.81,0,0,1,1.52.77,4.32,4.32,0,0,1,1,1.25,5.91,5.91,0,0,1,.55,1.56,12.85,12.85,0,0,1,.24,1.69c0,.36,0,.78.06,1.26s.06,1,.12,1.47a9.75,9.75,0,0,0,.25,1.43,3.33,3.33,0,0,0,.52,1.17h-5a5.48,5.48,0,0,1-.34-1.18c-.08-.43-.13-.88-.19-1.36s-.09-1-.12-1.45-.08-1-.14-1.41a4.45,4.45,0,0,0-1.08-2.58,3.66,3.66,0,0,0-2.68-.83h-5v8.81h-5Zm5,10.19h5.43a3.78,3.78,0,0,0,2.54-.75,3.13,3.13,0,0,0,.86-2.46,3,3,0,0,0-.86-2.39,3.85,3.85,0,0,0-2.54-.74h-5.43Z"/><path class="cls-2" d="M423.62,324h5.08l8.43,22.54H432l-1.7-5h-8.43l-1.76,5h-5Zm-.48,13.83H429l-2.84-8.27h-.06Z"/><path class="cls-2" d="M438.57,328.18h-6.75V324h18.46v4.17h-6.76v18.37h-5Z"/><path class="cls-2" d="M449.72,324h5v8.65h9.12V324h5v22.54h-5v-9.72h-9.12v9.72h-5Z"/><path class="cls-2" d="M469,335.38a14.17,14.17,0,0,1,.75-4.67,11.36,11.36,0,0,1,2.18-3.79,10,10,0,0,1,3.47-2.52,12.4,12.4,0,0,1,9.35,0,10.08,10.08,0,0,1,3.47,2.52,11.19,11.19,0,0,1,2.17,3.79,14,14,0,0,1,.76,4.67,13.58,13.58,0,0,1-.76,4.58,10.87,10.87,0,0,1-2.17,3.72,10.22,10.22,0,0,1-3.47,2.49,12.34,12.34,0,0,1-9.35,0,10.18,10.18,0,0,1-3.47-2.49,11,11,0,0,1-2.18-3.72A13.7,13.7,0,0,1,469,335.38Zm4.95,0a11.5,11.5,0,0,0,.34,2.76,7.46,7.46,0,0,0,1.06,2.42,5.42,5.42,0,0,0,1.89,1.72,6.57,6.57,0,0,0,5.69,0,5.42,5.42,0,0,0,1.89-1.72,7.47,7.47,0,0,0,1.06-2.42,11.3,11.3,0,0,0,.33-2.76,12.16,12.16,0,0,0-.33-2.87,7.66,7.66,0,0,0-1.06-2.48,5.46,5.46,0,0,0-1.89-1.73,6.57,6.57,0,0,0-5.69,0,5.46,5.46,0,0,0-1.89,1.73,7.64,7.64,0,0,0-1.06,2.48A12.37,12.37,0,0,0,473.92,335.38Z"/><path class="cls-2" d="M491.35,324h4.92l9.41,15.12h.07V324h4.64v22.54h-5L496,331.47H496v15.09h-4.64Z"/></g></g></svg>