<?xml version="1.0" encoding="utf-8"?>
<!-- Generator: Adobe Illustrator 22.1.0, SVG Export Plug-In . SVG Version: 6.00 Build 0)  -->
<svg version="1.1" id="Layer_1" xmlns="http://www.w3.org/2000/svg" xmlns:xlink="http://www.w3.org/1999/xlink" x="0px" y="0px"
	 viewBox="0 0 615.4 263" style="enable-background:new 0 0 615.4 263;" xml:space="preserve">
<style type="text/css">
	.st0{fill:#3C3C77;}
	.st1{fill:#FE8E1E;}
</style>
<title>legacyplan</title>
<g id="Layer_2_1_">
	<g id="Layer_1-2">
		<g id="Layer_2-2">
			<g id="Layer_1-2-2">
				<g>
					<path class="st0" d="M93.5,196c0-1.8-0.6-2.9-1.7-3.1c-1.5-0.3-3-0.4-4.5-0.4H0v-3.3c3.7,0,5.5-1.1,5.5-3.3v-83.3
						c0-2.2-1.8-3.3-5.5-3.3V96h31.5v3.3c-3.4,0-5.1,1.1-5.1,3.3v73h60.9c1.6,0.1,3.2-0.4,4.5-1.3c1.1-0.8,1.8-2.1,1.7-3.5h3.3V196
						H93.5z"/>
					<path class="st0" d="M186.1,128.9c0-2.3-1.9-3.5-5.7-3.5h-44.7v18.3h28.2c1.5,0.1,3.1-0.1,4.6-0.5c1-0.3,1.5-1.1,1.5-2.5h3.3
						v19.4h-3.7c0.4-0.9,0-1.9-0.9-2.3c-0.2-0.1-0.4-0.1-0.6-0.2c-1.9-0.4-3.8-0.5-5.7-0.5h-26.8v21.6h46.9c1.3,0.1,2.6-0.3,3.7-1
						c0.9-0.6,1.5-1.6,1.5-2.7h3.3v19.3h-3.3c0.1-0.9-0.5-1.7-1.3-1.8c0,0-0.1,0-0.1,0c-1.2-0.1-2.4-0.2-3.7-0.2h-67.2v-3.3
						c0.7,0,1.3-0.2,1.8-0.6c0.6-0.5,1-1.3,0.9-2.1v-68.6c0.1-0.8-0.3-1.6-0.9-2.1c-0.5-0.4-1.2-0.6-1.8-0.6v-3.3h65.1
						c3.8,0,5.7-1.1,5.7-3.3h3.3v20.4H186.1z"/>
					<path class="st0" d="M288.6,138.4l-2.2-1.3c0.2-1.2,0.4-1.9,0.4-2c0-1.1-0.8-2.3-2.4-3.6c-1.9-1.5-4-2.7-6.2-3.6
						c-2.8-1.2-5.7-2.1-8.7-2.7c-3.2-0.7-6.5-1-9.8-1c-4.3,0-8.6,0.5-12.8,1.6c-3.8,1-7.4,2.7-10.6,5c-3.1,2.3-5.6,5.3-7.3,8.7
						c-1.9,4.1-2.9,8.5-2.8,13c-0.1,4.5,0.9,8.9,2.9,12.9c1.8,3.4,4.5,6.2,7.6,8.4c3.2,2.2,6.7,3.7,10.4,4.7c3.6,1,7.3,1.4,11,1.5
						c5,0,10-0.3,14.9-1.1c4.5-0.7,8.9-2.1,12.9-4.2v-11.5h-18.9c-1.2,0-2.4,0.3-3.5,0.8c-1,0.7-1.7,1.8-1.8,3h-3.3v-18.9h3.3
						c0.1,1.1,0.8,2,1.8,2.4c1.1,0.4,2.3,0.6,3.5,0.6h35.9v3.3c-0.9,0.3-1.6,0.9-2.2,1.6c-0.4,0.9-0.6,1.8-0.5,2.8v17.4
						c-0.1,0.8,0.1,1.6,0.5,2.3c0.6,0.6,1.4,1.1,2.3,1.4v2.2c-1.1,0.7-2.8,1.7-5.2,3c-2.9,1.5-5.9,2.8-9,3.8
						c-4.1,1.3-8.3,2.3-12.6,3c-5.3,0.8-10.6,1.3-15.9,1.2c-7.3,0.1-14.5-0.8-21.5-2.7c-5.9-1.5-11.5-4.3-16.3-8
						c-4.4-3.4-7.9-7.8-10.3-12.9c-4.8-11.1-4.8-23.6,0-34.6c2.4-5.1,5.9-9.5,10.3-13c4.8-3.8,10.4-6.6,16.3-8.2
						c7-2,14.3-2.9,21.5-2.8c4.3-0.1,8.5,0.4,12.7,1.3c3.2,0.7,6.4,1.6,9.5,2.8c2.3,0.8,4.6,1.7,6.8,2.8c1.2,0.7,2.5,1.1,3.9,1.3
						c0.7,0,1.5-0.1,2.2-0.3c0.7-0.3,1.3-0.7,1.8-1.2l2.2,1.1L288.6,138.4z"/>
					<path class="st0" d="M317,189.2c1.4-0.2,2.7-1,3.6-2.1c0.8-1,1.5-2.1,2.1-3.2l27.3-59.6c0.7-1.7,1.3-3.1,1.7-4.1
						c0.4-0.9,0.6-2,0.6-3c0-0.7-0.2-1.2-0.5-1.4s-0.6-0.4-1-0.6v-3.3h27.7v3.3c-0.4,0.2-0.8,0.4-1.2,0.6c-0.4,0.1-0.6,0.6-0.6,1.5
						c0.1,0.9,0.3,1.9,0.8,2.7c0.5,1,1.1,2.2,1.7,3.6l29.7,62.3c0.5,0.9,1.2,1.8,2,2.4c0.7,0.5,1.5,0.9,2.4,1.1v3.3h-26v-2.8
						c0.7,0,1.3-0.2,1.9-0.6c0.7-0.4,1.1-1.2,1-2c0-0.7-0.1-1.4-0.4-2c-0.2-0.6-0.6-1.4-0.9-2.4l-5-10.4h-39.2l-5.1,9.9
						c-0.5,1-0.9,1.9-1.2,2.7c-0.3,0.7-0.4,1.4-0.5,2.1c0,1,0.3,1.6,0.9,1.8c0.8,0.3,1.7,0.4,2.6,0.4v3.3H317V189.2z M378.2,158.8
						l-14.9-30.8l-13,30.8H378.2z"/>
					<path class="st0" d="M494.8,134.9c0-0.2,0-0.5-0.1-0.7c-0.1-0.3-0.1-0.6-0.1-0.9c0-0.6-0.6-1.4-1.8-2.5c-1.6-1.2-3.3-2.3-5.2-3
						c-2.6-1.1-5.3-1.9-8-2.5c-3.3-0.7-6.7-1-10.1-1c-4.1,0-8.1,0.5-12,1.7c-3.5,1.1-6.7,2.9-9.4,5.2c-2.7,2.4-4.8,5.3-6.2,8.6
						c-1.5,3.7-2.3,7.7-2.2,11.7c-0.1,4.1,0.8,8.1,2.5,11.8c1.6,3.4,3.8,6.4,6.5,9c2.7,2.5,5.8,4.4,9.2,5.7
						c3.3,1.2,6.9,1.9,10.4,1.9c3.4,0,6.8-0.4,10.1-1.3c3.2-0.8,6.3-1.8,9.4-3c2.4-1,4.8-2.2,6.9-3.8c1.8-1.3,2.7-2.6,2.7-3.7v-1.5
						c0-0.6-0.1-1.2-0.2-1.8l2-1.8l13.6,19.4l-1.8,0.9c-1-0.5-2-0.8-3.1-0.9c-1.7,0.2-3.3,0.8-4.8,1.6c-2.2,1.1-5,2.4-8.3,3.8
						c-3.8,1.5-7.7,2.7-11.7,3.6c-4.9,1-9.9,1.5-14.9,1.4c-5.6,0-11.3-0.8-16.7-2.4c-10.9-3-20-10.5-25.1-20.6
						c-2.8-5.6-4.2-11.8-4.1-18c-0.2-6.2,1.2-12.4,4-18c2.6-5,6.2-9.4,10.6-12.9c4.5-3.5,9.6-6.2,15.1-7.8
						c5.7-1.7,11.6-2.6,17.5-2.6c4.3,0,8.6,0.4,12.8,1.3c3.5,0.7,6.9,1.7,10.2,2.9c2.9,1.1,5.4,2.1,7.3,2.9c1.3,0.7,2.7,1.1,4.2,1.3
						c0.6,0,1.1-0.2,1.6-0.6c0.4-0.4,0.9-0.7,1.4-0.9l2.2,1.3l-12.1,17.4L494.8,134.9z"/>
					<path class="st0" d="M529.1,118.2c-0.8-1.1-1.9-1.9-3.1-2.4c-1.1-0.5-2.3-0.7-3.5-0.7v-3.3h30.2v3.3c-0.7,0-1.4,0.3-2,0.6
						c-0.7,0.3-1.1,1-1.1,1.7c0,0.7,0.3,1.4,0.7,2c0.5,0.6,1,1.3,1.7,2.2l18.5,24.2l16.3-22.7l2.5-3.6c0.5-0.7,0.8-1.5,0.8-2.3
						c0-1-0.3-1.6-0.9-1.8c-0.6-0.2-1.2-0.4-1.8-0.4v-3.3h28v3.3c-1.5,0-3.1,0.8-4.9,2.5c-1.7,1.5-3.2,3.2-4.7,5l-28,36.3v27.5
						c0,1.8,1.2,2.8,3.5,2.8v3.3H557v-3.3c2.2,0,3.3-0.9,3.3-2.8v-28.2L529.1,118.2z"/>
				</g>
				<path class="st1" d="M152.8,46.5c-1.6-0.3-3.2-0.4-4.8-0.4c-5.4,0-10.9,0.5-16.2,1.4c1.5-4.4,2.6-8,3.3-10.6
					c0.2-0.4,0.5-0.9,0.8-1.2l0.1-0.2l0.1-0.2c0.1-0.6,0-1.3-0.4-1.8c-0.6-0.7-1.5-1-2.4-1H133c-1,0.2-1.8,0.9-2.2,1.8
					c-1.7,1.5-3.6,2.9-5.5,4.2c-2.4,1.8-5,3.3-7.7,4.5h-0.2c0-0.1,0-0.2,0.1-0.2c1.1-2,2.3-4,3.6-5.8c2.6-3.7,3.6-4.3,3.8-4.4
					l0.7-0.3l-0.1-0.7c0-1-0.8-1.9-1.8-1.9c0,0,0,0,0,0h-0.3c-1,0.3-2,0.6-2.9,1.1c-1.9,0.9-2.5,1.3-2.8,1.8
					c-0.2,0.6-0.3,1.2-0.2,1.8v0.5c-4.6,8.3-5.4,10.1-5.6,10.7c-0.1,0.3-0.1,0.7,0,1c-1.1,1.1-2.2,2.2-3.5,3.1
					c-1.3,1.1-2.7,1.9-4.3,2.5c-0.1,0-0.2,0-0.3,0c-0.1,0-0.3,0-0.3-1c0-0.2,0-0.5,0-0.7c0.7-4.7,3.1-10.8,7.1-18.1
					c1.5-2.8,4.4-7.6,9.1-15.1c0.4-0.6,0.6-1.3,0.5-1.9c0-1.4-0.4-2.7-1-3.9c-0.6-1.4-2-2.4-3.5-2.3c-3.9,0.2-10.1,4.5-18.6,12.8
					c-5.1,4.9-9.9,10.1-14.3,15.6c4.2-9,6.6-15.7,7.2-20.1c0.1-1.1-0.3-2.1-1-2.9C88.2,13.5,87.1,13,86,13c-1.9,0-4.5,1.4-8.3,4.4
					c2-5.1,3-9,3.1-11.8c0.1-1.5-0.7-2.8-2.3-4c-1.2-1-2.6-1.6-4.1-1.7h-0.3c-2.8,0.2-6.6,1.8-11.4,4.6c-4.5,2.6-8.6,5.7-12.3,9.4
					c-4,4-5.9,7.4-5.9,10.2c0.1,1.9,1.1,3.6,2.8,4.5c0.9,0.3,1.8,0.3,2.7,0c0.5-0.2,1.7-0.5,1.7-1.5c0-0.1,0-1.1-1.5-1.1h-0.6
					c-0.5,0-1-0.1-1.5-0.3c-0.6-0.2-0.8-0.4-0.8-0.6c0-2.2,1.8-6.3,10.6-13.2c6.9-5.3,12.4-8.3,16.6-8.7c0.3,0,0.6,0,0.9,0
					c1.5,0,2.1,0.3,2.1,2.3c-0.2,2.4-0.8,4.7-1.6,7c-1.2,3.5-2.6,7-4.3,10.3c-4.1,3.9-7.9,8.2-11.4,12.7c-4.7,6.1-6.8,10.1-6.8,12.8
					c0,1.5,0.5,2.3,1.5,2.3c0.8-0.1,1.7-0.4,2.3-0.9c0.8-0.3,1.5-0.8,2-1.4c4.5-4.9,9.7-13,15.2-23.9c1.7-1.9,3.6-3.7,5.6-5.2
					c3.5-2.7,5.3-3.3,6.2-3.3c0.1,0,0.3,0,0.4,0.1c0.1,0.2,0.1,0.5,0,0.8c-1,5.4-5,14.9-11.9,28.1l-0.1,0.2l-0.1,0.2
					c-0.1,0.2-0.1,0.4-0.1,0.5c0,0.4,0.1,1.6,2,1.6c1,0,2-0.4,2.6-1.2c5.6-7.4,11.8-14.4,18.5-20.8c7.8-7.7,13.5-12.1,17-13
					c0.5-0.1,1-0.2,1.4-0.2c0.8,0,0.8,0.2,0.8,0.3c-0.1,0.6-0.3,1.2-0.7,1.7c-3.9,6-7.3,12.3-10.4,18.7c-3.7,7.6-5.5,13.4-5.5,17.2
					c0,1.3,0.4,2.5,1.1,3.5c0.3,0.4,0.6,0.8,1,1.1c-3.3,1.1-6.5,2.3-9.7,3.5C76,65,66.3,71.9,63,79.5c-0.7,1.6-1,3.3-1,5
					c0,5.1,2.6,9.7,7.7,13.8c4.3,3.6,9.7,5.5,15.3,5.6h1.6c17.3-1.1,32.2-18.9,44.2-53c5.7-1,11.5-1.4,17.2-1.3
					c1.9,0,3.4,0.1,4.4,0.1c2.1,0.2,2.1,1.1,2.1,1.4c0,1.4-1.1,3.2-3.2,5.3c-0.6,0.3-0.9,0.9-1,1.6c0,0.6,0.5,1.1,1.1,1.1
					c0,0,0,0,0,0l0,0c0.6,0,1.1-0.3,1.5-0.7c1.6-1.2,3-2.6,4.2-4.3c0.3-0.6,0.5-1.2,0.5-1.8C157.6,49.4,155.1,47,152.8,46.5z
					 M114.3,47.9c0.2,0,0.5-0.1,0.7-0.2c3.3-1.5,6.5-3.3,9.5-5.4c2-1.4,3.8-2.7,5.4-3.9c-0.2,0.8-0.4,1.8-0.7,3
					c-0.7,2.9-1.3,5.1-1.8,6.8c-6,1.2-12,2.7-17.9,4.4c0.4-0.3,0.7-0.6,1.1-0.9C111.9,50.6,113.2,49.4,114.3,47.9z M126.3,51.5
					c-3.2,9.7-7.5,18.9-12.9,27.6c-8.6,13.9-17.8,21.2-27.2,21.5h-1.1c-4.9,0-9.6-1.6-13.5-4.6c-4.1-3.2-6.1-6.6-6.1-10.6
					c0-1.2,0.3-2.4,0.7-3.5c2.6-6.5,10.4-12.8,23.3-18.7C101.5,58,113.8,54,126.3,51.5L126.3,51.5z M66.9,32
					c-0.7,1.2-1.6,2.6-2.5,4.1c-1.8,3-3.8,5.9-6,8.7c1.6-3.4,3.6-6.5,5.9-9.4C65.2,34.2,66,33,66.9,32z"/>
				<g>
					<g>
						<path class="st1" d="M296.1,232.2c0-10.5,0-11.9-0.1-14s-0.8-3.2-2.9-3.7c-0.8-0.1-1.6-0.1-2.4-0.1c-0.1,0-0.5-0.1-0.5-0.4
							c0-0.5,0.4-0.6,1.1-0.6c3.3,0,7.5,0.2,7.9,0.2c1.6,0,5.5-0.2,8.6-0.2c8.4,0,11.5,2.8,12.5,3.7c2.2,2.3,3.5,5.4,3.4,8.6
							c0,8.5-7,14.7-16.6,14.7c-0.5,0-1,0-1.5-0.1c-0.3,0-0.7-0.1-0.7-0.5c0-0.6,0.5-0.6,1.9-0.6c6,0,11.1-4.1,11.1-10.8
							c0.2-3.4-1-6.7-3.3-9.2c-2.4-2.6-5.9-3.9-9.5-3.6c-0.9,0-1.8,0.1-2.6,0.4c-0.4,0.1-0.5,0.7-0.5,1.2v26.4
							c0,5.9,0,11.4,0.3,14.1c0.2,1.8,0.6,3.4,2.7,3.6c1,0.2,2,0.3,3,0.3c0.3,0,0.5,0.1,0.5,0.4c0,0.4-0.3,0.6-1.1,0.6
							c-4,0-8.2-0.2-8.6-0.2c-0.1,0-4.6,0.2-6.7,0.2c-0.7,0-1.1-0.1-1.1-0.6c0-0.2,0.1-0.4,0.5-0.4c0.7,0,1.3-0.1,2-0.3
							c1.4-0.2,1.8-1.8,2-3.6c0.4-4.7,0.5-9.3,0.4-14L296.1,232.2z"/>
						<path class="st1" d="M381,243.8c0,8.8,0.3,13.2,1.6,14.4c1.2,1.1,2.8,1.5,8,1.5c3.4,0,6.4,0,8.1-2.1c0.7-1.2,1.2-2.5,1.5-3.8
							c0.1-0.6,0.2-0.9,0.6-0.9s0.5,0.2,0.5,1c-0.1,2.3-0.5,4.6-0.9,6.9c-0.5,1.5-0.4,1.9-4,1.9c-5.2,0-10.9-0.4-18.5-0.4
							c-2.5,0-4,0.2-6.7,0.2c-0.8,0-1.2-0.1-1.2-0.6c0-0.2,0.2-0.5,0.8-0.5c0.6,0,1.2,0,1.8-0.1c1.3-0.2,1.8-1.8,2-3.6
							c0.5-2.9,0.3-8.2,0.3-14v-11.5c0-10.1,0-11.8-0.1-13.8s-0.5-3.5-3-3.8c-0.6-0.1-1.3-0.1-1.9-0.1c-0.5,0-0.8-0.2-0.8-0.5
							s0.4-0.5,1.1-0.5c3.2,0,7.8,0.2,7.9,0.2c1.1,0,5.7-0.2,7.9-0.2c0.8,0,1,0.2,1,0.5s-0.4,0.5-0.8,0.5s-1.3,0.1-2.1,0.1
							c-2.1,0.3-2.6,1.5-2.8,3.7c-0.1,2.1-0.1,3.7-0.1,13.8L381,243.8z"/>
						<path class="st1" d="M459.1,243.9c-0.4,0-0.7,0.3-0.8,0.6L455,254c-0.7,1.7-1.1,3.6-1.3,5.4c0,1.4,0.8,2,2.5,2h0.5
							c0.7,0,0.9,0.2,0.9,0.5s-0.6,0.5-1.1,0.5c-1.7,0-5.2-0.2-6-0.2s-4.1,0.2-7.3,0.2c-0.8,0-1.2-0.1-1.2-0.5s0.3-0.5,0.9-0.5
							c0.5,0,1,0,1.5-0.1c3.3-0.3,4.6-2.8,5.9-6l15.3-40.2c0.8-2.2,1.1-2.6,1.6-2.6c0.4,0,0.7,0.3,1.5,2.4
							c1.1,2.5,11.5,29.2,15.5,38.7c2.5,6,4.7,7,5.8,7.4c0.8,0.3,1.7,0.4,2.6,0.4c0.5,0,0.9,0.1,0.9,0.5s-0.3,0.5-1.1,0.5
							s-6.5,0-11.6-0.1c-1.5-0.1-1.9-0.1-1.9-0.5c0-0.3,0.3-0.5,0.5-0.5c0.3-0.1,0.8-0.5,0.3-1.7l-6-15.4c-0.1-0.2-0.4-0.4-0.6-0.4
							L459.1,243.9z M472.1,241.2c0.3,0,0.3-0.2,0.2-0.5l-6-16.9c-0.4-1.1-0.5-1.1-0.8,0l-5.7,16.9c-0.1,0.3,0,0.5,0.1,0.5H472.1z"
							/>
						<path class="st1" d="M536.6,215.6c0-2.4,0.2-3.1,0.8-3.1s1.8,1.5,2.4,2.1c0.7,0.8,11.3,11.6,22,22.5
							c6,5.8,13.6,13.7,15.6,15.5l-0.8-31.8c-0.1-4.1-0.5-5.5-2.6-6c-1-0.2-2-0.3-3-0.3c-0.8,0-0.9-0.3-0.9-0.6s0.6-0.5,1.4-0.5
							c3.3,0,6.5,0.2,7.2,0.2s3.1-0.2,6.1-0.2c0.8,0,1.1,0.1,1.1,0.5s-0.2,0.5-0.7,0.6s-1.1,0.1-1.9,0.2c-1.8,0.4-2.3,1.1-2.3,5.7
							l-0.2,38.3c0,3.8-0.2,4.2-0.7,4.2s-1.3-0.5-5-4c-0.3-0.1-10.9-10.7-17.6-17.2L540,223.6l1,29.9c0.2,5.3,0.6,7.2,2.5,7.7
							c1,0.2,2.1,0.3,3.1,0.3c0.6,0,0.9,0.2,0.9,0.5s-0.4,0.5-1.2,0.5c-4.1,0-6.9-0.2-7.4-0.2s-3.4,0.2-6.6,0.2
							c-0.7,0-1.2-0.1-1.2-0.5c0-0.3,0.3-0.5,1.1-0.5c0.8,0,1.6-0.1,2.4-0.3c1.7-0.5,2.1-2.6,2.1-8.2
							C536.6,216.5,536.7,228.3,536.6,215.6z"/>
					</g>
				</g>
			</g>
		</g>
	</g>
</g>
</svg>
