<svg xmlns="http://www.w3.org/2000/svg" viewBox="0 0 510.72 228.43">
  <defs>
    <style>
      .cls-1 {
        fill: #3e4863;
      }

      .cls-2 {
        fill: #fff;
      }
    </style>
  </defs>
  <title>Travelkat</title>
  <g id="Layer_2" data-name="Layer 2">
    <g id="Layer_1-2" data-name="Layer 1">
      <path class="cls-1" d="M320.2,22H280.88V7.1c0-4.55-.26-7.1-3.46-7.1H226.34c-3.2,0-3.46,2.55-3.46,7.1V22H183.56c-4.55,0-5.68,2.92-5.68,7.48V99.32c0,4.56,1.13,9.68,5.68,9.68H320.2c4.55,0,5.68-5.12,5.68-9.68V29.48C325.88,24.92,324.75,22,320.2,22Zm-48.32-5.68V22h-40V16.32c0-4.55-.69-7.32,2.52-7.32h35C272.57,9,271.88,11.77,271.88,16.32Z"/>
      <path class="cls-2" d="M273.69,91c1.07-1.45,3.24-2.18,7-2.38a52.94,52.94,0,0,1,5.57.06,33.53,33.53,0,0,1-1.09-9.77c0-10.52,9.17-19,14.61-23.9a9.74,9.74,0,0,1,1.2-.94,9.11,9.11,0,0,1-3.11-7,9.36,9.36,0,0,1,1.67-5.38c.33-3.07.28-6.51.95-6.21A8.66,8.66,0,0,1,304,38.55a6.74,6.74,0,0,1,1.8-.24,6.18,6.18,0,0,1,2.06.34,10.18,10.18,0,0,1,3.74-2.32c1-.2-.57,3.43-.57,4.6a.37.37,0,0,1,0,.12,17.1,17.1,0,0,1,2.69,6c1.78,6.7-3.53,8.77-7.9,8.77h-.3c2.05,5.6,1.5,19.05,5.53,25.39,10,15.67-8.93,13.22-16.35,12.83a2.3,2.3,0,0,1-.87.05L293,94a8.85,8.85,0,0,1-1.85-.22c-6.59-.75-10.16-.61-12-.35,2.44,1.23,7.64,3,16,3.64a2.34,2.34,0,0,1-.19,4.68h-.19a60.62,60.62,0,0,1-14-2.62c-1.52-.51-6.15-2-7.38-4.74A3.29,3.29,0,0,1,273.69,91Z"/>
      <g>
        <path class="cls-1" d="M10.08,176.54h5.36V144.59H7v6.74H0V138H39.19v13.35h-7v-6.74h-8.5v31.95h5.42v6.17h-19Z"/>
        <path class="cls-1" d="M56.63,176.54H62V144.22H56.63V138H76.35a29.53,29.53,0,0,1,8.51.94c5,1.64,8.25,5.67,8.25,12s-3.27,10.65-8.44,12.42v.12a6,6,0,0,1,2.21,2.33L92,175.09c.63,1.13,1.51,1.45,3,1.45h1.45v6.17H91.29c-3.72,0-4.86-.76-6.24-3.34l-6.36-11.53c-1-1.7-1.77-2.27-4.35-2.27h-4.1v11h5.17v6.17H56.63ZM77.68,159c4.34,0,7.18-2.58,7.18-7.37,0-2.9-1.07-5.17-3.53-6.18a12.69,12.69,0,0,0-5-.82H70.24V159Z"/>
        <path class="cls-1" d="M112,176.54h4.09L129.52,138h9.39l13.42,38.56h4.1v6.17H139.6v-6.17H144l-2.77-8.38H127.13l-2.77,8.38h4.41v6.17H112Zm27.34-14.81-4.22-12.66a19.57,19.57,0,0,1-.82-3.91h-.19a26.64,26.64,0,0,1-.82,3.91L129,161.73Z"/>
        <path class="cls-1" d="M171,144.22h-4.1V138h17.45v6.24h-4.72l8.38,25.51a22.87,22.87,0,0,1,.75,4h.26a19.29,19.29,0,0,1,.81-4l8.32-25.51h-4.66V138H211v6.24h-4.16l-13.61,38.49h-8.56Z"/>
        <path class="cls-1" d="M227.36,176.54h5.35V144.22h-5.35V138h33.2v11.53H253.5v-4.92H241v12.29h14.75v6.61H241V176.1h13.49v-5h7.05v11.66H227.36Z"/>
        <path class="cls-1" d="M280.34,176.54h5.35V144.59h-5.35V138h19v6.61h-5.42V176.1h13.24v-6.94h7.05v13.55H280.34Z"/>
        <path class="cls-1" d="M359.9,176.54h5.36V144.22H359.9V138h17.89v6.24h-4.28v12.16h5l8.5-12.16h-3.84V138h16.38v6.24h-4L384.72,159v.13a7.31,7.31,0,0,1,2.9,3.34L394.49,175a3,3,0,0,0,3,1.58h2.08v6.17H393.8c-3.78,0-5-.94-6.3-3.34l-7.82-14.74c-.69-1.2-1.57-1.64-3.34-1.64h-2.83v13.55h5.17v6.17H359.9Z"/>
        <path class="cls-1" d="M415.09,176.54h4.09L432.6,138H442l13.42,38.56h4.09v6.17H442.68v-6.17h4.41l-2.77-8.38H430.21l-2.78,8.38h4.41v6.17H415.09Zm27.34-14.81-4.22-12.66a19.57,19.57,0,0,1-.82-3.91h-.19a26.64,26.64,0,0,1-.82,3.91l-4.28,12.66Z"/>
        <path class="cls-1" d="M481.61,176.54H487V144.59h-8.45v6.74h-7V138h39.19v13.35h-7v-6.74h-8.51v31.95h5.42v6.17h-19Z"/>
      </g>
      <g>
        <path class="cls-1" d="M142,209.63l4.66,11.77,4.65-11.77h4.58L148.1,228h-2.87l-7.79-18.39Z"/>
        <path class="cls-1" d="M177.83,224.54h-6.94L169.48,228h-4.41l7.42-18.39h3.88L183.62,228h-4.41Zm-1.15-3.25-2.26-6.17-2.29,6.17Z"/>
        <path class="cls-1" d="M209.44,227.44a8.63,8.63,0,0,1-4.05,1,9.86,9.86,0,0,1-7.22-2.67,9.84,9.84,0,0,1,0-13.89,9.76,9.76,0,0,1,6.86-2.65,11,11,0,0,1,4.41,1v4.91a5.8,5.8,0,0,0-4.3-2,5.2,5.2,0,0,0-3.75,1.43,5.9,5.9,0,0,0-1.73,4.25,5.56,5.56,0,0,0,1.59,4,5.62,5.62,0,0,0,4,1.54,5.79,5.79,0,0,0,4.22-1.9Z"/>
        <path class="cls-1" d="M234.65,224.54h-6.94L226.3,228h-4.41l7.42-18.39h3.88L240.44,228H236Zm-1.15-3.25-2.26-6.17L229,221.29Z"/>
        <path class="cls-1" d="M258.82,213.22V228h-4.24v-14.8h-4v-3.59h12.23v3.59Z"/>
        <path class="cls-1" d="M280.4,209.63V228h-4.25V209.63Z"/>
        <path class="cls-1" d="M311.81,211.89a9.78,9.78,0,0,1,0,13.84,9.83,9.83,0,0,1-7.11,2.7,10.14,10.14,0,0,1-7.17-2.7,9.4,9.4,0,0,1-2.86-6.84,10.25,10.25,0,0,1,2.84-7,10.86,10.86,0,0,1,14.3,0Zm-11.16,2.82a5.62,5.62,0,0,0-1.63,4.16,5.47,5.47,0,0,0,5.62,5.65,5.56,5.56,0,0,0,4.08-1.57,5.51,5.51,0,0,0,1.6-4.11,5.76,5.76,0,0,0-1.6-4.13,5.86,5.86,0,0,0-4.05-1.58A5.6,5.6,0,0,0,300.65,214.71Z"/>
        <path class="cls-1" d="M328.87,228V209.63h3.69l10,11.85V209.63h4.25V228h-3.69l-10-11.91V228Z"/>
        <path class="cls-1" d="M371.3,214.13a4.49,4.49,0,0,0-3.08-1.33,2.3,2.3,0,0,0-1.79.64,1.61,1.61,0,0,0-.47,1.15,1.29,1.29,0,0,0,.41,1,7.48,7.48,0,0,0,2.31,1l1.38.53a7.32,7.32,0,0,1,2.51,1.4,4.56,4.56,0,0,1,1.35,3.42,6.54,6.54,0,0,1-1.63,4.54,7.1,7.1,0,0,1-5.2,1.88,7.77,7.77,0,0,1-3.64-.77,11.94,11.94,0,0,1-2.7-2l2.2-3a11.4,11.4,0,0,0,1.71,1.41,4.29,4.29,0,0,0,2.32.66,2.92,2.92,0,0,0,1.92-.63,1.91,1.91,0,0,0,.67-1.49,1.6,1.6,0,0,0-.64-1.32,8.43,8.43,0,0,0-2.15-1l-1.51-.53a6.18,6.18,0,0,1-2.57-1.46,4.52,4.52,0,0,1-1.1-3.19,5.67,5.67,0,0,1,1.6-4.14,5.94,5.94,0,0,1,4.55-1.68A8.86,8.86,0,0,1,373.2,211Z"/>
      </g>
    </g>
  </g>
</svg>
