<svg xmlns="http://www.w3.org/2000/svg" viewBox="0 0 697.66 278.99">
  <defs>
    <style>
      .cls-1 {
        fill: #a7cdcc;
      }

      .cls-2 {
        font-size: 40.47px;
        stroke: #a7cdcc;
        stroke-miterlimit: 10;
        stroke-width: 36px;
        font-family: Raceway, Raceway;
      }

      .cls-2, .cls-5 {
        fill: #3d3d3d;
      }

      .cls-3 {
        fill: #cb4227;
      }

      .cls-4 {
        fill: #eae8c3;
      }

      .cls-6 {
        fill: #a4a288;
      }

      .cls-7 {
        fill: #5d5e5e;
      }

      .cls-8 {
        fill: #fff;
      }

      .cls-9 {
        fill: #f9f9f7;
      }
    </style>
  </defs>
  <title>traveltime</title>
  <g id="Layer_2" data-name="Layer 2">
    <g id="Layer_3" data-name="Layer 3">
      <g>
        <path class="cls-1" d="M461.78,45.33c-3.5-10-12.42-16.68-21.84-20.64A73.39,73.39,0,0,0,425,20.3a76.23,76.23,0,0,0-11.72-1.39c-1,0-2.24.21-3.09-.36a54,54,0,0,0-10.8-5.72c-8.48-3.51-18.81-5.22-31.58-5.22-21,0-50.38,4.86-89.71,14.83l-9.52-11.25C260.76,2,252.63,0,247.19,0h-.74a23.19,23.19,0,0,0-6,.53C234.23,2,223.26,7.19,220.1,26.43A76.61,76.61,0,0,0,219.16,37c-5.94,1.13-12.59,2.65-20,4.57-3.7,1-8,2.23-12.85,3.8H181.1l-4-1-10.89-2.69-16-3.95-19.33-4.77L110,27.77,89.28,22.66l-18.7-4.61-15-3.7L46.18,12a43.28,43.28,0,0,0-10.5-1.44,32.9,32.9,0,0,0-11.42,2C15,15.94,6.8,23.25,4.32,33a26.3,26.3,0,0,0,9.55,27A32.24,32.24,0,0,0,19,63c1.61.8,3.68,1.33,5.13,2.35-1.11.91-2.64,1.48-3.85,2.33a24.53,24.53,0,0,0-3.32,2.79,23.19,23.19,0,0,0-4.75,7c-5,11.44,1,21.29,3.51,25.5l3.6,5.94-.21.1a22,22,0,0,0,2.28,40.65L32.09,154A27.59,27.59,0,0,0,25,162.08a29.92,29.92,0,0,0-6.26,4.66C6.91,172.35,0,182,0,193.28,0,206.9,10.29,218,26.1,222.59c10.78,21.49,41.35,36.06,78.7,36.06,4.17,0,8.31-.18,12.39-.55V279H697.66V45.33Z"/>
        <text class="cls-2" transform="translate(298.79 218.29)">vacations</text>
        <rect class="cls-1" x="135.84" y="63.98" width="543.18" height="196.36"/>
        <path class="cls-3" d="M673.34,255.07H142.74V68.29h530.6Zm-525.6-5h520.6V73.29H147.74Z"/>
        <path class="cls-4" d="M686,267.36H130.12V127.53L411.91,56H686Zm-553.83-2H684V58H411.66L132.12,127.41Z"/>
        <g>
          <path class="cls-5" d="M395.4,111.06,241.17,125.92,329.37,100l81.07-.84c4.36,1,4.22,6.15-.2,7.5l-13.7,4.17A6.23,6.23,0,0,1,395.4,111.06Z"/>
          <g>
            <path class="cls-6" d="M381.86,97.43c-.44-1.38-2.17-2.64-9.61-2.91-4.2-4.93-16.53-4.06-38,1.48-23.36,6-79.6,30.64-78.93,33.18.79,3,69.53-2.93,91-8.47a189.48,189.48,0,0,0,24.36-8.4c4.91-2,4.75-7.34,4.75-7.34C379.14,102.55,382.55,99.61,381.86,97.43Z"/>
            <path class="cls-5" d="M381.86,97.43c-1.52-1.59-4.4-.34-8.56.57,0,0,1.7,7.8-5,5.2s-12.69,10.17-21.47,12.44c-21.46,5.54-90.71,16.54-91.5,13.54.79,3,69.53-2.93,91-8.47a189.48,189.48,0,0,0,24.36-8.4c4.91-2,4.75-7.34,4.75-7.34C379.14,102.55,382.55,99.61,381.86,97.43Z"/>
            <path class="cls-5" d="M373.88,106.78c-1.4.37-3.24-2-4.12-5.34s-.45-6.3.95-6.67a1.45,1.45,0,0,1,1.1.21c-1-1.38-2.15-2.12-3.12-1.86-1.86.49-2.43,4.47-1.26,8.88s3.62,7.59,5.49,7.1c.93-.24,1.54-1.36,1.76-3A1.43,1.43,0,0,1,373.88,106.78Z"/>
            <path class="cls-7" d="M378.83,130.27c-5.16,1.17-12.49-11.84-16.36-29.06s-2.82-32.1,2.34-33.26c1.39-.31,2.94.41,4.54,2-2.05-2.42-4.06-3.62-5.82-3.22-5.38,1.21-6.48,16.73-2.44,34.66s11.67,31.49,17.05,30.27c1.4-.31,2.51-1.6,3.31-3.65A4.19,4.19,0,0,1,378.83,130.27Z"/>
            <path class="cls-8" d="M380,130.27c-5.16,1.17-12.49-11.84-16.36-29.06S360.83,69.11,366,68c1.39-.31,2.94.41,4.53,2-2-2.42-4-3.62-5.81-3.22-5.39,1.21-6.48,16.73-2.44,34.66s11.66,31.49,17,30.27c1.41-.31,2.51-1.6,3.32-3.65A4.21,4.21,0,0,1,380,130.27Z"/>
            <path class="cls-9" d="M375.46,106c-1,.22-2.38-2.26-3.12-5.55s-.54-6.12.45-6.34a1,1,0,0,1,.86.37c-.39-.46-.77-.69-1.11-.61-1,.23-1.23,3.19-.46,6.61s2.22,6,3.25,5.78c.27-.06.48-.31.63-.7A.81.81,0,0,1,375.46,106Z"/>
          </g>
          <path class="cls-6" d="M59.19,138.81,31.63,93.33c-3.7-6.12-7.43-12.89,16.56-14S110,114.67,110,114.67C113.81,118.8,61.77,143.08,59.19,138.81Z"/>
          <path class="cls-5" d="M36.05,80.89c31.11-4.5,60.44,35.5,65.07,38.38,1.44-.26,10-4.47,8.08-5.75C100.85,107.82,70.68,71.13,36.05,80.89Z"/>
          <path class="cls-4" d="M444.57,52.71c-2.52-9.75-18.51-15.09-42.66-16-13.62-16-53.67-13.17-123.34,4.82-75.84,19.58-225.14,96.55-223,104.81,2.57,9.73,192.28-11.81,262-29.8C393.39,97,449.9,73.36,444.57,52.71Z"/>
          <path class="cls-5" d="M442.22,48.22c-11.9,20-74,29.6-137.17,45.92-10-1.89-80.29-17.45-80.29-17.45L126.55,93.52,190,122.71c-51.13,11.68-118.42,25.6-134.24,24,6.38,9.17,192.87-12.3,261.8-30.1C393.39,97,449.9,73.36,444.57,52.71A11.56,11.56,0,0,0,442.22,48.22Z"/>
          <path class="cls-5" d="M403.76,36.83C396.09,31.39,389,25,359.91,28.25a5.47,5.47,0,0,0-5.24,5.29l1.46,6.93C372,38.37,391.19,36.67,403.76,36.83Z"/>
          <path class="cls-9" d="M335.54,32.2a484.88,484.88,0,0,0-53.2,11.13c-3,.8-6,1.62-8.9,2.46Z"/>
          <path class="cls-9" d="M135.84,104.66c-17.37,3.45-54.28,25.7-56.81,27.41Z"/>
          <path class="cls-9" d="M328.27,56a487.52,487.52,0,0,0-53.21,11.14c-3,.79-6,1.61-8.89,2.45Z"/>
          <path class="cls-5" d="M444.57,52.71c1.46,5.65-3.2,11.84-10.21,18.77C419.49,68.34,415.83,48.71,422.6,39,435,41.53,442.87,46.11,444.57,52.71Z"/>
          <path class="cls-5" d="M429.07,43.33c-6.21-5.15-49-7.29-122.75,8.91C412.24,35.35,433.73,47.48,429.07,43.33Z"/>
          <path class="cls-9" d="M433.7,66.22c-4.79,4.48-62.16,25-98.55,34.84C393.52,90.09,426.63,73.35,433.7,66.22Z"/>
          <path class="cls-5" d="M27.72,132.15l31.71,12.66a3.39,3.39,0,0,0,1.76,0l32.07-7.78a3.39,3.39,0,0,0-.28-6.63l-50.12-7.66c-2.33-.44-13.5,2-15.95,3.19h0A3.39,3.39,0,0,0,27.72,132.15Z"/>
          <g>
            <path class="cls-5" d="M145.66,103.28a6.36,6.36,0,0,0-2.52,1.77A7,7,0,0,1,145,104c2.33-.93,4.69-.51,5.27.94a2.57,2.57,0,0,1-.65,2.53c1.17-1,1.74-2.22,1.34-3.23C150.34,102.77,148,102.35,145.66,103.28Z"/>
            <path class="cls-5" d="M132.41,109.62a6.19,6.19,0,0,0-2.47,1.74,7,7,0,0,1,1.78-1c2.27-.9,4.57-.5,5.13.92a2.47,2.47,0,0,1-.62,2.46c1.15-1,1.71-2.17,1.32-3.16C137,109.12,134.68,108.71,132.41,109.62Z"/>
            <path class="cls-5" d="M120.08,115.85a6.4,6.4,0,0,0-2.53,1.77,7.14,7.14,0,0,1,1.84-1.08c2.33-.93,4.69-.51,5.27.94A2.56,2.56,0,0,1,124,120c1.18-1,1.75-2.22,1.34-3.23C124.77,115.34,122.41,114.92,120.08,115.85Z"/>
          </g>
          <g>
            <path class="cls-9" d="M320.17,42.14a3.7,3.7,0,0,1,1.59-3.48c-1.6,1.08-2.5,2.55-2.2,3.94.47,2.15,3.67,3.29,7.14,2.54a9.12,9.12,0,0,0,3.85-1.8,9.5,9.5,0,0,1-3.24,1.35C323.83,45.44,320.64,44.3,320.17,42.14Z"/>
            <path class="cls-9" d="M300.63,46.9a3.69,3.69,0,0,1,1.6-3.48c-1.6,1.08-2.5,2.54-2.2,3.93.47,2.16,3.66,3.3,7.14,2.54A9,9,0,0,0,311,48.1a9.32,9.32,0,0,1-3.24,1.34C304.3,50.2,301.1,49.06,300.63,46.9Z"/>
            <path class="cls-9" d="M281.37,51.55a3.39,3.39,0,0,1,1.46-3.2c-1.5,1-2.35,2.36-2.07,3.65.43,2,3.39,3.06,6.6,2.36a8.28,8.28,0,0,0,3.58-1.68,8.68,8.68,0,0,1-3,1.23C284.76,54.6,281.8,53.55,281.37,51.55Z"/>
            <path class="cls-9" d="M263,56.76a3.33,3.33,0,0,1,1.42-3.12c-1.47,1-2.3,2.31-2,3.57.43,1.95,3.31,3,6.45,2.3a8.15,8.15,0,0,0,3.49-1.64,8.52,8.52,0,0,1-2.88,1.19C266.28,59.74,263.39,58.71,263,56.76Z"/>
            <path class="cls-9" d="M245.53,62.27A3.39,3.39,0,0,1,247,59.06c-1.5,1-2.35,2.37-2.07,3.66.43,2,3.4,3.06,6.62,2.36a8.28,8.28,0,0,0,3.58-1.68,8.68,8.68,0,0,1-3,1.23C248.92,65.33,246,64.27,245.53,62.27Z"/>
            <path class="cls-5" d="M332.75,39.41c-.47-2.16-3.67-3.3-7.14-2.54a9.11,9.11,0,0,0-3.85,1.79A9.69,9.69,0,0,1,325,37.32c3.48-.75,6.67.38,7.14,2.54a3.69,3.69,0,0,1-1.59,3.48C332.15,42.27,333.05,40.8,332.75,39.41Z"/>
            <path class="cls-6" d="M332.14,39.86c-.47-2.16-3.66-3.29-7.14-2.54a9.69,9.69,0,0,0-3.24,1.34,3.7,3.7,0,0,0-1.59,3.48c.47,2.16,3.66,3.3,7.14,2.55a9.5,9.5,0,0,0,3.24-1.35A3.69,3.69,0,0,0,332.14,39.86Z"/>
            <path class="cls-5" d="M306.08,41.63a9,9,0,0,0-3.85,1.79,9.41,9.41,0,0,1,3.24-1.34c3.47-.76,6.67.38,7.14,2.54A3.69,3.69,0,0,1,311,48.1c1.61-1.08,2.51-2.54,2.21-3.93C312.75,42,309.55,40.87,306.08,41.63Z"/>
            <path class="cls-6" d="M312.61,44.62c-.47-2.16-3.67-3.3-7.14-2.54a9.41,9.41,0,0,0-3.24,1.34,3.69,3.69,0,0,0-1.6,3.48c.47,2.16,3.67,3.3,7.14,2.54A9.32,9.32,0,0,0,311,48.1,3.69,3.69,0,0,0,312.61,44.62Z"/>
            <path class="cls-5" d="M286.4,46.68a8.34,8.34,0,0,0-3.57,1.67,8.7,8.7,0,0,1,3-1.22c3.22-.7,6.17.35,6.61,2.35a3.41,3.41,0,0,1-1.46,3.2c1.5-1,2.34-2.36,2.06-3.65C292.57,47,289.61,46,286.4,46.68Z"/>
            <path class="cls-6" d="M292.4,49.48c-.44-2-3.39-3-6.61-2.35a8.7,8.7,0,0,0-3,1.22,3.39,3.39,0,0,0-1.46,3.2c.43,2,3.39,3.05,6.6,2.36a8.68,8.68,0,0,0,3-1.23A3.41,3.41,0,0,0,292.4,49.48Z"/>
            <path class="cls-5" d="M267.88,52a8.09,8.09,0,0,0-3.49,1.64,8.49,8.49,0,0,1,2.89-1.19c3.13-.68,6,.35,6.44,2.3a3.29,3.29,0,0,1-1.42,3.12c1.47-1,2.3-2.31,2-3.57C273.91,52.35,271,51.32,267.88,52Z"/>
            <path class="cls-6" d="M273.72,54.75c-.42-2-3.31-3-6.44-2.3a8.49,8.49,0,0,0-2.89,1.19A3.33,3.33,0,0,0,263,56.76c.42,2,3.31,3,6.45,2.3a8.52,8.52,0,0,0,2.88-1.19A3.29,3.29,0,0,0,273.72,54.75Z"/>
            <path class="cls-5" d="M250.57,57.38A8.28,8.28,0,0,0,247,59.06a8.94,8.94,0,0,1,3-1.23c3.22-.7,6.18.36,6.62,2.36a3.4,3.4,0,0,1-1.47,3.21c1.51-1,2.35-2.37,2.07-3.66C256.76,57.74,253.79,56.68,250.57,57.38Z"/>
            <path class="cls-6" d="M256.59,60.19c-.44-2-3.4-3.06-6.62-2.36a8.94,8.94,0,0,0-3,1.23,3.39,3.39,0,0,0-1.46,3.21c.43,2,3.39,3.06,6.62,2.36a8.68,8.68,0,0,0,3-1.23A3.4,3.4,0,0,0,256.59,60.19Z"/>
          </g>
          <path class="cls-9" d="M431,46.91c-17.35-3.56-60,2.62-63,3.22Z"/>
          <g>
            <path class="cls-6" d="M270.12,61.58c-.61-1.93-3-3.69-13.39-4.06-5.84-6.87-23-5.65-52.93,2.07-32.54,8.4-110.9,42.68-110,46.22,1.1,4.18,96.87-4.08,126.77-11.8A264.08,264.08,0,0,0,254.55,82.3c6.83-2.81,6.62-10.22,6.62-10.22C266.34,68.71,271.09,64.61,270.12,61.58Z"/>
            <path class="cls-5" d="M270.12,61.58c-2.11-2.22-6.13-.48-11.92.79,0,0,2.37,10.86-7,7.24s-17.69,14.18-29.92,17.33c-29.9,7.72-126.38,23-127.48,18.87C94.94,110,191.1,102.34,221,94.62c12.23-3.16,23.86-8.33,33.55-12.32,6.83-2.81,6.62-10.22,6.62-10.22C266.34,68.71,271.09,64.61,270.12,61.58Z"/>
            <path class="cls-5" d="M259,74.6c-1.95.51-4.52-2.82-5.73-7.43s-.63-8.78,1.32-9.3a2,2,0,0,1,1.52.29c-1.42-1.92-3-2.95-4.33-2.6-2.6.69-3.39,6.23-1.76,12.38s5,10.58,7.64,9.9c1.3-.35,2.15-1.9,2.46-4.15A2,2,0,0,1,259,74.6Z"/>
            <path class="cls-9" d="M105.31,102.79C110.1,98.31,211,55.49,249.17,56,222.56,46.91,112.38,95.66,105.31,102.79Z"/>
            <path class="cls-7" d="M265.9,107.33c-7.19,1.62-17.4-16.5-22.79-40.48s-3.94-44.73,3.26-46.35c1.94-.44,4.09.57,6.32,2.73-2.85-3.37-5.65-5-8.11-4.49-7.5,1.69-9,23.31-3.4,48.29s16.26,43.87,23.75,42.19c2-.44,3.5-2.24,4.62-5.09A5.83,5.83,0,0,1,265.9,107.33Z"/>
            <path class="cls-8" d="M267.56,107.33c-7.2,1.62-17.4-16.5-22.8-40.48S240.83,22.12,248,20.5c1.94-.44,4.1.57,6.32,2.73-2.85-3.37-5.64-5-8.11-4.49-7.49,1.69-9,23.31-3.39,48.29s16.25,43.87,23.75,42.19c2-.44,3.49-2.24,4.62-5.09A5.86,5.86,0,0,1,267.56,107.33Z"/>
            <path class="cls-9" d="M261.21,73.57c-1.38.31-3.32-3.15-4.35-7.73s-.75-8.53.62-8.84a1.41,1.41,0,0,1,1.21.52c-.55-.64-1.08-1-1.55-.85-1.43.32-1.72,4.44-.65,9.21s3.1,8.37,4.53,8.05a1.4,1.4,0,0,0,.88-1A1.1,1.1,0,0,1,261.21,73.57Z"/>
            <path class="cls-9" d="M255.74,58.31c-2.33.86-2.07,3.9-2.07,3.9s13.56-3,15.63-1.45C267.83,58.25,258.33,58,255.74,58.31Z"/>
            <path class="cls-4" d="M261,76.14c-1.89.43-4.57-4.32-6-10.61s-1-11.36.87-11.79a1.57,1.57,0,0,1,1.64.35c-.74-.88-1.48-1.32-2.12-1.17-2,.44-3.16,6.18-1.69,12.73s5.06,11.43,7,11c.52-.12.92-.59,1.21-1.34A1.5,1.5,0,0,1,261,76.14Z"/>
          </g>
          <path class="cls-5" d="M27.74,46.34l110.53,54c1.28.34,79.1-14.37,79.1-14.37,7.88-2,7.57-11.22-.46-12.58L39.36,29.55c-1.88-.32-7.19-1-10.94,1.68L25.62,33A7.34,7.34,0,0,0,27.74,46.34Z"/>
          <path class="cls-9" d="M45.81,34.2c36.6,9.37,136.26,38.54,158.29,43.87-.62-.28,2.49-4.07-6.6-6.4C157.09,61.29,80.87,42.39,45.81,34.2Z"/>
          <path class="cls-9" d="M42.4,124.05c9,1.49,45,10,50.39,10.62a2,2,0,0,0-.93-3.6C81.89,129.41,51,124.9,42.4,124.05Z"/>
          <polygon class="cls-5" points="43.92 95.38 35.61 99.9 36.16 100.8 43.92 95.38"/>
          <polyline class="cls-5" points="84.48 126.04 56.16 97.84 83.05 126.86"/>
          <polyline class="cls-6" points="162.58 96.21 83.69 62.23 161.15 97.03"/>
          <path class="cls-9" d="M388.89,30.42c-9.06-1.46-15.24-1.17-28.24-.55C371.41,28.38,381.94,28.55,388.89,30.42Z"/>
        </g>
        <g>
          <path class="cls-6" d="M285,143.72c-8,0-12.24,7.16-12.24,13.9,0,7.2,3.86,15,12.34,15,9.34,0,12.65-8,12.65-14.85S293.78,143.72,285,143.72Z"/>
          <path class="cls-6" d="M393.4,172.58c4.86,0,8.57-2.61,11.66-8.21l.4-.72H381.59A12,12,0,0,0,393.4,172.58Z"/>
          <path class="cls-6" d="M392.67,143.72a11.89,11.89,0,0,0-9.55,5.37H401.8A10.84,10.84,0,0,0,392.67,143.72Z"/>
          <path class="cls-6" d="M603.07,143.72a11.88,11.88,0,0,0-9.55,5.37H612.2A10.84,10.84,0,0,0,603.07,143.72Z"/>
          <path class="cls-6" d="M603.8,172.58c4.86,0,8.57-2.61,11.66-8.21l.4-.72H592A12,12,0,0,0,603.8,172.58Z"/>
          <path class="cls-6" d="M626.72,205.83c-.18-.41-.36-.81-.55-1.22l12.07-14.89H625.52c4.06-3.16,7.52-9.25,10.16-14.19l1.71-3.19,3.43-6.39-3.6-2.06.19-3.33c.64-11.29-2.94-21.95-9.84-29.25-6.32-6.69-14.83-10.23-24.6-10.23a33.49,33.49,0,0,0-27.7,13.84,24.61,24.61,0,0,0-5.93-7.79,25.86,25.86,0,0,0-17.3-6,29,29,0,0,0-14.51,3.77,26.6,26.6,0,0,0-13.78-3.77,25,25,0,0,0-8.11,1.35H497.29a17.11,17.11,0,0,0-29.11-17.64H446.65V85.38H415.93v44.68a33.09,33.09,0,0,0-23.36-9,36.26,36.26,0,0,0-10,1.39v0H348.44l-2,4.44L341.11,139l-5.36-12.11-2-4.44H293.26a32.26,32.26,0,0,0-9.23-1.35,34.11,34.11,0,0,0-19,5.63l-.21-.12-3.13-1.77a25.83,25.83,0,0,0-13-3.74,22.8,22.8,0,0,0-7.9,1.35H236V92.79H166.7v30.52h19v70.55h63.08V164.67c0-1.93.48-1.37.48.11,0,10,3.47,12.76,9.77,19.59a33.49,33.49,0,0,0,24.9,10.84,34.55,34.55,0,0,0,6.58-.63l-6.37,22.09h6.8l-1.05,13.87h57.19l.61-1c.4-.15.81-.29,1.21-.46l.54-.25a15.26,15.26,0,0,0,2.28.91,19.37,19.37,0,0,0,5.76.82H388l0,0c.47,0,.95,0,1.43,0h35.21l.62-1.06c.37-.14.74-.26,1.11-.42l.54-.25a15.26,15.26,0,0,0,2.28.91,19.37,19.37,0,0,0,5.76.82h30.55l0,0c.35,0,.68,0,1,0H570.82l.33-1.08q.55.18,1.14.33a23.92,23.92,0,0,0,4.82.71l0,0h70.49l14.5-24.71Z"/>
        </g>
        <g>
          <ellipse class="cls-4" cx="252.7" cy="172.03" rx="47.31" ry="12.62"/>
          <ellipse class="cls-3" cx="113.6" cy="149.25" rx="18.38" ry="11.85"/>
          <ellipse class="cls-4" cx="163.93" cy="151.16" rx="20.2" ry="7.03"/>
          <ellipse class="cls-4" cx="184.76" cy="156.18" rx="23.47" ry="13.69"/>
          <ellipse class="cls-3" cx="209.34" cy="150.28" rx="13.27" ry="7.56"/>
          <ellipse class="cls-4" cx="208.34" cy="149.8" rx="13.27" ry="6.08"/>
          <ellipse class="cls-3" cx="218.34" cy="163.39" rx="19.29" ry="13.67"/>
          <ellipse class="cls-4" cx="216.85" cy="164.11" rx="20.78" ry="13.95"/>
          <ellipse class="cls-3" cx="253.12" cy="156.85" rx="25.29" ry="9.29"/>
          <ellipse class="cls-4" cx="252.7" cy="157.85" rx="24.87" ry="9.29"/>
          <ellipse class="cls-3" cx="171.1" cy="142.23" rx="13.04" ry="7.93"/>
          <ellipse class="cls-4" cx="171.1" cy="143.23" rx="13.04" ry="7.93"/>
          <ellipse class="cls-4" cx="113.23" cy="150.56" rx="18.38" ry="11.85"/>
          <ellipse class="cls-3" cx="193.91" cy="145.74" rx="15.86" ry="10.44"/>
          <ellipse class="cls-4" cx="193.91" cy="146.74" rx="15.86" ry="10.44"/>
          <ellipse class="cls-3" cx="150.5" cy="141.8" rx="16.71" ry="9.35"/>
          <ellipse class="cls-3" cx="137.3" cy="154.45" rx="13.3" ry="15.26"/>
          <ellipse class="cls-4" cx="137.3" cy="155.45" rx="13.3" ry="15.26"/>
          <ellipse class="cls-4" cx="150.5" cy="142.8" rx="16.71" ry="9.35"/>
          <ellipse class="cls-4" cx="191.5" cy="166.86" rx="20.4" ry="11.2"/>
          <ellipse class="cls-3" cx="298.26" cy="167.26" rx="19.53" ry="7.85"/>
          <ellipse class="cls-3" cx="257.41" cy="150.16" rx="16.06" ry="7.03"/>
          <ellipse class="cls-4" cx="255.36" cy="146.48" rx="8.33" ry="4.68"/>
          <ellipse class="cls-4" cx="257.01" cy="151.16" rx="15.65" ry="7.03"/>
          <ellipse class="cls-3" cx="255.36" cy="145.48" rx="8.33" ry="4.68"/>
          <ellipse class="cls-4" cx="255.38" cy="146.22" rx="7.84" ry="4.94"/>
          <ellipse class="cls-4" cx="356.53" cy="185.87" rx="10.17" ry="7.8"/>
          <ellipse class="cls-4" cx="345.27" cy="179.68" rx="12.37" ry="6.7"/>
          <ellipse class="cls-4" cx="371.14" cy="193.47" rx="21.81" ry="9.11"/>
          <ellipse class="cls-4" cx="369.56" cy="200.59" rx="15.76" ry="5.63"/>
          <ellipse class="cls-3" cx="355.56" cy="176.11" rx="11.97" ry="7.24"/>
          <ellipse class="cls-3" cx="378.67" cy="185.26" rx="14.28" ry="8.2"/>
          <ellipse class="cls-3" cx="96.17" cy="162.93" rx="25.83" ry="16.37"/>
          <ellipse class="cls-4" cx="97.17" cy="163.93" rx="25.83" ry="16.37"/>
          <ellipse class="cls-4" cx="151.64" cy="179.52" rx="53.47" ry="26.7"/>
          <ellipse class="cls-3" cx="431.24" cy="199.63" rx="9.45" ry="4.34"/>
          <ellipse class="cls-6" cx="254.16" cy="206.26" rx="69.4" ry="34.75"/>
          <ellipse class="cls-6" cx="345.57" cy="206.4" rx="38.67" ry="16.44"/>
          <ellipse class="cls-6" cx="390.22" cy="205.4" rx="17.27" ry="9.44"/>
          <ellipse class="cls-4" cx="297.63" cy="168.26" rx="18.9" ry="7.85"/>
          <ellipse class="cls-3" cx="286.36" cy="166.96" rx="13.7" ry="10.11"/>
          <ellipse class="cls-4" cx="286.36" cy="167.96" rx="13.7" ry="10.11"/>
          <ellipse class="cls-6" cx="432.01" cy="201.15" rx="9.68" ry="4.25"/>
          <ellipse class="cls-3" cx="409.96" cy="204.77" rx="17.51" ry="11.31"/>
          <ellipse class="cls-6" cx="409.8" cy="206.77" rx="18.48" ry="11.31"/>
          <ellipse class="cls-3" cx="391.72" cy="193.46" rx="13.18" ry="6.13"/>
          <ellipse class="cls-4" cx="391.32" cy="194.09" rx="12.78" ry="5.76"/>
          <ellipse class="cls-4" cx="355.56" cy="177.11" rx="11.97" ry="7.24"/>
          <ellipse class="cls-4" cx="378.67" cy="186.26" rx="14.28" ry="8.2"/>
          <ellipse class="cls-4" cx="200.23" cy="170.47" rx="47.31" ry="12.62"/>
          <ellipse class="cls-4" cx="319.85" cy="192.72" rx="63.87" ry="21.12"/>
          <ellipse class="cls-6" cx="181.1" cy="219.81" rx="73.06" ry="28.16"/>
          <ellipse class="cls-6" cx="104.8" cy="206.24" rx="64.24" ry="34.77"/>
          <ellipse class="cls-3" cx="74.35" cy="171.62" rx="34.79" ry="12.25"/>
          <ellipse class="cls-4" cx="77.08" cy="172.77" rx="35.53" ry="13.1"/>
          <ellipse class="cls-3" cx="50.82" cy="182.13" rx="21.52" ry="9.51"/>
          <ellipse class="cls-4" cx="58.36" cy="182.63" rx="28.06" ry="10.01"/>
          <ellipse class="cls-3" cx="345.99" cy="174.67" rx="11.38" ry="7.42"/>
          <ellipse class="cls-4" cx="346.67" cy="175.67" rx="12.06" ry="7.42"/>
          <ellipse class="cls-3" cx="367.54" cy="176.04" rx="11.01" ry="7.17"/>
          <ellipse class="cls-4" cx="367.54" cy="177.04" rx="11.01" ry="7.17"/>
          <ellipse class="cls-3" cx="318.65" cy="179.3" rx="20.94" ry="12.34"/>
          <ellipse class="cls-4" cx="318.65" cy="180.3" rx="20.94" ry="12.34"/>
          <ellipse class="cls-3" cx="38.5" cy="192.28" rx="19.86" ry="12.94"/>
          <ellipse class="cls-6" cx="44.3" cy="194.32" rx="25.26" ry="13.76"/>
          <ellipse class="cls-4" cx="254.16" cy="205.26" rx="69.4" ry="34.75"/>
          <ellipse class="cls-4" cx="345.57" cy="205.4" rx="38.67" ry="16.44"/>
          <ellipse class="cls-4" cx="390.22" cy="204.4" rx="17.27" ry="9.44"/>
          <ellipse class="cls-4" cx="432.01" cy="200.15" rx="9.68" ry="4.25"/>
          <ellipse class="cls-4" cx="409.8" cy="205.77" rx="18.48" ry="11.31"/>
          <ellipse class="cls-4" cx="181.1" cy="218.81" rx="73.06" ry="28.16"/>
          <ellipse class="cls-4" cx="43.54" cy="193.3" rx="25.38" ry="13.78"/>
          <path class="cls-6" d="M118.29,177.47a21.84,21.84,0,0,0-10.43,2.4c-2-1.88-6-3.16-10.55-3.16a20.59,20.59,0,0,0-7.09,1.18,25.16,25.16,0,0,0-11.85-2.59c-7.25,0-13.3,2.33-14.93,5.45A11.76,11.76,0,0,0,54,192.05c0,.13,0,.25,0,.38a11.77,11.77,0,0,1,9.42-10.92,5.34,5.34,0,0,1,.59-.87c2.22-2.67,7.79-4.57,14.34-4.57,8.21,0,14.9,3,15.32,6.73a2.32,2.32,0,0,0,0-.38c0-1.5-1-2.89-2.73-4a21.42,21.42,0,0,1,6.3-.91c4.19,0,7.87,1.09,10,2.72-2.25,1.4-3.62,3.23-3.62,5.23,0,.13,0,.25,0,.38.37-4.21,6.73-7.57,14.55-7.57s14.19,3.36,14.56,7.57c0-.13,0-.25,0-.38C132.88,181,126.35,177.47,118.29,177.47Z"/>
          <ellipse class="cls-4" cx="104.8" cy="205.24" rx="64.24" ry="34.77"/>
          <ellipse class="cls-6" cx="111.66" cy="233.74" rx="15.86" ry="10.21"/>
          <ellipse class="cls-4" cx="111.66" cy="232.74" rx="15.86" ry="10.21"/>
          <ellipse class="cls-6" cx="131.25" cy="236.91" rx="13.7" ry="10.21"/>
          <ellipse class="cls-4" cx="131.25" cy="235.91" rx="13.7" ry="10.21"/>
          <ellipse class="cls-6" cx="46.16" cy="209.07" rx="15.86" ry="10.21"/>
          <ellipse class="cls-4" cx="47.16" cy="208.07" rx="15.92" ry="10.21"/>
          <ellipse class="cls-6" cx="55.59" cy="221.69" rx="11.53" ry="10.21"/>
          <ellipse class="cls-4" cx="56.2" cy="220.69" rx="11.29" ry="10.21"/>
          <ellipse class="cls-6" cx="214.97" cy="236.91" rx="11.53" ry="10.21"/>
          <ellipse class="cls-4" cx="214.97" cy="235.91" rx="11.53" ry="10.21"/>
          <ellipse class="cls-6" cx="228.97" cy="234.74" rx="11.53" ry="10.21"/>
          <ellipse class="cls-4" cx="228.97" cy="233.74" rx="11.53" ry="10.21"/>
          <ellipse class="cls-6" cx="312.82" cy="219.62" rx="15.86" ry="10.21"/>
          <ellipse class="cls-4" cx="312.75" cy="218.62" rx="15.8" ry="10.21"/>
          <ellipse class="cls-6" cx="384.23" cy="209.94" rx="11.53" ry="10.21"/>
          <ellipse class="cls-4" cx="384" cy="208.94" rx="11.76" ry="10.21"/>
        </g>
        <path class="cls-4" d="M622,213.08a10.25,10.25,0,0,0-.76-3.23,26.5,26.5,0,0,0-1.26-2.7c-.37-.71-.7-1.38-1-2l-.09-.23a12.58,12.58,0,0,1,1-1.41l5.28-6.52H609.49L598,213.08h-18l1.34-4.44a9.36,9.36,0,0,0,.53-3.6,6,6,0,0,0-1.52-3.71,6.27,6.27,0,0,0-3.14-1.83,10.85,10.85,0,0,0-2.63-.3H557.89l-3.76,12.21h3.42l-.5,1.67H541.47c.33-1,.61-1.94.84-2.91a16.1,16.1,0,0,0,.44-3.41,7,7,0,0,0-2.14-5.79A8.15,8.15,0,0,0,535,199.2H517l-6.22,12.21h5.75c-.08.52-.14,1.08-.19,1.67H499.91l4.16-13.88h0l3.54-11.69H494.83l-4.4,14.55h0l-3.27,11H469.59l.5-1.67h4.36l3.76-12.21h-4.47l3-10L463,192.59l-2,6.61h-4.41l-3.76,12.21h4.5l-.51,1.67H439.05l4.16-13.88h-19.5a9.32,9.32,0,0,0-5.22,1.37,8.41,8.41,0,0,0-3.27,4.88L413,213.08H401.63l1.56-5.23a6.61,6.61,0,0,0-.88-6.14c-.87-1.15-2.58-2.51-5.79-2.51H382.41l-3.81,12.74c-.11.39-.19.76-.27,1.14H361.52l4.15-13.88H346.18a9.32,9.32,0,0,0-5.22,1.37,8.36,8.36,0,0,0-3.27,4.88l-2.27,7.63H319.55l9.71-13.88H314.38l-4.06,5.86a6.25,6.25,0,0,0-.84-2.76,6.11,6.11,0,0,0-2.58-2.36,6.92,6.92,0,0,0-2.59-.69c-.51,0-.91-.05-1.23-.05h-6.53l-3.87,12.21h5l-1.06,13.88h46.89l.1-.16a11.25,11.25,0,0,0,2.77-.8,18,18,0,0,0,3.38-2l.29.3a8.41,8.41,0,0,0,3.52,2.06,13.22,13.22,0,0,0,3.9.55h27l.42-.72.05,0a14.82,14.82,0,0,0,4.54.7H421.1l.1-.17a11.22,11.22,0,0,0,2.71-.79,18,18,0,0,0,3.38-2l.29.3a8.41,8.41,0,0,0,3.52,2.06,13.27,13.27,0,0,0,3.9.55h27l.37-.62a13.27,13.27,0,0,0,4.23.62h56.29l.28-.49a12,12,0,0,0,3.48.49h39.52l1.54-5.15a8.18,8.18,0,0,0,1.81,2.34,10.16,10.16,0,0,0,4.34,2.25,18.36,18.36,0,0,0,4.63.56H644l7.16-12.21Z"/>
        <g>
          <path class="cls-5" d="M341.24,221.29h-40.3L302,207.41h-3.84l1.33-4.21h3.6c.25,0,.56,0,.95,0a3.32,3.32,0,0,1,1.14.3,2.21,2.21,0,0,1,.89.83,2.76,2.76,0,0,1,.26,1.62l-.81,10.36c0,.38,0,.59.14.65a1,1,0,0,0,.39.08h.81l9.63-13.88h5.1l-9.72,13.88h31.89Z"/>
          <path class="cls-5" d="M382.19,221.29H357.47a8.88,8.88,0,0,1-2.71-.37,4.41,4.41,0,0,1-1.88-1.07,3.2,3.2,0,0,1-.9-1.78,5.56,5.56,0,0,1,.27-2.53l.44-1.41c-.81.89-1.64,1.76-2.48,2.61a23.15,23.15,0,0,1-2.64,2.28,13.76,13.76,0,0,1-2.79,1.64,7.34,7.34,0,0,1-3,.63,3.68,3.68,0,0,1-2.13-.53,2.68,2.68,0,0,1-1-1.35,4.71,4.71,0,0,1-.2-1.87,8.55,8.55,0,0,1,.4-2l2.68-8.94a4.57,4.57,0,0,1,1.63-2.69,5.48,5.48,0,0,1,3-.71H360.3L356.46,216a1.13,1.13,0,0,0-.06.6.53.53,0,0,0,.2.31.63.63,0,0,0,.34.12l.41,0H384.7Zm-36.5-13.88-2.63,8.82a1.79,1.79,0,0,0-.16.75.18.18,0,0,0,.24.14,3.6,3.6,0,0,0,1.46-.71,23.51,23.51,0,0,0,1.92-1.54c.69-.6,1.41-1.27,2.17-2s1.46-1.44,2.12-2.12,1.26-1.33,1.8-1.93,1-1.06,1.26-1.41Z"/>
          <path class="cls-5" d="M418.81,221.29H389.48a10.55,10.55,0,0,1-3.3-.51,6.28,6.28,0,0,1-2.59-1.54,5.26,5.26,0,0,1-1.4-2.57,7,7,0,0,1,.25-3.6l2.95-9.87h11.13a3.1,3.1,0,0,1,2.61.93,2.84,2.84,0,0,1,.22,2.59l-1,3.4-4.74,1,1.14-3.76h-6.15l-1.87,6a2.91,2.91,0,0,0,.21,2.69,3,3,0,0,0,2.55,1h31.8Z"/>
          <path class="cls-5" d="M459.72,221.29H435a8.88,8.88,0,0,1-2.71-.37,4.47,4.47,0,0,1-1.88-1.07,3.12,3.12,0,0,1-.89-1.78,5.41,5.41,0,0,1,.26-2.53l.44-1.41c-.8.89-1.63,1.76-2.48,2.61a24,24,0,0,1-2.63,2.28,14.1,14.1,0,0,1-2.8,1.64,7.3,7.3,0,0,1-3,.63,3.63,3.63,0,0,1-2.12-.53,2.7,2.7,0,0,1-1-1.35,4.71,4.71,0,0,1-.2-1.87,8.55,8.55,0,0,1,.4-2l2.68-8.94a4.57,4.57,0,0,1,1.63-2.69,5.48,5.48,0,0,1,3-.71h14.12L434,216a1.13,1.13,0,0,0-.06.6.53.53,0,0,0,.2.31.63.63,0,0,0,.34.12l.41,0h27.35Zm-36.5-13.88-2.63,8.82a1.79,1.79,0,0,0-.16.75.18.18,0,0,0,.24.14,3.6,3.6,0,0,0,1.46-.71,21.92,21.92,0,0,0,1.92-1.54c.69-.6,1.41-1.27,2.17-2s1.46-1.44,2.12-2.12,1.26-1.33,1.8-1.93,1-1.06,1.26-1.41Z"/>
          <path class="cls-5" d="M493.27,221.29H466.6a8.82,8.82,0,0,1-3.46-.59,4.71,4.71,0,0,1-2-1.56,4.34,4.34,0,0,1-.79-2.2,6.56,6.56,0,0,1,.3-2.53l2.15-7h-4.49l1.29-4.21H464l2.15-7.28,4.73-1.18-2.51,8.46h4.41l-1.29,4.21h-4.37L464.82,215c-.08.27-.15.53-.2.78a1.07,1.07,0,0,0,0,.67.89.89,0,0,0,.51.45,3.06,3.06,0,0,0,1.15.16h29.46Z"/>
          <path class="cls-5" d="M520.58,221.29H494.32a4.2,4.2,0,0,1-3.56-1.38c-.7-.91-.78-2.25-.24-4l3.76-12.71h4.41L494.85,216a.93.93,0,0,0,0,.77c.1.19.39.28.85.28H523Zm-20.35-23.23h-4.41l2-6.55h4.41Z"/>
          <path class="cls-5" d="M561.94,221.29H526.65a6.35,6.35,0,0,1-4.83-1.78,6.64,6.64,0,0,1-1.6-4.94,15.26,15.26,0,0,1,.93-5.18h4.45a24.41,24.41,0,0,0-.83,2.35,9.34,9.34,0,0,0-.38,2.43,3.76,3.76,0,0,0,.56,2.22,2.24,2.24,0,0,0,2,.93,4.71,4.71,0,0,0,2.95-1,9.45,9.45,0,0,0,2.27-2.55,13.05,13.05,0,0,0,1.43-3.24,12.31,12.31,0,0,0,.55-3.09H517.26l2.15-4.21H535a4.51,4.51,0,0,1,3,.77,3.28,3.28,0,0,1,.79,2.71,11.74,11.74,0,0,1-.34,2.59,24.62,24.62,0,0,1-.89,3,17.53,17.53,0,0,1-1.32,2.8,8,8,0,0,1-1.62,2h29.91Z"/>
          <path class="cls-5" d="M600.58,221.29H578.49a14.09,14.09,0,0,1-3.62-.43,6.13,6.13,0,0,1-2.67-1.35,4.27,4.27,0,0,1-1.34-2.37,7.35,7.35,0,0,1,.3-3.5l1.91-6.23h-5.71l-4.17,13.88h-4.41l4.13-13.88h-3.36l1.3-4.21h13.67a6.92,6.92,0,0,1,1.66.18,2.28,2.28,0,0,1,1.16.65,2.09,2.09,0,0,1,.48,1.29,5.7,5.7,0,0,1-.34,2.09l-2,6.43a5,5,0,0,0-.28,1.68,1.38,1.38,0,0,0,.41,1,1.94,1.94,0,0,0,1,.47,9.41,9.41,0,0,0,1.64.12h24.76Z"/>
          <path class="cls-5" d="M641.69,221.29h-35l1.78-4.21h1.7a5.86,5.86,0,0,0,1.72-.24,2.88,2.88,0,0,0,1.32-.85,2.66,2.66,0,0,0,.52-1.78,4.22,4.22,0,0,0-.28-1.52,15.33,15.33,0,0,0-.67-1.52l-.75-1.54a5.58,5.58,0,0,1-.48-1.57L604,218.78a9.53,9.53,0,0,1-1.11,1.35,3.59,3.59,0,0,1-1,.75,3.9,3.9,0,0,1-1.16.33,12,12,0,0,1-1.43.08H597L611.55,201h5.18a17.33,17.33,0,0,0-1.3,1.85,4,4,0,0,0-.6,2.12,4.57,4.57,0,0,0,.48,1.86c.32.7.69,1.44,1.09,2.21s.77,1.55,1.1,2.34a6.27,6.27,0,0,1,.48,2.33,7.21,7.21,0,0,1-.2,1.8,4.91,4.91,0,0,1-.85,1.6h27.23Z"/>
        </g>
        <g>
          <g>
            <polygon class="cls-3" points="228.58 100.25 174.16 100.25 174.16 115.85 193.15 115.85 193.15 186.4 209.38 186.4 209.38 115.85 228.58 115.85 228.58 100.25"/>
            <path class="cls-3" d="M258,131.31a18.56,18.56,0,0,0-9.35-2.78,14.63,14.63,0,0,0-7.34,1.83v-.47h-15.8V186.4h15.8V158.15c0-12.79,3.14-14.43,5.88-14.43.66,0,1,.17,2.22,1.06l.67.47,3.48,2.39,7.57-14.55Z"/>
            <path class="cls-3" d="M370.93,129.89H353.3l-12.19,27.5-12.18-27.5H297.31v2.53A24.62,24.62,0,0,0,284,128.53c-15.83,0-27.32,12.5-27.32,29.72,0,16.82,11.7,29.51,27.21,29.51a24.84,24.84,0,0,0,13.39-3.71v2.35h15.8V134.09l28,60.74Zm-85.86,42.69c-8.48,0-12.34-7.76-12.34-15,0-6.74,4.29-13.9,12.24-13.9,8.81,0,12.75,7,12.75,14S294.41,172.58,285.07,172.58Z"/>
            <path class="cls-3" d="M419.36,163.65l.2-3.52c.53-9.24-2.32-17.88-7.81-23.69a25.64,25.64,0,0,0-19.18-7.91C376.36,128.53,365,141,365,158.77c0,16.8,11.67,29,27.74,29,11.28,0,20.49-5.6,25.93-15.75l1.71-3.19-9-5.17Zm-14.3.72c-3.09,5.6-6.8,8.21-11.66,8.21a12,12,0,0,1-11.81-8.93h23.87Zm-12.39-20.65a10.84,10.84,0,0,1,9.13,5.37H383.12A11.89,11.89,0,0,1,392.67,143.72Z"/>
            <rect class="cls-3" x="423.38" y="92.84" width="15.81" height="93.56"/>
            <polygon class="cls-3" points="463.51 112.25 447.7 112.25 447.7 129.89 442.59 129.89 442.59 145.07 447.7 145.07 447.7 186.4 463.51 186.4 463.51 145.07 472.27 145.07 472.27 129.89 463.51 129.89 463.51 112.25"/>
            <circle class="cls-3" cx="481.8" cy="115.15" r="9.68"/>
            <rect class="cls-3" x="473.89" y="129.89" width="15.81" height="56.51"/>
            <path class="cls-3" d="M552,128.53a21,21,0,0,0-14.63,5.67,19,19,0,0,0-13.66-5.67,17.11,17.11,0,0,0-8.27,2.1v-.74H499.67V186.4h15.81V157.31c0-11.95,3.42-13.59,7.13-13.59,1.76,0,5,0,5,11.09V186.4h15.81V156.68c0-12,3.57-13,6.92-13,3.62,0,5.24,1.51,5.24,10.46V186.4h15.81V152.82C571.42,131.69,559.28,128.53,552,128.53Z"/>
            <path class="cls-3" d="M621.81,163.65h8l.2-3.52c.53-9.24-2.32-17.88-7.81-23.69A25.64,25.64,0,0,0,603,128.53c-16.21,0-27.53,12.44-27.53,30.24,0,16.8,11.67,29,27.74,29,11.28,0,20.49-5.6,25.93-15.75l1.71-3.19Zm-9.61-14.56H593.52a11.88,11.88,0,0,1,9.55-5.37A10.84,10.84,0,0,1,612.2,149.09Zm3.26,15.28c-3.09,5.6-6.8,8.21-11.66,8.21A12,12,0,0,1,592,163.65h23.87Z"/>
          </g>
          <g>
            <g>
              <polygon class="cls-5" points="195.88 183.67 195.88 113.12 176.89 113.12 176.89 102.98 225.85 102.98 225.85 113.12 206.65 113.12 206.65 183.67 195.88 183.67"/>
              <path class="cls-4" d="M224.85,104v8.14h-19.2v70.55h-8.77V112.12h-19V104h47m2-2h-51v12.14h19v70.55h12.77V114.12h19.2V102Z"/>
            </g>
            <g>
              <path class="cls-5" d="M228.24,183.67v-51h10.34v3.71c2.52-3,5.26-5.07,10.07-5.07a15.72,15.72,0,0,1,8,2.43l.84.47-4.93,9.48-.93-.64-.64-.45a6.09,6.09,0,0,0-3.8-1.56c-7.63,0-8.61,9.17-8.61,17.15v25.53Z"/>
              <path class="cls-4" d="M248.65,132.26a14.74,14.74,0,0,1,7.51,2.3l-4,7.62c-1.67-1.15-2.81-2.19-5-2.19-9.19,0-9.61,11.79-9.61,18.16v24.52h-8.35v-49h8.35v5.32h.21c2.92-3.86,5.43-6.68,10.86-6.68m0-2a12.43,12.43,0,0,0-9.07,3.55v-2.19H227.23v53h12.35V158.15c0-11.18,2.35-16.16,7.61-16.16,1.22,0,1.87.42,3.22,1.38l.65.46,1.86,1.28,1.05-2,4-7.62.9-1.71-1.69-1a16.78,16.78,0,0,0-8.49-2.56Z"/>
            </g>
            <g>
              <path class="cls-5" d="M283.92,185c-14,0-24.48-11.51-24.48-26.78,0-15.64,10.34-27,24.59-27a22.12,22.12,0,0,1,16,6.91v-5.55h10.35v51H300v-5.35A21.42,21.42,0,0,1,283.92,185ZM285,141c-7.26,0-15,5.83-15,16.63,0,12.15,7.81,17.68,15.07,17.68,10.63,0,15.38-8.82,15.38-17.57C300.45,147.87,294.08,141,285,141Z"/>
              <path class="cls-4" d="M284,132.26a21.2,21.2,0,0,1,16.8,8.35H301v-7h8.35v49H301v-6.78h-.21A20.64,20.64,0,0,1,283.92,184c-14.4,0-23.48-12.21-23.48-25.78,0-14,8.87-26,23.59-26m1,44c10.75,0,16.38-8.66,16.38-18.57S295.3,140,285,140c-9.71,0-16,8.45-16,17.63,0,9.6,5.63,18.68,16.07,18.68m-1-46c-14.83,0-25.59,11.77-25.59,28,0,15.84,10.95,27.78,25.48,27.78A22.47,22.47,0,0,0,299,180.65v4h12.35v-53H299v4.23a23,23,0,0,0-15-5.59Zm1,44c-6.78,0-14.07-5.22-14.07-16.68,0-10.15,7.19-15.63,14-15.63,7.21,0,14.48,4.86,14.48,15.74,0,8.25-4.44,16.57-14.38,16.57Z"/>
            </g>
            <g>
              <polygon class="cls-5" points="315.44 132.62 327.15 132.62 341.11 164.13 355.07 132.62 366.68 132.62 341.12 188.3 315.44 132.62"/>
              <path class="cls-4" d="M365.12,133.62l-24,52.29L317,133.62h9.49l14.61,33,14.61-33h9.4m3.12-2H354.42l-.52,1.19-12.79,28.85-12.78-28.85-.53-1.19H313.88l1.31,2.84,24.11,52.28,1.82,3.95,1.81-3.95,24-52.29,1.3-2.83Z"/>
            </g>
            <g>
              <path class="cls-5" d="M392.78,185c-14.49,0-25-11-25-26.26,0-16.45,10-27.51,24.8-27.51a23,23,0,0,1,17.2,7.05c5,5.27,7.55,13.17,7.07,21.67l-.06.94H378.37c.55,8.39,6.73,14.38,15,14.38,5.88,0,10.47-3.14,14.05-9.6l.49-.89,8.82,5.06-.46.85C411.36,180,403,185,392.78,185Zm13.07-33.21c-1.53-6.25-7-10.83-13.18-10.83A14.56,14.56,0,0,0,379,151.82Z"/>
              <path class="cls-4" d="M392.57,132.26c15.76,0,24.1,13.05,23.27,27.66H377.33c.1,9.08,6.57,16.38,16.07,16.38,7.1,0,11.69-4.27,14.93-10.12l7.09,4.07C410.73,179,402.79,184,392.78,184c-14.62,0-24-11.17-24-25.26,0-14.51,8.46-26.51,23.8-26.51m-14.82,20.56h29.32C405.92,145.73,400,140,392.67,140a15.5,15.5,0,0,0-14.92,12.83m14.82-22.56c-7.88,0-14.51,3-19.19,8.53-4.26,5.09-6.61,12.19-6.61,20,0,15.79,10.94,27.26,26,27.26,10.61,0,19.28-5.27,24.4-14.83l.92-1.72-1.68-1-7.1-4.07-1.76-1-1,1.77c-3.44,6.21-7.62,9.09-13.18,9.09a13.73,13.73,0,0,1-13.93-12.38h38.26l.11-1.89c.5-8.77-2.18-16.94-7.34-22.41a24,24,0,0,0-17.93-7.36ZM380.3,150.82A13.57,13.57,0,0,1,392.67,142a12.83,12.83,0,0,1,11.84,8.83Z"/>
            </g>
            <g>
              <rect class="cls-5" x="426.11" y="95.57" width="10.35" height="88.1"/>
              <path class="cls-4" d="M435.46,96.57v86.1h-8.35V96.57h8.35m2-2H425.11v90.1h12.35V94.57Z"/>
            </g>
            <g>
              <polygon class="cls-5" points="450.43 183.67 450.43 142.34 445.31 142.34 445.31 132.62 450.43 132.62 450.43 114.98 460.78 114.98 460.78 132.62 469.54 132.62 469.54 142.34 460.78 142.34 460.78 183.67 450.43 183.67"/>
              <path class="cls-4" d="M459.78,116v17.64h8.76v7.72h-8.76v41.33h-8.35V141.34h-5.11v-7.72h5.11V116h8.35m2-2H449.43v17.64h-5.11v11.72h5.11v41.33h12.35V143.34h8.76V131.62h-8.76V114Z"/>
            </g>
            <g>
              <path class="cls-5" d="M476.62,183.67v-51H487v51Zm5.18-61.57a7,7,0,0,1-6.95-6.95,6.95,6.95,0,1,1,13.9,0A7,7,0,0,1,481.8,122.1Z"/>
              <path class="cls-4" d="M481.8,109.2a6,6,0,0,1,5.95,6,5.95,5.95,0,1,1-5.95-6M486,133.62v49h-8.35v-49H486M481.8,107.2a8.06,8.06,0,0,0-7.95,8,7.95,7.95,0,1,0,15.9,0,8.06,8.06,0,0,0-7.95-8ZM488,131.62H475.62v53H488v-53Z"/>
            </g>
            <g>
              <path class="cls-5" d="M558.34,183.67V154.18c0-7-.61-13.19-8-13.19-8.5,0-9.65,7.93-9.65,15.69v27H530.37V154.81c0-9.56-2.39-13.82-7.76-13.82-8.74,0-9.86,8.72-9.86,16.32v26.36H502.4v-51h10.35v3.63a14.61,14.61,0,0,1,11-5,16.15,16.15,0,0,1,13.59,7.19c3.13-4.53,8.5-7.19,14.7-7.19,10.89,0,16.65,7.46,16.65,21.56v30.85Z"/>
              <path class="cls-4" d="M552,132.26c12.52,0,15.65,10.23,15.65,20.56v29.85h-8.35V154.18c0-6.37-.42-14.19-9-14.19-9.61,0-10.65,9.28-10.65,16.69v26h-8.35V154.81c0-6.06-.73-14.82-8.76-14.82-9.81,0-10.86,9.91-10.86,17.32v25.36H503.4v-49h8.35v5.32H512a13.84,13.84,0,0,1,11.79-6.68,15.05,15.05,0,0,1,13.57,8.14c2.92-5.42,8.77-8.14,14.72-8.14m0-2a18.68,18.68,0,0,0-14.68,6.51,17.2,17.2,0,0,0-13.61-6.51,15.5,15.5,0,0,0-10,3.63v-2.27H501.4v53h12.35V157.31c0-10.74,2.65-15.32,8.86-15.32,4.74,0,6.76,3.83,6.76,12.82v29.86h12.35v-28c0-10.44,2.51-14.69,8.65-14.69,5.86,0,7,4.28,7,12.19v30.49h12.35V152.82c0-18.64-9.6-22.56-17.65-22.56Z"/>
            </g>
            <g>
              <path class="cls-5" d="M603.17,185c-14.48,0-25-11-25-26.26,0-16.45,10-27.51,24.8-27.51a23,23,0,0,1,17.2,7.05c5,5.27,7.55,13.17,7.07,21.67l-.06.94H588.77c.55,8.39,6.73,14.38,15,14.38,5.88,0,10.47-3.14,14.05-9.6l.49-.89,8.82,5.06-.46.85C621.76,180,613.41,185,603.17,185Zm13.08-33.21c-1.53-6.25-7-10.83-13.18-10.83a14.56,14.56,0,0,0-13.71,10.83Z"/>
              <path class="cls-4" d="M603,132.26c15.76,0,24.1,13.05,23.27,27.66H587.73c.1,9.08,6.57,16.38,16.07,16.38,7.1,0,11.69-4.27,14.93-10.12l7.09,4.07C621.13,179,613.19,184,603.18,184c-14.62,0-24-11.17-24-25.26,0-14.51,8.46-26.51,23.8-26.51m-14.82,20.56h29.32c-1.15-7.09-7.09-12.83-14.4-12.83a15.5,15.5,0,0,0-14.92,12.83M603,130.26c-7.88,0-14.51,3-19.19,8.53-4.26,5.09-6.61,12.19-6.61,20,0,15.79,10.94,27.26,26,27.26,10.61,0,19.28-5.27,24.41-14.83l.91-1.72-1.68-1-7.1-4.07-1.76-1-1,1.77c-3.44,6.21-7.62,9.09-13.18,9.09a13.73,13.73,0,0,1-13.93-12.38h38.26l.11-1.89c.5-8.77-2.18-16.94-7.35-22.41A24,24,0,0,0,603,130.26ZM590.7,150.82A13.57,13.57,0,0,1,603.07,142a12.84,12.84,0,0,1,11.84,8.83Z"/>
            </g>
          </g>
        </g>
      </g>
    </g>
  </g>
</svg>
