<svg xmlns="http://www.w3.org/2000/svg" xmlns:xlink="http://www.w3.org/1999/xlink" viewBox="0 0 412.21 65.89">
  <defs>
    <style>
      .cls-1 {
        fill: none;
      }

      .cls-2 {
        clip-path: url(#clip-path);
      }

      .cls-3 {
        fill: #010101;
      }

      .cls-4 {
        fill: #ef3a4c;
      }

      .cls-5 {
        clip-path: url(#clip-path-2);
      }

      .cls-6 {
        fill: url(#linear-gradient);
      }

      .cls-7 {
        clip-path: url(#clip-path-3);
      }

      .cls-8 {
        clip-path: url(#clip-path-4);
      }

      .cls-9 {
        fill: url(#linear-gradient-3);
      }
    </style>
    <clipPath id="clip-path" transform="translate(0 0)">
      <rect class="cls-1" width="412.21" height="65.89"/>
    </clipPath>
    <clipPath id="clip-path-2" transform="translate(0 0)">
      <polygon class="cls-1" points="261.05 0 242.4 26.72 223.74 0 216.37 0 238.67 31.89 215.07 65.81 222.08 65.81 242.4 37.32 262.71 65.81 269.71 65.81 246.12 31.89 268.42 0 261.05 0"/>
    </clipPath>
    <linearGradient id="linear-gradient" x1="-176.05" y1="268.86" x2="-175.05" y2="268.86" gradientTransform="translate(14788.22 -22265.82) scale(82.94)" gradientUnits="userSpaceOnUse">
      <stop offset="0" stop-color="#f37124"/>
      <stop offset="0.43" stop-color="#ef3a4c"/>
      <stop offset="1" stop-color="#ef3a4c"/>
    </linearGradient>
    <clipPath id="clip-path-3" transform="translate(0 0)">
      <polygon class="cls-1" points="202.22 0 224.52 31.89 200.93 65.81 207.93 65.81 228.5 36.96 231.98 32.08 228.5 27.09 209.59 0 202.22 0"/>
    </clipPath>
    <clipPath id="clip-path-4" transform="translate(0 0)">
      <polygon class="cls-1" points="188.06 0 210.37 31.89 186.77 65.81 193.77 65.81 214.35 36.96 217.83 32.08 214.35 27.09 195.43 0 188.06 0"/>
    </clipPath>
    <linearGradient id="linear-gradient-3" x1="-176.05" y1="268.86" x2="-175.05" y2="268.86" xlink:href="#linear-gradient"/>
  </defs>
  <title>vexti</title>
  <g id="Layer_2" data-name="Layer 2">
    <g id="Layer_3" data-name="Layer 3">
      <g id="Vector_Smart_Object" data-name="Vector Smart Object">
        <g class="cls-2">
          <polygon class="cls-3" points="49.46 0 28.25 58.97 28.05 58.97 6.64 0 0 0 24.36 65.89 31.65 65.89 56.1 0 49.46 0"/>
          <polygon class="cls-3" points="108.06 0 108.06 65.89 154.01 65.89 154.01 60.54 114.33 60.54 114.33 34.52 151.06 34.52 151.06 29.16 114.33 29.16 114.33 5.35 153.56 5.35 153.56 0 108.06 0"/>
          <polygon class="cls-3" points="301.01 0 301.01 5.35 323.87 5.35 323.87 65.89 330.18 65.89 330.18 5.35 353.15 5.35 353.15 0 301.01 0"/>
          <rect class="cls-3" x="405.94" width="6.28" height="65.89"/>
          <polygon class="cls-4" points="261.05 0 242.39 26.72 223.74 0 216.37 0 238.67 31.89 215.07 65.81 222.08 65.81 242.39 37.32 262.71 65.81 269.71 65.81 246.12 31.89 268.42 0 261.05 0"/>
          <polygon class="cls-4" points="202.22 0 224.52 31.89 200.93 65.81 207.93 65.81 228.5 36.96 231.98 32.08 228.5 27.09 209.59 0 202.22 0"/>
          <polygon class="cls-4" points="188.06 0 210.37 31.89 186.77 65.81 193.77 65.81 214.35 36.96 217.83 32.08 214.35 27.09 195.43 0 188.06 0"/>
          <g class="cls-5">
            <rect class="cls-6" x="215.07" width="54.64" height="65.81"/>
          </g>
          <g class="cls-7">
            <rect class="cls-6" x="200.93" width="31.06" height="65.81"/>
          </g>
          <g class="cls-8">
            <rect class="cls-9" x="186.77" width="31.06" height="65.81"/>
          </g>
        </g>
      </g>
    </g>
  </g>
</svg>
