<?xml version="1.0" encoding="utf-8"?>
<!-- Generator: Adobe Illustrator 22.1.0, SVG Export Plug-In . SVG Version: 6.00 Build 0)  -->
<svg version="1.1" id="Layer_1" xmlns="http://www.w3.org/2000/svg" xmlns:xlink="http://www.w3.org/1999/xlink" x="0px" y="0px"
	 viewBox="0 0 412.2 102.9" style="enable-background:new 0 0 412.2 102.9;" xml:space="preserve">
<style type="text/css">
	.st0{clip-path:url(#SVGID_2_);}
	.st1{fill:#666666;}
	.st2{fill:#EF3A4C;}
	.st3{clip-path:url(#SVGID_6_);}
	.st4{clip-path:url(#SVGID_7_);}
	.st5{clip-path:url(#SVGID_8_);}
	.st6{fill:url(#SVGID_9_);}
	.st7{fill:url(#SVGID_10_);}
	.st8{fill:url(#SVGID_11_);}
</style>
<title>vexti</title>
<g>
	<g>
		<g id="Layer_2_1_">
			<g id="Layer_3">
				<defs>
					<rect id="SVGID_1_" width="412.2" height="65.9"/>
				</defs>
				<clipPath id="SVGID_2_">
					<use xlink:href="#SVGID_1_"  style="overflow:visible;"/>
				</clipPath>
				<g id="Vector_Smart_Object" class="st0">
					<polygon class="st1" points="49.5,0 28.2,59 28,59 6.6,0 0,0 24.4,65.9 31.6,65.9 56.1,0 					"/>
					<polygon class="st1" points="108.1,0 108.1,65.9 154,65.9 154,60.5 114.3,60.5 114.3,34.5 151.1,34.5 151.1,29.2 114.3,29.2 
						114.3,5.3 153.6,5.3 153.6,0 					"/>
					<polygon class="st1" points="301,0 301,5.3 323.9,5.3 323.9,65.9 330.2,65.9 330.2,5.3 353.1,5.3 353.1,0 					"/>
					<rect x="405.9" class="st1" width="6.3" height="65.9"/>
					<polygon class="st2" points="261,0 242.4,26.7 223.7,0 216.4,0 238.7,31.9 215.1,65.8 222.1,65.8 242.4,37.3 262.7,65.8 
						269.7,65.8 246.1,31.9 268.4,0 					"/>
					<polygon class="st2" points="202.2,0 224.5,31.9 200.9,65.8 207.9,65.8 228.5,37 232,32.1 228.5,27.1 209.6,0 					"/>
					<polygon class="st2" points="188.1,0 210.4,31.9 186.8,65.8 193.8,65.8 214.4,37 217.8,32.1 214.4,27.1 195.4,0 					"/>
					<g>
						<defs>
							<polygon id="SVGID_3_" points="261,0 242.4,26.7 223.7,0 216.4,0 238.7,31.9 215.1,65.8 222.1,65.8 242.4,37.3 262.7,65.8 
								269.7,65.8 246.1,31.9 268.4,0 							"/>
						</defs>
						<defs>
							<polygon id="SVGID_4_" points="202.2,0 224.5,31.9 200.9,65.8 207.9,65.8 228.5,37 232,32.1 228.5,27.1 209.6,0 							"/>
						</defs>
						<defs>
							<polygon id="SVGID_5_" points="188.1,0 210.4,31.9 186.8,65.8 193.8,65.8 214.4,37 217.8,32.1 214.4,27.1 195.4,0 							"/>
						</defs>
						<clipPath id="SVGID_6_">
							<use xlink:href="#SVGID_3_"  style="overflow:visible;"/>
						</clipPath>
						<clipPath id="SVGID_7_" class="st3">
							<use xlink:href="#SVGID_4_"  style="overflow:visible;"/>
						</clipPath>
						<clipPath id="SVGID_8_" class="st4">
							<use xlink:href="#SVGID_5_"  style="overflow:visible;"/>
						</clipPath>
						<g class="st5">
							
								<linearGradient id="SVGID_9_" gradientUnits="userSpaceOnUse" x1="-362.7712" y1="67.8668" x2="-361.7712" y2="67.8668" gradientTransform="matrix(82.94 0 0 -82.94 30274.8809 5661.7803)">
								<stop  offset="0" style="stop-color:#F37124"/>
								<stop  offset="0.43" style="stop-color:#EF3A4C"/>
								<stop  offset="1" style="stop-color:#EF3A4C"/>
							</linearGradient>
							<rect x="215.1" class="st6" width="54.6" height="65.8"/>
						</g>
						<g class="st5">
							
								<linearGradient id="SVGID_10_" gradientUnits="userSpaceOnUse" x1="-362.7712" y1="67.8668" x2="-361.7712" y2="67.8668" gradientTransform="matrix(82.94 0 0 -82.94 30274.8809 5661.7803)">
								<stop  offset="0" style="stop-color:#F37124"/>
								<stop  offset="0.43" style="stop-color:#EF3A4C"/>
								<stop  offset="1" style="stop-color:#EF3A4C"/>
							</linearGradient>
							<rect x="200.9" class="st7" width="31.1" height="65.8"/>
						</g>
						<g class="st5">
							
								<linearGradient id="SVGID_11_" gradientUnits="userSpaceOnUse" x1="-362.7712" y1="67.8668" x2="-361.7712" y2="67.8668" gradientTransform="matrix(82.94 0 0 -82.94 30274.8809 5661.7803)">
								<stop  offset="0" style="stop-color:#F37124"/>
								<stop  offset="0.43" style="stop-color:#EF3A4C"/>
								<stop  offset="1" style="stop-color:#EF3A4C"/>
							</linearGradient>
							<rect x="186.8" class="st8" width="31.1" height="65.8"/>
						</g>
					</g>
				</g>
			</g>
		</g>
	</g>
</g>
<g>
	<path class="st1" d="M27.5,95.9h-0.8V84.5H33v0.7h-5.5V90h5.2v0.7h-5.2V95.9z"/>
	<path class="st1" d="M39.5,85c0-0.5,0.2-0.8,0.5-0.8c0.2,0,0.3,0.1,0.4,0.2c0.1,0.1,0.1,0.3,0.1,0.6c0,0.2,0,0.4-0.1,0.6
		c-0.1,0.1-0.2,0.2-0.4,0.2C39.6,85.8,39.5,85.5,39.5,85z M40.4,95.9h-0.8v-8.5h0.8V95.9z"/>
	<path class="st1" d="M54.2,95.9v-5.5c0-0.9-0.2-1.5-0.5-1.9s-0.9-0.6-1.7-0.6c-1,0-1.8,0.3-2.2,0.8c-0.5,0.5-0.7,1.3-0.7,2.5v4.7
		h-0.8v-8.5h0.7l0.1,1.2h0c0.6-0.9,1.5-1.3,2.9-1.3c1.9,0,2.9,1,2.9,3.1v5.6H54.2z"/>
	<path class="st1" d="M67.9,95.9l-0.2-1.3h-0.1c-0.4,0.5-0.9,0.9-1.3,1.2c-0.5,0.2-1,0.3-1.6,0.3c-0.8,0-1.5-0.2-1.9-0.6
		s-0.7-1-0.7-1.8c0-0.8,0.3-1.5,1-1.9c0.7-0.5,1.7-0.7,3-0.7l1.6,0v-0.6c0-0.8-0.2-1.4-0.5-1.8s-0.9-0.6-1.6-0.6
		c-0.8,0-1.6,0.2-2.4,0.7l-0.3-0.7c0.9-0.4,1.9-0.7,2.8-0.7c0.9,0,1.6,0.2,2.1,0.7c0.5,0.5,0.7,1.2,0.7,2.3v5.6H67.9z M64.8,95.3
		c0.9,0,1.6-0.3,2.1-0.8c0.5-0.5,0.8-1.2,0.8-2.2v-0.8l-1.5,0.1c-1.2,0.1-2,0.2-2.6,0.6c-0.5,0.3-0.8,0.8-0.8,1.5
		c0,0.5,0.2,0.9,0.5,1.2C63.7,95.2,64.2,95.3,64.8,95.3z"/>
	<path class="st1" d="M82.2,95.9v-5.5c0-0.9-0.2-1.5-0.5-1.9s-0.9-0.6-1.7-0.6c-1,0-1.8,0.3-2.2,0.8c-0.5,0.5-0.7,1.3-0.7,2.5v4.7
		h-0.8v-8.5h0.7l0.1,1.2h0c0.6-0.9,1.5-1.3,2.9-1.3c1.9,0,2.9,1,2.9,3.1v5.6H82.2z"/>
	<path class="st1" d="M94.2,96c-1.2,0-2.2-0.4-2.9-1.1c-0.7-0.8-1-1.8-1-3.2c0-1.4,0.4-2.5,1.1-3.3c0.7-0.8,1.7-1.2,2.9-1.2
		c0.7,0,1.4,0.1,2.1,0.4l-0.2,0.7c-0.7-0.2-1.4-0.4-1.9-0.4c-1,0-1.8,0.3-2.4,1c-0.5,0.6-0.8,1.6-0.8,2.8c0,1.1,0.3,2,0.8,2.7
		c0.5,0.6,1.3,1,2.2,1c0.8,0,1.5-0.1,2.1-0.4v0.7C95.7,95.9,95,96,94.2,96z"/>
	<path class="st1" d="M103.3,85c0-0.5,0.2-0.8,0.5-0.8c0.2,0,0.3,0.1,0.4,0.2c0.1,0.1,0.1,0.3,0.1,0.6c0,0.2,0,0.4-0.1,0.6
		c-0.1,0.1-0.2,0.2-0.4,0.2C103.5,85.8,103.3,85.5,103.3,85z M104.2,95.9h-0.8v-8.5h0.8V95.9z"/>
	<path class="st1" d="M117.2,95.9l-0.2-1.3H117c-0.4,0.5-0.9,0.9-1.3,1.2c-0.5,0.2-1,0.3-1.6,0.3c-0.8,0-1.5-0.2-1.9-0.6
		s-0.7-1-0.7-1.8c0-0.8,0.3-1.5,1-1.9c0.7-0.5,1.7-0.7,3-0.7l1.6,0v-0.6c0-0.8-0.2-1.4-0.5-1.8s-0.9-0.6-1.6-0.6
		c-0.8,0-1.6,0.2-2.4,0.7l-0.3-0.7c0.9-0.4,1.9-0.7,2.8-0.7c0.9,0,1.6,0.2,2.1,0.7c0.5,0.5,0.7,1.2,0.7,2.3v5.6H117.2z M114.1,95.3
		c0.9,0,1.6-0.3,2.1-0.8c0.5-0.5,0.8-1.2,0.8-2.2v-0.8l-1.5,0.1c-1.2,0.1-2,0.2-2.6,0.6c-0.5,0.3-0.8,0.8-0.8,1.5
		c0,0.5,0.2,0.9,0.5,1.2C113.1,95.2,113.5,95.3,114.1,95.3z"/>
	<path class="st1" d="M126.4,95.9h-0.8V83.7h0.8V95.9z"/>
	<path class="st1" d="M150,92.9c0,1-0.4,1.7-1.1,2.3c-0.7,0.6-1.6,0.8-2.8,0.8c-1.4,0-2.5-0.2-3.2-0.5v-0.8c0.8,0.3,1.9,0.5,3.1,0.5
		c0.9,0,1.7-0.2,2.2-0.6c0.5-0.4,0.8-1,0.8-1.7c0-0.4-0.1-0.8-0.3-1.1c-0.2-0.3-0.5-0.5-0.9-0.8c-0.4-0.2-1-0.5-1.8-0.8
		c-1.2-0.4-2-0.8-2.4-1.3c-0.4-0.5-0.7-1.1-0.7-1.9c0-0.9,0.3-1.5,1-2.1c0.7-0.5,1.5-0.8,2.6-0.8c1.1,0,2.1,0.2,3,0.6l-0.3,0.7
		c-0.9-0.4-1.9-0.6-2.7-0.6c-0.8,0-1.5,0.2-2,0.6c-0.5,0.4-0.7,0.9-0.7,1.6c0,0.4,0.1,0.8,0.2,1c0.2,0.3,0.4,0.5,0.8,0.7
		c0.3,0.2,0.9,0.5,1.8,0.8c0.9,0.3,1.6,0.6,2,0.9s0.8,0.6,1,1C149.9,92,150,92.4,150,92.9z"/>
	<path class="st1" d="M160.7,96c-1.2,0-2.2-0.4-2.9-1.1c-0.7-0.8-1-1.8-1-3.2c0-1.4,0.3-2.4,1-3.3c0.7-0.8,1.6-1.2,2.7-1.2
		c1,0,1.8,0.3,2.4,1c0.6,0.7,0.9,1.6,0.9,2.8v0.6h-6.1c0,1.2,0.3,2.1,0.8,2.7c0.5,0.6,1.3,0.9,2.3,0.9c0.5,0,0.9,0,1.3-0.1
		c0.4-0.1,0.8-0.2,1.4-0.4v0.7c-0.5,0.2-0.9,0.4-1.3,0.4C161.6,96,161.2,96,160.7,96z M160.5,87.9c-0.8,0-1.5,0.3-2,0.8
		c-0.5,0.5-0.8,1.3-0.9,2.3h5.2c0-1-0.2-1.8-0.6-2.3C161.8,88.2,161.2,87.9,160.5,87.9z"/>
	<path class="st1" d="M174.4,87.2c0.4,0,0.7,0,1.2,0.1l-0.1,0.7c-0.4-0.1-0.7-0.1-1.1-0.1c-0.7,0-1.3,0.3-1.8,0.9
		c-0.5,0.6-0.7,1.4-0.7,2.3v4.7h-0.8v-8.5h0.7l0.1,1.5h0.1c0.3-0.6,0.7-1.1,1.1-1.3C173.4,87.4,173.9,87.2,174.4,87.2z"/>
	<path class="st1" d="M184.2,95.9l-3.3-8.5h0.8l2.2,5.8c0.3,0.7,0.5,1.4,0.7,1.9h0c0.2-0.7,0.4-1.4,0.7-2l2.2-5.8h0.8l-3.3,8.5
		H184.2z"/>
	<path class="st1" d="M194.7,85c0-0.5,0.2-0.8,0.5-0.8c0.2,0,0.3,0.1,0.4,0.2c0.1,0.1,0.1,0.3,0.1,0.6c0,0.2,0,0.4-0.1,0.6
		c-0.1,0.1-0.2,0.2-0.4,0.2C194.8,85.8,194.7,85.5,194.7,85z M195.5,95.9h-0.8v-8.5h0.8V95.9z"/>
	<path class="st1" d="M206.8,96c-1.2,0-2.2-0.4-2.9-1.1c-0.7-0.8-1-1.8-1-3.2c0-1.4,0.4-2.5,1.1-3.3c0.7-0.8,1.7-1.2,2.9-1.2
		c0.7,0,1.4,0.1,2.1,0.4l-0.2,0.7c-0.7-0.2-1.4-0.4-1.9-0.4c-1,0-1.8,0.3-2.4,1c-0.5,0.6-0.8,1.6-0.8,2.8c0,1.1,0.3,2,0.8,2.7
		c0.5,0.6,1.3,1,2.2,1c0.8,0,1.5-0.1,2.1-0.4v0.7C208.4,95.9,207.7,96,206.8,96z"/>
	<path class="st1" d="M219.5,96c-1.2,0-2.2-0.4-2.9-1.1c-0.7-0.8-1-1.8-1-3.2c0-1.4,0.3-2.4,1-3.3c0.7-0.8,1.6-1.2,2.7-1.2
		c1,0,1.8,0.3,2.4,1c0.6,0.7,0.9,1.6,0.9,2.8v0.6h-6.1c0,1.2,0.3,2.1,0.8,2.7c0.5,0.6,1.3,0.9,2.3,0.9c0.5,0,0.9,0,1.3-0.1
		c0.4-0.1,0.8-0.2,1.4-0.4v0.7c-0.5,0.2-0.9,0.4-1.3,0.4S220,96,219.5,96z M219.3,87.9c-0.8,0-1.5,0.3-2,0.8
		c-0.5,0.5-0.8,1.3-0.9,2.3h5.2c0-1-0.2-1.8-0.6-2.3C220.6,88.2,220,87.9,219.3,87.9z"/>
	<path class="st1" d="M235.2,93.7c0,0.8-0.3,1.3-0.9,1.8c-0.6,0.4-1.4,0.6-2.5,0.6c-1.1,0-2-0.2-2.7-0.5v-0.8
		c0.9,0.4,1.8,0.6,2.7,0.6c0.8,0,1.5-0.1,1.9-0.4c0.4-0.3,0.7-0.6,0.7-1.1c0-0.4-0.2-0.8-0.5-1.1c-0.3-0.3-0.9-0.6-1.7-0.9
		c-0.8-0.3-1.4-0.6-1.8-0.8c-0.3-0.2-0.6-0.5-0.8-0.8c-0.2-0.3-0.3-0.6-0.3-1c0-0.6,0.3-1.1,0.8-1.5c0.5-0.4,1.3-0.6,2.2-0.6
		c0.9,0,1.8,0.2,2.6,0.5l-0.3,0.7c-0.8-0.3-1.6-0.5-2.3-0.5c-0.7,0-1.2,0.1-1.6,0.3c-0.4,0.2-0.6,0.5-0.6,1c0,0.4,0.2,0.8,0.5,1.1
		c0.3,0.3,0.9,0.6,1.8,0.9c0.8,0.3,1.3,0.5,1.7,0.7c0.3,0.2,0.6,0.5,0.8,0.8C235.1,93,235.2,93.3,235.2,93.7z"/>
	<path class="st1" d="M251.8,95.9V84.5h0.8v11.4H251.8z"/>
	<path class="st1" d="M266.6,95.9v-5.5c0-0.9-0.2-1.5-0.5-1.9c-0.4-0.4-0.9-0.6-1.7-0.6c-1,0-1.8,0.3-2.2,0.8
		c-0.5,0.5-0.7,1.3-0.7,2.5v4.7h-0.8v-8.5h0.7l0.1,1.2h0c0.6-0.9,1.5-1.3,2.9-1.3c1.9,0,2.9,1,2.9,3.1v5.6H266.6z"/>
	<path class="st1" d="M277.5,95.4c0.5,0,0.9,0,1.3-0.1v0.6c-0.4,0.1-0.8,0.2-1.3,0.2c-0.8,0-1.3-0.2-1.7-0.6c-0.4-0.4-0.5-1-0.5-1.9
		v-5.5H274v-0.5l1.3-0.4l0.4-1.9h0.4v2.1h2.5v0.7H276v5.4c0,0.7,0.1,1.1,0.3,1.4S277,95.4,277.5,95.4z"/>
	<path class="st1" d="M289,96c-1.2,0-2.2-0.4-2.9-1.1c-0.7-0.8-1-1.8-1-3.2c0-1.4,0.3-2.4,1-3.3c0.7-0.8,1.6-1.2,2.7-1.2
		c1,0,1.8,0.3,2.4,1c0.6,0.7,0.9,1.6,0.9,2.8v0.6h-6.1c0,1.2,0.3,2.1,0.8,2.7c0.5,0.6,1.3,0.9,2.3,0.9c0.5,0,0.9,0,1.3-0.1
		c0.4-0.1,0.8-0.2,1.4-0.4v0.7c-0.5,0.2-0.9,0.4-1.3,0.4S289.5,96,289,96z M288.8,87.9c-0.8,0-1.5,0.3-2,0.8
		c-0.5,0.5-0.8,1.3-0.9,2.3h5.2c0-1-0.2-1.8-0.6-2.3C290.2,88.2,289.6,87.9,288.8,87.9z"/>
	<path class="st1" d="M302.8,87.2c0.4,0,0.7,0,1.2,0.1l-0.1,0.7c-0.4-0.1-0.7-0.1-1.1-0.1c-0.7,0-1.3,0.3-1.8,0.9
		c-0.5,0.6-0.7,1.4-0.7,2.3v4.7h-0.8v-8.5h0.7l0.1,1.5h0.1c0.3-0.6,0.7-1.1,1.1-1.3S302.2,87.2,302.8,87.2z"/>
	<path class="st1" d="M321.3,95.9v-5.6c0-0.8-0.2-1.4-0.5-1.8c-0.3-0.4-0.8-0.6-1.5-0.6c-0.9,0-1.5,0.2-1.9,0.7
		c-0.4,0.5-0.6,1.2-0.6,2.3v5H316v-5.8c0-1.4-0.7-2.1-2-2.1c-0.9,0-1.5,0.3-1.9,0.8c-0.4,0.5-0.6,1.3-0.6,2.5v4.7h-0.8v-8.5h0.6
		l0.2,1.2h0c0.2-0.4,0.6-0.7,1-1c0.4-0.2,0.9-0.3,1.4-0.3c1.3,0,2.2,0.5,2.6,1.5h0c0.3-0.5,0.6-0.9,1.1-1.1s1-0.4,1.6-0.4
		c0.9,0,1.6,0.2,2.1,0.7c0.5,0.5,0.7,1.3,0.7,2.4v5.6H321.3z"/>
	<path class="st1" d="M333.3,96c-1.2,0-2.2-0.4-2.9-1.1c-0.7-0.8-1-1.8-1-3.2c0-1.4,0.3-2.4,1-3.3c0.7-0.8,1.6-1.2,2.7-1.2
		c1,0,1.8,0.3,2.4,1c0.6,0.7,0.9,1.6,0.9,2.8v0.6h-6.1c0,1.2,0.3,2.1,0.8,2.7c0.5,0.6,1.3,0.9,2.3,0.9c0.5,0,0.9,0,1.3-0.1
		c0.4-0.1,0.8-0.2,1.4-0.4v0.7c-0.5,0.2-0.9,0.4-1.3,0.4S333.8,96,333.3,96z M333.1,87.9c-0.8,0-1.5,0.3-2,0.8
		c-0.5,0.5-0.8,1.3-0.9,2.3h5.2c0-1-0.2-1.8-0.6-2.3C334.5,88.2,333.9,87.9,333.1,87.9z"/>
	<path class="st1" d="M346.8,87.2c0.6,0,1.1,0.1,1.6,0.3c0.4,0.2,0.8,0.6,1.2,1.1h0c0-0.7,0-1.3,0-1.9v-3.1h0.8v12.2h-0.5l-0.2-1.3
		h-0.1c-0.6,1-1.6,1.5-2.8,1.5c-1.2,0-2.1-0.4-2.7-1.1c-0.6-0.7-0.9-1.8-0.9-3.2c0-1.5,0.3-2.6,0.9-3.4
		C344.8,87.6,345.7,87.2,346.8,87.2z M346.8,87.9c-0.9,0-1.6,0.3-2.1,1c-0.5,0.7-0.7,1.6-0.7,2.8c0,2.4,0.9,3.6,2.8,3.6
		c1,0,1.7-0.3,2.1-0.8c0.4-0.6,0.7-1.5,0.7-2.8v-0.1c0-1.3-0.2-2.3-0.7-2.8C348.5,88.2,347.8,87.9,346.8,87.9z"/>
	<path class="st1" d="M358.2,85c0-0.5,0.2-0.8,0.5-0.8c0.2,0,0.3,0.1,0.4,0.2s0.1,0.3,0.1,0.6c0,0.2,0,0.4-0.1,0.6
		c-0.1,0.1-0.2,0.2-0.4,0.2C358.4,85.8,358.2,85.5,358.2,85z M359.1,95.9h-0.8v-8.5h0.8V95.9z"/>
	<path class="st1" d="M372.1,95.9l-0.2-1.3h-0.1c-0.4,0.5-0.9,0.9-1.3,1.2s-1,0.3-1.6,0.3c-0.8,0-1.5-0.2-1.9-0.6
		c-0.5-0.4-0.7-1-0.7-1.8c0-0.8,0.3-1.5,1-1.9c0.7-0.5,1.7-0.7,3-0.7l1.6,0v-0.6c0-0.8-0.2-1.4-0.5-1.8s-0.9-0.6-1.6-0.6
		c-0.8,0-1.6,0.2-2.4,0.7l-0.3-0.7c0.9-0.4,1.9-0.7,2.8-0.7c0.9,0,1.6,0.2,2.1,0.7s0.7,1.2,0.7,2.3v5.6H372.1z M369,95.3
		c0.9,0,1.6-0.3,2.1-0.8c0.5-0.5,0.8-1.2,0.8-2.2v-0.8l-1.5,0.1c-1.2,0.1-2,0.2-2.5,0.6c-0.5,0.3-0.8,0.8-0.8,1.5
		c0,0.5,0.2,0.9,0.5,1.2C368,95.2,368.4,95.3,369,95.3z"/>
	<path class="st1" d="M383.9,87.2c0.4,0,0.7,0,1.2,0.1l-0.1,0.7c-0.4-0.1-0.7-0.1-1.1-0.1c-0.7,0-1.3,0.3-1.8,0.9
		c-0.5,0.6-0.7,1.4-0.7,2.3v4.7h-0.8v-8.5h0.7l0.1,1.5h0.1c0.3-0.6,0.7-1.1,1.1-1.3S383.3,87.2,383.9,87.2z"/>
	<path class="st1" d="M390.4,87.4h0.8l1.8,4.8c0.5,1.5,0.9,2.5,1,3h0c0.2-0.7,0.6-1.7,1.1-3l1.8-4.7h0.8l-3.8,9.9
		c-0.3,0.8-0.6,1.3-0.8,1.6s-0.5,0.5-0.7,0.6s-0.6,0.2-1,0.2c-0.3,0-0.6-0.1-1-0.2v-0.7c0.3,0.1,0.6,0.1,1,0.1
		c0.3,0,0.5-0.1,0.7-0.2s0.4-0.3,0.6-0.6s0.4-0.7,0.6-1.2c0.2-0.6,0.4-0.9,0.4-1.1L390.4,87.4z"/>
</g>
</svg>
