<svg xmlns="http://www.w3.org/2000/svg" viewBox="0 0 580.78 167.53"><defs><style>.cls-1{fill:#fff;}</style></defs><title>fullstory</title><g id="Layer_2" data-name="Layer 2"><g id="Layer_1-2" data-name="Layer 1"><path class="cls-1" d="M285.23,107.82c0,17.61-13.74,25.78-31.78,25.78-9.88,0-19.76-2.58-26.21-6.88h0v-18c7.74,6,17.19,9.45,25.78,9.45s14.17-3,14.17-9.45c0-6.87-5.15-9.45-15.89-12-17.61-3.86-24.92-11.17-24.92-25.77,0-17.18,12.89-25.78,30.07-25.78a46.28,46.28,0,0,1,24.49,6.45V68.73c-7.3-5.15-14.61-8.59-23.63-8.59-8.16,0-12.45,3.87-12.45,9.45s3.43,8.59,13.31,11.17C277.07,85.48,285.23,92.36,285.23,107.82Zm-91.92,25.35h17.18V0H193.31Zm-34.37,0h17.18V0H158.94ZM31.79,30.93c0-10.31,4.72-14.18,12.46-14.18,5.58,0,9.88,1.72,14.6,4.73V4.3C54.13,1.29,49,0,42.1,0,24.92,0,13.32,10.31,13.32,31.36V47.25H0v15.9H13.32v70h18.9v-70H60.57V47.25H31.79ZM122,116.84a83.86,83.86,0,0,1-14.61,1.29c-12.45,0-20.19-4.72-20.19-17.18V47.25H68.73v55c0,23.62,15,31.36,39.09,31.36,9.88,0,23.2-1.29,33.08-3.87V47.25H122ZM317.88,103.1V62.72h24.06V47.25H317.88V25.77H299V47.25H287.81v15.9h11.6v44.24c0,19.33,11.6,26.21,25.35,26.21,8.16,0,15-1.72,20.61-4.73V111.69c-5.15,3-9.88,4.72-15.46,4.72C322.18,116.84,317.88,113.41,317.88,103.1ZM480.69,46a68.7,68.7,0,0,0-33.08,8.6v78.61h18.9v-67a39.68,39.68,0,0,1,14.18-2.57,64,64,0,0,1,9,.86L482.84,46Zm80.76,1.29-23.63,66.59L513.34,47.25H493.15l35.22,88.06-12,32.22h18.48l46-120.28ZM436,89.35c0,26.2-18.47,44.25-43.81,44.25s-43.82-18-43.82-44.25S366.85,45.1,392.2,45.1,436,63.15,436,89.35Zm-19.33,0c0-17.18-10.31-27.92-24.91-27.92-14.18,0-24.49,10.74-24.49,27.92s10.31,27.92,24.49,27.92C406.37,117.27,416.68,106.53,416.68,89.35Z"/></g></g></svg>